<ttFont>
          <CharString index="0">
            rmoveto
            -65 hlineto
            -32 0 -11 -19 -17 -19 6 7 -22 vhcurveto
            9 -28 -30 10 -30 hhcurveto
            -68 -3 -42 -82 hvcurveto
            65 hlineto
            33 2 11 18 16 20 -7 -7 22 vhcurveto
            -9 27 31 -10 30 hhcurveto
            67 3 43 81 hvcurveto
            return
          </CharString>
          <CharString index="1">
            114 385 hlineto
            242 -13 69 -187 -187 -12 -69 -242 vhcurveto
            -385 114 211 171 vlineto
            217 vmoveto
            -112 -171 112 vlineto
            145 4 20 81 81 5 -20 -145 vhcurveto
            return
          </CharString>
          <CharString index="2">
            -34 callsubr
            18 -32 callgsubr
            15 vhcurveto
            19 9 -53 callsubr
            23 37 vvcurveto
            64 -43 23 -75 -27 -43 -6 -5 -27 vhcurveto
            -72 vlineto
            4 33 32 2 -52 callgsubr
            -5 -13 -66 callgsubr
            hvcurveto
            -77 callsubr
            return
          </CharString>
          <CharString index="3">
            rmoveto
            165 13 54 209 210 -13 53 -165 -165 -13 -53 -210 -209 13 -54 165 hvcurveto
            93 -8 callsubr
            return
          </CharString>
          <CharString index="4">
            rmoveto
            -70 hlineto
            -45 -1 -26 -55 -54 0 26 45 vhcurveto
            -69 hlineto
            -80 11 -57 112 -71 callgsubr
            vhcurveto
            return
          </CharString>
          <CharString index="5">
            -117 -4 -34 -64 -56 -5 8 128 vhcurveto
            281 -108 -331 vlineto
            -127 16 -60 103 58 40 19 53 18 vhcurveto
            6 hlineto
            return
          </CharString>
          <CharString index="6">
            rmoveto
            175 12 81 184 hvcurveto
            445 -100 vlineto
            -4 -63 rlineto
            -6 hlineto
            59 -19 -48 12 -42 hhcurveto
            -101 -32 -55 -206 -199 28 -59 104 52 37 16 47 17 hvcurveto
            6 -27 hlineto
            -124 -7 -16 -96 -25 -30 1 1 -57 vhcurveto
            -85 vlineto
            -7 32 57 -5 47 hhcurveto
            12 296 rmoveto
            -61 -8 11 150 152 7 8 62 38 17 -12 -43 7 hvcurveto
            4 -23 1 -35 -47 vvcurveto
            -55 -1 -36 -6 -25 vhcurveto
            -34 -7 -17 -11 -36 hhcurveto
            endchar
          </CharString>
          <CharString index="7">
            -99 callgsubr
            endchar
          </CharString>
          <CharString index="8">
            rmoveto
            120 67 32 183 49 -5 35 -8 25 hvcurveto
            -19 58 -37 15 -45 7 -93 16 rcurveline
            -47 8 -7 9 68 vvcurveto
            40 2 24 17 14 vhcurveto
            14 15 28 4 52 hhcurveto
            41 50 -4 -6 31 6 callgsubr
            9 -32 -64 9 -59 hhcurveto
            -120 -75 -37 -166 -104 17 -67 70 -12 hvcurveto
            99 -17 rlineto
            67 -12 8 -10 -79 vvcurveto
            -36 -2 -24 -14 -15 vhcurveto
            -15 -13 -27 -7 -49 hhcurveto
            -36 -60 4 5 -47 hvcurveto
            -97 vlineto
            -9 49 72 -6 54 hhcurveto
            return
          </CharString>
          <CharString index="9">
            hlineto
            77 -47 callsubr
            -53 -139 rlineto
            return
          </CharString>
          <CharString index="10">
            -31 callsubr
            hlineto
            76 127 rlineto
            7 -76 vlineto
            -56 -79 -56 79 rlineto
            -76 -7 hlineto
            return
          </CharString>
          <CharString index="11">
            rmoveto
            100 55 33 127 120 -39 20 -50 7 hvcurveto
            -76 10 rlineto
            -33 4 -5 6 48 vvcurveto
            48 17 10 51 34 47 -4 -5 31 vhcurveto
            86 vlineto
            9 -29 -53 7 -44 hhcurveto
            -99 -63 -32 -121 -101 19 -36 54 -8 hvcurveto
            89 -13 rlineto
            36 -6 6 -2 -55 vvcurveto
            -45 -9 -14 -62 -38 -38 3 5 -45 vhcurveto
            -87 vlineto
            -8 39 60 -6 45 hhcurveto
            return
          </CharString>
          <CharString index="12">
            rmoveto
            4 vlineto
            -46 120 rlineto
            -92 -4 hlineto
            66 -120 rlineto
            215 hmoveto
            4 vlineto
            -47 120 rlineto
            -91 -4 hlineto
            66 -120 rlineto
            return
          </CharString>
          <CharString index="13">
            rmoveto
            189 3 71 215 hvcurveto
            120 -192 -101 78 -39 vlineto
            -153 -4 -10 -79 -85 -13 16 233 238 17 11 133 30 57 -6 -7 41 vhcurveto
            96 vlineto
            12 -43 -68 8 -49 hhcurveto
            -192 -40 -67 -285 -287 28 -65 189 hvcurveto
            return
          </CharString>
          <CharString index="14">
            rmoveto
            -5 100 -26 31 -54 17 rrcurveto
            4 vlineto
            58 19 32 39 123 vvcurveto
            123 -39 65 -123 vhcurveto
            -229 -688 114 255 79 hlineto
            73 1 -41 -68 5 hvcurveto
            10 -146 rlineto
            113 hlineto
            -198 356 rmoveto
            -83 229 84 hlineto
            71 6 -25 -90 -88 -9 -26 -69 hvcurveto
            return
          </CharString>
          <CharString index="15">
            -91 callsubr
            endchar
          </CharString>
          <CharString index="16">
            rmoveto
            -227 vlineto
            -146 -4 -20 -82 -81 -5 20 146 vhcurveto
            227 -114 -185 vlineto
            -214 10 -78 131 -16 vhcurveto
            -195 114 195 vlineto
            135 14 10 78 216 vvcurveto
            185 vlineto
            return
          </CharString>
          <CharString index="17">
            rmoveto
            116 4 33 72 72 -4 34 -116 -114 -4 -34 -72 -72 4 -33 114 hvcurveto
            56 vmoveto
            -46 -1 10 39 38 1 12 46 49 1 -12 -38 -39 -1 -10 -49 hvcurveto
            return
          </CharString>
          <CharString index="18">
            rmoveto
            87 5 hlineto
            -53 -68 callgsubr
            -110 -5 hlineto
            return
          </CharString>
          <CharString index="19">
            rmoveto
            -61 vlineto
            -28 -11 -8 -59 vhcurveto
            -41 hlineto
            6 -25 -31 7 callsubr
            -278 7 -74 202 -71 callsubr
            153 -2 91 -36 51 hvcurveto
            90 5 12 27 76 vvcurveto
            38 vlineto
            -274 -690 rmoveto
            -89 -6 6 243 243 6 6 89 89 7 -6 -243 -243 -7 -6 -89 hvcurveto
            return
          </CharString>
          <CharString index="20">
            rmoveto
            70 hlineto
            45 1 26 55 54 0 -26 -45 vhcurveto
            69 hlineto
            80 -11 57 -112 -113 -13 -57 -80 vhcurveto
            return
          </CharString>
          <CharString index="21">
            rmoveto
            86 vlineto
            -5 -26 -32 -3 -23 hhcurveto
            -74 -11 18 152 150 10 20 75 21 31 -3 -5 26 hvcurveto
            86 vlineto
            9 -23 -44 6 -40 hhcurveto
            -139 -25 -75 -188 -181 16 -82 149 37 42 6 9 30 hvcurveto
            endchar
          </CharString>
          <CharString index="22">
            rmoveto
            97 95 -97 hlineto
            175 -95 rmoveto
            96 95 -96 hlineto
            return
          </CharString>
          <CharString index="23">
            114 244 hlineto
            167 444 2 callsubr
            -104 -305 rlineto
            -8 hlineto
            -106 305 rlineto
            -117 hlineto
            167 -444 rlineto
            return
          </CharString>
          <CharString index="24">
            rmoveto
            -77 -391 rlineto
            -8 hlineto
            -78 391 rlineto
            -111 hlineto
            118 -510 rlineto
            38 hlineto
            -44 -196 rlineto
            109 hlineto
            162 706 rlineto
            endchar
          </CharString>
          <CharString index="25">
            156 hlineto
            109 688 2 callsubr
            -71 -555 rlineto
            -6 hlineto
            -89 555 rlineto
            -137 hlineto
            -88 -555 rlineto
            -7 hlineto
            -72 555 rlineto
            -117 hlineto
            109 -688 rlineto
            156 hlineto
            82 509 rlineto
            6 hlineto
            endchar
          </CharString>
          <CharString index="26">
            106 688 -110 -404 -4 hlineto
            -178 404 rlineto
            -114 -688 110 425 4 hlineto
            return
          </CharString>
          <CharString index="27">
            319 93 -193 hlineto
            191 331 rlineto
            86 -310 -93 183 vlineto
            -190 -330 rlineto
            return
          </CharString>
          <CharString index="28">
            -34 callsubr
            66 120 rlineto
            4 -91 vlineto
            -47 -120 rlineto
            143 -4 -34 callsubr
            66 120 rlineto
            4 -92 vlineto
            -46 -120 rlineto
            return
          </CharString>
          <CharString index="29">
            -105 callsubr
            165 -19 -103 callsubr
            return
          </CharString>
          <CharString index="30">
            -14 -6 rlineto
            -28 -13 -14 -7 -40 vvcurveto
            return
          </CharString>
          <CharString index="31">
            743 -103 callsubr
            return
          </CharString>
          <CharString index="32">
            177 hlineto
            207 7 70 274 274 -7 70 -207 hvcurveto
            -177 hlineto
            114 -585 rmoveto
            482 60 vlineto
            95 8 -5 -236 -236 -7 -5 -96 hvcurveto
            return
          </CharString>
          <CharString index="33">
            rmoveto
            91 30 29 75 62 -20 21 -37 9 hvcurveto
            3 vlineto
            35 8 18 26 56 vvcurveto
            75 -37 24 -79 -30 -43 -5 -5 -26 vhcurveto
            -63 vlineto
            3 27 30 1 20 hhcurveto
            53 13 -2 -42 -43 -14 -2 -33 hvcurveto
            -57 -69 57 hlineto
            37 14 -5 -43 -44 -19 -1 -48 -20 -36 2 2 -25 hvcurveto
            -63 vlineto
            -6 31 40 -3 28 hhcurveto
            return
          </CharString>
          <CharString index="34">
            rmoveto
            -62 -8 10 153 152 8 11 62 38 17 -13 -43 7 hvcurveto
            4 -24 1 -35 -48 vvcurveto
            -61 -2 -39 -7 -25 vhcurveto
            -29 -9 -17 -9 -32 hhcurveto
            return
          </CharString>
          <CharString index="35">
            rmoveto
            -97 vlineto
            204 1 8 15 275 vvcurveto
            397 -114 -447 vlineto
            -134 -1 -8 -97 -2 vhcurveto
            endchar
          </CharString>
          <CharString index="36">
            202 8 74 278 return
          </CharString>
          <CharString index="37">
            rmoveto
            57 -79 rlineto
            75 7 hlineto
            -75 126 2 callsubr
            -75 -126 rlineto
            -7 75 vlineto
            return
          </CharString>
          <CharString index="38">
            -85 callsubr
            47 -187 -100 callsubr
          </CharString>
          <CharString index="39">
            -67 callsubr
            -61 return
          </CharString>
          <CharString index="40">
            39 221 -8 -99 callsubr
            return
          </CharString>
          <CharString index="41">
            rmoveto
            -63 vlineto
            -5 28 42 -4 29 hhcurveto
            97 21 42 88 68 -18 48 -81 -12 -26 -2 -2 -10 hvcurveto
            73 130 69 -198 -212 vlineto
            2 17 33 3 23 hhcurveto
            53 18 -7 -48 -45 -13 -9 -56 -19 -33 2 2 -25 hvcurveto
            return
          </CharString>
          <CharString index="42">
            rmoveto
            -59 callgsubr
            return
          </CharString>
          <CharString index="43">
            -121 hlineto
            endchar
          </CharString>
          <CharString index="44">
            rmoveto
            199 100 -199 hlineto
            return
          </CharString>
          <CharString index="45">
            114 48 hmoveto
            179 97 hlineto
            -57 14 -7 45 206 vvcurveto
            207 5 24 90 90 4 -26 -205 -206 -5 -45 -58 -14 vhcurveto
            -97 179 98 -3 vlineto
            -28 -1 -29 -15 -31 -7 rrcurveto
            6 vlineto
            67 39 24 98 157 vvcurveto
            233 -15 88 -195 -195 -15 -88 -233 -157 24 -98 67 -39 vhcurveto
            -6 vlineto
            -30 7 -29 15 -29 1 rrcurveto
            -3 hlineto
            endchar
          </CharString>
          <CharString index="46">
            rmoveto
            34 16 2 30 47 vvcurveto
            72 -4 34 -116 -114 -4 -34 -72 -48 2 -30 35 -16 vhcurveto
            -154 -685 14 callgsubr
            -156 rlineto
            117 hlineto
            -238 829 rmoveto
            49 1 -12 -38 -38 -1 -11 -49 -46 -1 11 38 38 1 12 46 hvcurveto
            -67 -571 rmoveto
            64 317 rlineto
            6 hlineto
            63 -317 rlineto
            endchar
          </CharString>
          <CharString index="47">
            rmoveto
            73 35 19 56 12 hvcurveto
            8 33 3 38 49 vvcurveto
            56 -4 40 -6 31 vhcurveto
            58 -12 -33 8 -65 hhcurveto
            -94 -20 -29 -103 -99 33 -14 55 47 14 17 8 8 hvcurveto
            4 hlineto
            -87 -4 -13 -68 -19 -32 3 4 -26 vhcurveto
            -63 vlineto
            -8 25 38 -4 28 hhcurveto
            13 212 rmoveto
            -37 -8 2 53 57 9 -4 36 34 10 1 -60 -47 -5 -2 -39 hvcurveto
            endchar
          </CharString>
          <CharString index="48">
            rmoveto
            94 21 28 104 99 -34 14 -54 -48 -14 -18 -7 -7 hvcurveto
            -4 hlineto
            86 3 13 69 18 33 -2 -4 25 vhcurveto
            63 vlineto
            7 -24 -39 5 -28 hhcurveto
            -76 -32 -20 -62 -13 hvcurveto
            -5 -31 -4 -35 -47 vvcurveto
            -32 0 -29 2 -32 vhcurveto
            -87 7 30 -13 80 hhcurveto
            -3 68 rmoveto
            -32 -11 -1 60 47 5 2 38 39 6 -2 -53 -57 -7 4 -38 hvcurveto
            endchar
          </CharString>
          <CharString index="49">
            780 -85 callsubr
            return
          </CharString>
          <CharString index="50">
            rmoveto
            97 hlineto
            21 51 rlineto
            -3 17 20 -1 23 hhcurveto
            165 13 54 209 117 -4 69 -33 37 hvcurveto
            37 88 rlineto
            -96 hlineto
            -22 -52 rlineto
            3 -17 -20 1 -23 5 callgsubr
            -117 4 -68 33 -38 hvcurveto
            141 53 -12 callsubr
          </CharString>
          <CharString index="51">
            rmoveto
            28 1 13 4 8 vhcurveto
            3 6 5 2 10 4 26 11 22 11 26 12 rrcurveto
            36 16 13 25 62 vvcurveto
            102 -53 6 -59 -34 -42 -5 -6 -26 vhcurveto
            -62 vlineto
            3 32 30 1 17 hhcurveto
            47 16 2 -46 -26 -3 -8 -25 -11 hvcurveto
            -24 -11 -23 -10 -23 -12 rrcurveto
            -46 -23 -2 -24 -96 vvcurveto
            -50 218 68 -146 vlineto
            endchar
          </CharString>
          <CharString index="52">
            -21 97 208 rmoveto
            101 54 hlineto
            54 3 6 47 25 vhcurveto
            15 9 rlineto
            62 34 14 47 89 vvcurveto
            117 -48 53 -115 -44 -63 -7 -9 -41 vhcurveto
            -96 vlineto
            5 32 42 4 26 hhcurveto
            70 25 -7 -73 -57 -11 -12 -38 -24 hvcurveto
            -17 -11 rlineto
            -41 -25 -19 -11 -78 vvcurveto
            -10 -295 -42 callgsubr
            endchar
          </CharString>
          <CharString index="53">
            93 445 167 -93 callsubr
            return
          </CharString>
          <CharString index="54">
            rlineto
            38 19 7 return
          </CharString>
          <CharString index="55">
            177 hlineto
            207 7 70 274 274 -7 70 -207 hvcurveto
            -177 hlineto
            466 -688 rmoveto
            -74 callgsubr
            -352 6 rmoveto
            482 60 vlineto
            95 8 -5 -236 -236 -7 -5 -96 hvcurveto
            endchar
          </CharString>
          <CharString index="56">
            rmoveto
            -50 callsubr
          </CharString>
          <CharString index="57">
            -89 -6 6 243 243 6 6 89 89 7 -6 -243 -243 -7 -6 -89 hvcurveto
            endchar
          </CharString>
          <CharString index="58">
            599 -72 callgsubr
            return
          </CharString>
          <CharString index="59">
            74 hlineto
            2 22 27 327 72 vvcurveto
            58 -132 -58 vlineto
            -72 27 -327 2 -22 vhcurveto
            return
          </CharString>
          <CharString index="60">
            -68 callgsubr
            5 -110 vlineto
            return
          </CharString>
          <CharString index="61">
            87 378 275 rmoveto
            65 34 8 80 81 vvcurveto
            136 -21 82 -149 vhcurveto
            -222 -688 114 251 98 hlineto
            74 -251 rlineto
            120 hlineto
            -211 354 rmoveto
            -81 231 81 hlineto
            75 8 -23 -92 -92 -8 -24 -75 hvcurveto
            return
          </CharString>
          <CharString index="62">
            48 290 510 rmoveto
            -266 vlineto
            -117 -4 -34 -63 -57 -5 8 128 vhcurveto
            281 -108 -699 107 183 vlineto
            -1 6 5 0 4 hhcurveto
            58 38 20 51 17 hvcurveto
            6 hlineto
            4 -64 rlineto
            100 510 hlineto
            endchar
          </CharString>
          <CharString index="63">
            -69 -8 -10 -44 vhcurveto
            -95 vlineto
            6 44 53 4 36 hhcurveto
            85 24 -10 -86 -87 -26 -11 -51 hvcurveto
            -93 -103 93 hlineto
            61 22 -19 -85 -89 -32 -8 -77 -35 -60 4 5 -46 hvcurveto
            -95 vlineto
            -10 49 68 -7 47 hhcurveto
            endchar
          </CharString>
          <CharString index="64">
            304 106 -190 582 -114 hlineto
            return
          </CharString>
          <CharString index="65">
            108 417 82 93 -82 148 -108 -148 -67 -93 67 hlineto
            return
          </CharString>
          <CharString index="66">
            rmoveto
            121 return
          </CharString>
          <CharString index="67">
            -6 hlineto
            -4 64 rlineto
            -99 return
          </CharString>
          <CharString index="68">
            -100 callgsubr
            171 -34 -103 callsubr
            return
          </CharString>
          <CharString index="69">
            -36 callgsubr
            endchar
          </CharString>
          <CharString index="70">
            633 -46 callgsubr
            return
          </CharString>
          <CharString index="71">
            771 -89 callsubr
            -109 -300 -106 callgsubr
            return
          </CharString>
          <CharString index="72">
            rmoveto
            76 127 rlineto
            7 -76 vlineto
            -56 -79 -56 79 rlineto
            -76 -7 hlineto
            76 -127 rlineto
            return
          </CharString>
          <CharString index="73">
            rmoveto
            72 hlineto
            return
          </CharString>
          <CharString index="74">
            780 rmoveto
            96 95 -96 hlineto
            return
          </CharString>
          <CharString index="75">
            96 vlineto
            -34 9 -48 7 -43 3 rrcurveto
            81 -82 -81 vlineto
            -137 -10 -31 -62 -199 vvcurveto
            -207 31 -58 137 -6 vhcurveto
            -81 82 82 vlineto
            130 return
          </CharString>
          <CharString index="76">
            rmoveto
            112 return
          </CharString>
          <CharString index="77">
            -42 callgsubr
            -5 -688 rmoveto
            131 58 hlineto
            72 -26 327 -3 22 vhcurveto
            -73 hlineto
            -3 -22 -26 -327 -72 vvcurveto
            endchar
          </CharString>
          <CharString index="78">
            635 rmoveto
            96 95 -96 hlineto
            return
          </CharString>
          <CharString index="79">
            -59 -40 -19 -53 -18 return
          </CharString>
          <CharString index="80">
            rmoveto
            32 51 rlineto
            -14 9 -10 16 20 vvcurveto
            20 10 16 15 9 vhcurveto
            -32 51 rlineto
            -32 -20 -21 -35 -41 vvcurveto
            -42 21 -34 31 -20 vhcurveto
            return
          </CharString>
          <CharString index="81">
            106 378 -81 callgsubr
            -38 return
          </CharString>
          <CharString index="82">
            -2 -16 -68 return
          </CharString>
          <CharString index="83">
            -101 53 hmoveto
            -75 callgsubr
            return
          </CharString>
          <CharString index="84">
            372 -81 callgsubr
            return
          </CharString>
          <CharString index="85">
            31 20 21 34 42 vvcurveto
            41 -21 35 -32 20 vhcurveto
            -32 -51 rlineto
            15 -9 10 -16 -20 vvcurveto
            -20 -10 -16 -14 -9 vhcurveto
            endchar
          </CharString>
          <CharString index="86">
            hlineto
            -154 return
          </CharString>
          <CharString index="87">
            397 rmoveto
            115 4 39 110 109 -4 41 -115 -114 -3 -41 -109 -110 3 -39 114 hvcurveto
            return
          </CharString>
          <CharString index="88">
            42 491 rmoveto
            -49 -8 callgsubr
            13 34 129 -21 callgsubr
            -16 -44 vhcurveto
            return
          </CharString>
          <CharString index="89">
            77 hlineto
            118 319 rlineto
            61 -223 -69 146 vlineto
            return
          </CharString>
          <CharString index="90">
            rmoveto
            72 -5 callgsubr
            -72 hlineto
            return
          </CharString>
          <CharString index="91">
            rmoveto
            120 118 -120 hlineto
            return
          </CharString>
          <CharString index="92">
            vvcurveto
            278 -8 74 -202 -202 -7 -74 -278 -278 7 -74 202 21 18 1 2 17 vhcurveto
            return
          </CharString>
          <CharString index="93">
            776 rmoveto
            49 vlineto
            -110 -13 -30 -115 hvcurveto
            -80 115 109 -45 16 vlineto
            40 9 11 44 vhcurveto
            return
          </CharString>
          <CharString index="94">
            98 9 rlineto
            76 vlineto
            -98 9 -9 163 rlineto
            -76 hlineto
            -8 -163 -96 -9 rlineto
            -76 vlineto
            96 -9 rlineto
            return
          </CharString>
          <CharString index="95">
            rmoveto
            -37 callgsubr
          </CharString>
          <CharString index="96">
            75 12 15 1 2 18 vhcurveto
            -5 callsubr
            return
          </CharString>
          <CharString index="97">
            13 69 69 14 -13 -86 -85 -16 -14 -67 hvcurveto
            -304 vmoveto
            -67 -20 11 91 92 17 11 70 69 return
          </CharString>
          <CharString index="98">
            53 hmoveto
            -28 callgsubr
            return
          </CharString>
          <CharString index="99">
            vmoveto
            -97 callgsubr
            return
          </CharString>
          <CharString index="100">
            rmoveto
            -35 -2 3 108 109 2 3 35 36 2 -3 -109 -108 -2 -3 -36 hvcurveto
            return
          </CharString>
          <CharString index="101">
            71 -5 callgsubr
            return
          </CharString>
          <CharString index="102">
            63 vlineto
            -1 -5 -4 0 return
          </CharString>
          <CharString index="103">
            385 vlineto
            return
          </CharString>
          <CharString index="104">
            rmoveto
            54 11 -12 -114 hvcurveto
            -1 -134 vlineto
            111 1 8 16 60 hhcurveto
            endchar
          </CharString>
          <CharString index="105">
            -62 vlineto
            -6 32 37 -4 25 hhcurveto
            return
          </CharString>
          <CharString index="106">
            rmoveto
            96 vlineto
            -249 92 249 91 rlineto
            95 vlineto
            -359 -138 rlineto
            -98 vlineto
            return
          </CharString>
          <CharString index="107">
            47 -142 -143 -54 -47 -132 -101 29 -47 60 -16 vhcurveto
            -4 vlineto
            -62 -18 return
          </CharString>
          <CharString index="108">
            -190 rmoveto
            98 hlineto
            37 193 rlineto
            5 -72 vlineto
            -63 -193 rlineto
            endchar
          </CharString>
          <CharString index="109">
            rlineto
            -113 hlineto
            return
          </CharString>
          <CharString index="110">
            71 159 125 -29 79 -137 -26 -40 -3 -4 -19 hvcurveto
            166 return
          </CharString>
          <CharString index="111">
            -167 -12 -80 -184 -188 14 -74 172 53 61 7 9 33 return
          </CharString>
          <CharString index="112">
            hlineto
            4 -63 rlineto
            100 return
          </CharString>
          <CharString index="113">
            hmoveto
            114 146 63 102 -63 200 -86 hlineto
            -28 -200 rlineto
            return
          </CharString>
          <CharString index="114">
            2 -36 hhcurveto
            -202 -7 -74 -278 return
          </CharString>
          <CharString index="115">
            -17 callgsubr
            -38 -5 -6 -27 vhcurveto
            return
          </CharString>
          <CharString index="116">
            162 -1 628 rmoveto
            567 60 -567 hlineto
            -688 vmoveto
            return
          </CharString>
          <CharString index="117">
            vvcurveto
            -45 23 -38 73 14 15 1 2 17 vhcurveto
            63 vlineto
            -1 return
          </CharString>
          <CharString index="118">
            -189 -2 callgsubr
            return
          </CharString>
          <CharString index="119">
            26 vhcurveto
            -9 33 37 -10 35 hhcurveto
            76 3 43 80 hvcurveto
            return
          </CharString>
          <CharString index="120">
            205 -145 143 -207 return
          </CharString>
          <CharString index="121">
            -252 24 273 rmoveto
            77 hlineto
            26 247 rlineto
            return
          </CharString>
          <CharString index="122">
            rmoveto
            99 9 37 131 131 -9 38 -99 return
          </CharString>
          <CharString index="123">
            41 3 -5 -125 -125 -3 -5 -41 hvcurveto
            return
          </CharString>
          <CharString index="124">
            -98 -10 -38 -131 -131 10 -37 98 hvcurveto
            return
          </CharString>
          <CharString index="125">
            -60 -185 rlineto
            -5 98 vlineto
            return
          </CharString>
          <CharString index="126">
            15 callgsubr
            35 128 hvcurveto
            return
          </CharString>
        <CharString name=".notdef">
          97 0 vmoveto
          500 700 -500 hlineto
          450 -50 rmoveto
          -600 -400 600 vlineto
          179 -435 rmoveto
          53 53 hlineto
          33 21 18 23 19 vhcurveto
          30 26 37 36 67 vvcurveto
          12 -3 123 -140 -140 -11 -124 -23 -11 2 -13 2 -7 vhcurveto
          49 28 hlineto
          23 8 77 90 77 12 -59 -28 -51 -28 -24 -28 -23 vhcurveto
          -28 -23 -26 -23 -43 vvcurveto
          -4 -179 rmoveto
          60 70 -60 hlineto
          endchar
        </CharString>
        <CharString name="A">
          92 367 hmoveto
          -103 callgsubr
          endchar
        </CharString>
        <CharString name="A.ss01">
          106 340 hmoveto
          -106 callsubr
          endchar
        </CharString>
        <CharString name="AE">
          271 344 hmoveto
          -47 callgsubr
        </CharString>
        <CharString name="AEacute">
          271 282 744 -100 callgsubr
          62 -749 rmoveto
          -47 callgsubr
        </CharString>
        <CharString name="Aacute">
          92 192 750 -100 callgsubr
          175 -755 rmoveto
          -103 callgsubr
          endchar
        </CharString>
        <CharString name="Aacute.ss01">
          106 207 749 -100 callgsubr
          133 -754 rmoveto
          -106 callsubr
          endchar
        </CharString>
        <CharString name="Abreve">
          92 -23 callsubr
          -5 -888 rmoveto
          -103 callgsubr
          endchar
        </CharString>
        <CharString name="Abreve.ss01">
          -26 callsubr
          -888 rmoveto
          -106 callsubr
          endchar
        </CharString>
        <CharString name="Acircumflex">
          92 116 750 -106 callgsubr
          251 -757 rmoveto
          -103 callgsubr
          endchar
        </CharString>
        <CharString name="Acircumflex.ss01">
          106 124 749 -106 callgsubr
          216 -756 rmoveto
          -106 callsubr
          endchar
        </CharString>
        <CharString name="Adieresis">
          92 112 -58 callsubr
          80 -875 rmoveto
          -103 callgsubr
          endchar
        </CharString>
        <CharString name="Adieresis.ss01">
          106 122 774 -85 callsubr
          43 -869 rmoveto
          -106 callsubr
          endchar
        </CharString>
        <CharString name="Agrave">
          92 217 750 -89 callsubr
          226 -889 rmoveto
          -103 callgsubr
          endchar
        </CharString>
        <CharString name="Agrave.ss01">
          106 218 749 -89 callsubr
          198 -888 rmoveto
          -106 callsubr
          endchar
        </CharString>
        <CharString name="Amacron">
          92 148 788 -63 callsubr
          219 -888 rmoveto
          -103 callgsubr
          endchar
        </CharString>
        <CharString name="Amacron.ss01">
          106 154 788 -63 callsubr
          186 -888 rmoveto
          -106 callsubr
          endchar
        </CharString>
        <CharString name="Aogonek">
          92 399 -92 rmoveto
          32 28 39 21 21 vhcurveto
          36 -21 callsubr
          688 rlineto
          -165 -21 callsubr
          -688 14 callgsubr
          -154 rlineto
          -32 -34 -23 -43 -38 10 callsubr
          -3 -6 0 -4 hhcurveto
          -33 -9 17 22 hvcurveto
          -220 350 rmoveto
          64 317 rlineto
          6 hlineto
          63 -317 rlineto
          endchar
        </CharString>
        <CharString name="Aogonek.ss01">
          106 420 hmoveto
          34 385 hlineto
          242 -13 69 -187 -187 -12 -69 -242 vhcurveto
          -385 114 211 171 -208 vlineto
          -32 -34 -24 -43 -39 vvcurveto
          -45 22 -38 74 13 16 1 2 17 vhcurveto
          63 vlineto
          -1 -4 -7 0 -3 hhcurveto
          -32 -9 17 22 32 27 39 22 21 hvcurveto
          -251 316 -31 callsubr
          vlineto
          145 4 20 81 81 5 -20 -145 vhcurveto
          -112 vlineto
          endchar
        </CharString>
        <CharString name="Aring">
          92 330 686 -61 callsubr
        </CharString>
        <CharString name="Aring.ss01">
          106 256 732 -90 callsubr
          84 -788 rmoveto
          -106 callsubr
          endchar
        </CharString>
        <CharString name="Aringacute">
          92 354 1080 -69 callgsubr
          53 -255 -61 callsubr
        </CharString>
        <CharString name="Aringacute.ss01">
          106 201 961 -100 callgsubr
          52 -242 -90 callsubr
          87 -780 rmoveto
          -106 callsubr
          endchar
        </CharString>
        <CharString name="Atilde">
          92 398 885 -107 callsubr
          -31 -885 rmoveto
          -103 callgsubr
          endchar
        </CharString>
        <CharString name="Atilde.ss01">
          106 406 885 -107 callsubr
          -66 -885 rmoveto
          -106 callsubr
          endchar
        </CharString>
        <CharString name="B">
          85 59 hmoveto
          224 hlineto
          129 39 72 111 100 -27 48 -74 18 hvcurveto
          4 vlineto
          65 16 30 50 96 vvcurveto
          114 -50 59 -111 vhcurveto
          -225 hlineto
          194 -288 rmoveto
          -80 185 80 hlineto
          63 14 -17 -76 -72 -20 -20 -57 hvcurveto
          4 -298 rmoveto
          -84 194 84 hlineto
          61 17 -19 -79 -78 -14 -18 -64 hvcurveto
          endchar
        </CharString>
        <CharString name="C">
          -7 366 8 -85 callgsubr
        </CharString>
        <CharString name="Cacute">
          -7 143 744 -100 callgsubr
          223 -741 -85 callgsubr
        </CharString>
        <CharString name="Cacute.loclPLK">
          -7 143 744 -72 callgsubr
          223 -741 -85 callgsubr
        </CharString>
        <CharString name="Ccaron">
          -7 142 754 -97 callsubr
          300 -873 -85 callgsubr
        </CharString>
        <CharString name="Ccedilla">
          -7 274 95 rmoveto
          -107 -8 21 228 228 8 21 107 23 34 -3 -5 33 6 callgsubr
          9 -23 -47 7 -42 hhcurveto
          -181 -26 -74 -278 -225 16 -91 102 -27 hvcurveto
          -61 -186 rlineto
          -5 98 vlineto
          35 182 rlineto
          17 hlineto
          39 48 7 9 27 6 callgsubr
          -5 -26 -37 -3 -29 hhcurveto
          endchar
        </CharString>
        <CharString name="Ccircumflex">
          -7 66 755 -106 callgsubr
          300 -754 -85 callgsubr
        </CharString>
        <CharString name="Cdotaccent">
          -7 149 -33 callsubr
          217 -867 -85 callgsubr
        </CharString>
        <CharString name="D">
          92 59 hmoveto
          -75 callsubr
          endchar
        </CharString>
        <CharString name="Dcaron">
          92 192 754 -97 callsubr
          -57 -881 rmoveto
          -75 callsubr
          endchar
        </CharString>
        <CharString name="Dcroat">
          -45 callgsubr
        </CharString>
        <CharString name="E">
          20 59 hmoveto
          -91 callgsubr
          endchar
        </CharString>
        <CharString name="Eacute">
          20 183 750 -100 callgsubr
          -124 -755 rmoveto
          -91 callgsubr
          endchar
        </CharString>
        <CharString name="Ebreve">
          20 347 -81 callgsubr
          -288 -888 rmoveto
          -91 callgsubr
          endchar
        </CharString>
        <CharString name="Ecaron">
          20 167 754 -97 callsubr
          -32 -881 rmoveto
          -91 callgsubr
          endchar
        </CharString>
        <CharString name="Ecircumflex">
          20 89 750 -106 callgsubr
          -30 -757 rmoveto
          -91 callgsubr
          endchar
        </CharString>
        <CharString name="Edieresis">
          20 86 -58 callsubr
          -202 -875 rmoveto
          -91 callgsubr
          endchar
        </CharString>
        <CharString name="Edotaccent">
          20 174 -33 callsubr
          -115 -875 rmoveto
          -91 callgsubr
          endchar
        </CharString>
        <CharString name="Egrave">
          20 191 750 -89 callsubr
          -56 -889 rmoveto
          -91 callgsubr
          endchar
        </CharString>
        <CharString name="Emacron">
          20 123 788 -63 callsubr
          -64 -888 rmoveto
          -91 callgsubr
          endchar
        </CharString>
        <CharString name="Eng">
          121 355 688 rmoveto
          -404 -4 vlineto
          -178 404 rlineto
          -114 -688 110 425 4 hlineto
          182 -415 rlineto
          -65 vlineto
          -38 -3 -14 -60 vhcurveto
          -86 vlineto
          136 37 14 163 hvcurveto
          704 vlineto
          endchar
        </CharString>
        <CharString name="Eogonek">
          20 336 3 callgsubr
          -29 -11 17 19 37 35 40 26 18 hvcurveto
          103 -214 193 185 103 -185 186 214 103 -328 -688 243 vlineto
          -33 -31 -30 -39 -47 vvcurveto
          -40 23 -39 74 vhcurveto
          endchar
        </CharString>
        <CharString name="Eth">
          -45 callgsubr
        </CharString>
        <CharString name="Euro">
          40 290 -8 rmoveto
          37 48 6 9 30 hvcurveto
          96 vlineto
          -5 -26 -37 -3 -29 hhcurveto
          -86 -21 14 127 -5 hvcurveto
          167 65 -168 88 168 65 -167 hlineto
          125 5 21 14 86 hhcurveto
          22 34 -3 -5 34 6 callgsubr
          9 -24 -46 7 -43 hhcurveto
          -153 -41 -56 -186 -9 hvcurveto
          -61 -65 58 -88 -58 -65 60 hlineto
          -192 9 39 -52 156 hhcurveto
          endchar
        </CharString>
        <CharString name="F">
          -8 59 hmoveto
          114 280 176 103 -176 202 198 103 -312 hlineto
          endchar
        </CharString>
        <CharString name="G">
          82 323 289 -94 callgsubr
          endchar
        </CharString>
        <CharString name="G.ss01">
          94 262 -8 -94 callsubr
          endchar
        </CharString>
        <CharString name="G_tilde.loclGUA">
          82 393 888 -107 callsubr
          -70 -599 -94 callgsubr
          endchar
        </CharString>
        <CharString name="Gbreve">
          82 367 -81 callgsubr
          -44 -599 -94 callgsubr
          endchar
        </CharString>
        <CharString name="Gbreve.ss01">
          94 -23 callsubr
          -110 -896 -94 callsubr
          endchar
        </CharString>
        <CharString name="Gcaron">
          82 187 754 -97 callsubr
          212 -592 -94 callgsubr
          endchar
        </CharString>
        <CharString name="Gcaron.ss01">
          94 192 754 -97 callsubr
          146 -889 -94 callsubr
          endchar
        </CharString>
        <CharString name="Gcircumflex">
          82 111 755 -106 callgsubr
          212 -473 -94 callgsubr
          endchar
        </CharString>
        <CharString name="Gcircumflex.ss01">
          94 116 755 -106 callgsubr
          146 -770 -94 callsubr
          endchar
        </CharString>
        <CharString name="Gcommaaccent">
          82 323 289 -94 callgsubr
          -67 -527 -87 callgsubr
        </CharString>
        <CharString name="Gcommaaccent.ss01">
          94 262 -8 -94 callsubr
          -75 -230 -87 callgsubr
        </CharString>
        <CharString name="Gdotaccent">
          82 194 -33 callsubr
          129 -586 -94 callgsubr
          endchar
        </CharString>
        <CharString name="Gdotaccent.ss01">
          94 199 -33 callsubr
          63 -883 -94 callsubr
          endchar
        </CharString>
        <CharString name="Gtilde.loclGUA.ss01">
          94 398 888 -107 callsubr
          -136 -896 -94 callsubr
          endchar
        </CharString>
        <CharString name="H">
          -20 callgsubr
          endchar
        </CharString>
        <CharString name="Hbar">
          118 349 688 rmoveto
          -115 -176 115 -114 -688 114 253 176 -253 114 688 vlineto
          -290 -327 -31 callsubr
          176 -112 vlineto
          endchar
        </CharString>
        <CharString name="Hcircumflex">
          118 129 755 -106 callgsubr
          220 -762 rmoveto
          -9 callgsubr
          endchar
        </CharString>
        <CharString name="I">
          -168 60 hmoveto
          115 688 -115 hlineto
          endchar
        </CharString>
        <CharString name="IJ">
          112 60 hmoveto
          115 688 -115 hlineto
          188 -591 -72 callsubr
        </CharString>
        <CharString name="Iacute">
          -168 63 750 -100 callgsubr
          -3 -755 -57 callgsubr
        </CharString>
        <CharString name="Iacute_J.loclNLD">
          112 63 744 -100 callgsubr
          285 -5 -100 callgsubr
          -288 -749 rmoveto
          115 688 -115 hlineto
          188 -591 -72 callsubr
        </CharString>
        <CharString name="Ibreve">
          -168 242 -81 callgsubr
          -182 -888 -57 callgsubr
        </CharString>
        <CharString name="Icircumflex">
          -168 -14 750 -106 callgsubr
          74 -757 -57 callgsubr
        </CharString>
        <CharString name="Idieresis">
          -168 -18 -58 callsubr
          -97 -875 -57 callgsubr
        </CharString>
        <CharString name="Idotaccent">
          -168 69 -33 callsubr
          -9 -875 -57 callgsubr
        </CharString>
        <CharString name="Igrave">
          -168 87 750 -89 callsubr
          49 -889 -57 callgsubr
        </CharString>
        <CharString name="Imacron">
          -168 18 788 -63 callsubr
          42 -888 -57 callgsubr
        </CharString>
        <CharString name="Iogonek">
          -168 129 -196 rmoveto
          14 15 1 2 18 hvcurveto
          -5 callsubr
          -5 hhcurveto
          -33 -8 17 22 33 31 41 23 18 hvcurveto
          688 -115 -688 30 vlineto
          -32 -33 -24 -42 -38 vvcurveto
          -45 22 -38 73 vhcurveto
          endchar
        </CharString>
        <CharString name="Itilde">
          -168 268 888 -107 callsubr
          -208 -888 -57 callgsubr
        </CharString>
        <CharString name="J">
          -123 13 97 -72 callsubr
        </CharString>
        <CharString name="Jcircumflex">
          -123 36 755 -106 callgsubr
          -23 -665 -72 callsubr
        </CharString>
        <CharString name="K">
          -33 callgsubr
          endchar
        </CharString>
        <CharString name="Kcommaaccent">
          -33 callgsubr
          -44 -535 -87 callgsubr
        </CharString>
        <CharString name="L">
          -25 59 hmoveto
          -43 callsubr
          endchar
        </CharString>
        <CharString name="Lacute">
          -25 61 744 -100 callgsubr
          -2 -749 rmoveto
          -43 callsubr
          endchar
        </CharString>
        <CharString name="Lcaron">
          -25 59 hmoveto
          -43 callsubr
          198 -255 -34 callgsubr
          endchar
        </CharString>
        <CharString name="Lcommaaccent">
          -25 59 hmoveto
          -43 callsubr
          81 -926 -87 callgsubr
        </CharString>
        <CharString name="Ldot">
          -20 59 hmoveto
          -43 callsubr
          202 -395 -89 callgsubr
        </CharString>
        <CharString name="Lslash">
          -25 173 106 rmoveto
          202 vlineto
          117 44 rlineto
          96 vlineto
          -117 -44 rlineto
          284 -114 -327 vlineto
          -45 -17 rlineto
          -95 vlineto
          45 17 rlineto
          -266 304 106 vlineto
          endchar
        </CharString>
        <CharString name="M">
          287 520 hmoveto
          111 688 -173 hlineto
          -109 -505 rlineto
          -6 hlineto
          -109 505 rlineto
          -175 -688 108 525 6 hlineto
          115 -525 rlineto
          111 hlineto
          116 525 rlineto
          5 hlineto
          endchar
        </CharString>
        <CharString name="N">
          121 359 hmoveto
          -81 callsubr
          endchar
        </CharString>
        <CharString name="Nacute">
          121 207 744 -100 callgsubr
          152 -749 rmoveto
          -81 callsubr
          endchar
        </CharString>
        <CharString name="Nacute.loclPLK">
          121 207 744 -72 callgsubr
          152 -749 rmoveto
          -81 callsubr
          endchar
        </CharString>
        <CharString name="Ncaron">
          121 206 754 -97 callsubr
          229 -881 rmoveto
          -81 callsubr
          endchar
        </CharString>
        <CharString name="Ncommaaccent">
          121 359 hmoveto
          -81 callsubr
          28 -663 -87 callgsubr
        </CharString>
        <CharString name="Ntilde">
          121 412 885 -107 callsubr
          -53 -885 rmoveto
          -81 callsubr
          endchar
        </CharString>
        <CharString name="O">
          106 254 -8 -104 callgsubr
          endchar
        </CharString>
        <CharString name="OE">
          318 254 hmoveto
          430 102 -190 hlineto
          -17 -25 -3 -3 -15 hvcurveto
          20 45 6 64 1 90 rrcurveto
          191 103 -191 hlineto
          -1 86 -7 63 -18 44 rrcurveto
          -4 13 22 -2 21 hhcurveto
          190 103 -430 hlineto
          -202 -8 -72 -272 -273 8 -71 202 hvcurveto
          102 vmoveto
          -89 -6 7 235 235 6 6 89 89 6 -7 -234 -235 -6 -7 -89 hvcurveto
          endchar
        </CharString>
        <CharString name="Oacute">
          106 202 750 -100 callgsubr
          52 -763 -104 callgsubr
          endchar
        </CharString>
        <CharString name="Oacute.loclPLK">
          106 200 744 -72 callgsubr
          54 -757 -104 callgsubr
          endchar
        </CharString>
        <CharString name="Obreve">
          106 379 -81 callgsubr
          -125 -896 -104 callgsubr
          endchar
        </CharString>
        <CharString name="Ocircumflex">
          106 122 750 -106 callgsubr
          132 -765 -104 callgsubr
          endchar
        </CharString>
        <CharString name="Odieresis">
          106 119 -58 callsubr
          -40 -883 -104 callgsubr
          endchar
        </CharString>
        <CharString name="Ograve">
          106 214 750 -89 callsubr
          116 -897 -104 callgsubr
          endchar
        </CharString>
        <CharString name="Ohorn">
          106 457 785 -88 callgsubr
        </CharString>
        <CharString name="Ohungarumlaut">
          106 147 754 -79 callsubr
          -36 -766 -104 callgsubr
          endchar
        </CharString>
        <CharString name="Omacron">
          106 155 788 -63 callsubr
          99 -896 -104 callgsubr
          endchar
        </CharString>
        <CharString name="Oslash">
          106 464 743 -58 callgsubr
        </CharString>
        <CharString name="Oslash.bold">
          106 464 743 rmoveto
          -97 hlineto
          -22 -55 rlineto
          6 -25 -30 7 callsubr
          -157 2 -92 38 -50 hvcurveto
          -40 -100 rlineto
          97 hlineto
          22 55 rlineto
          -6 25 29 -2 36 hhcurveto
          -71 callsubr
          156 -3 92 -38 50 hvcurveto
          -264 -298 rmoveto
          243 6 6 89 21 17 0 -4 13 vhcurveto
          -145 -359 rlineto
          -1 31 0 37 46 vvcurveto
          191 hmoveto
          -243 -7 -6 -89 -21 -16 0 4 -13 vhcurveto
          145 359 rlineto
          1 -31 0 -37 -46 vvcurveto
          endchar
        </CharString>
        <CharString name="Oslashacute">
          106 359 883 -69 callgsubr
          182 -1 -58 callgsubr
        </CharString>
        <CharString name="Otilde">
          106 405 885 -107 callsubr
          -151 -893 -104 callgsubr
          endchar
        </CharString>
        <CharString name="P">
          67 59 hmoveto
          114 231 100 hlineto
          152 19 96 133 142 -22 86 -147 hvcurveto
          -216 hlineto
          114 -354 rmoveto
          251 74 vlineto
          76 6 -24 -101 -102 -7 -24 -76 hvcurveto
          endchar
        </CharString>
        <CharString name="Q">
          106 372 -115 rmoveto
          122 4 hlineto
          -86 143 rlineto
          53 48 3 96 168 -15 callsubr
          -56 100 -51 callsubr
        </CharString>
        <CharString name="Q.bold">
          106 408 32 rmoveto
          51 48 5 94 170 -15 callsubr
          62 -110 rlineto
          122 4 hlineto
          -240 206 rmoveto
          -89 -6 6 243 243 6 6 89 89 7 -6 -243 -103 -1 -60 -8 -36 hvcurveto
          -44 73 rlineto
          -112 hlineto
          endchar
        </CharString>
        <CharString name="R">
          87 465 hmoveto
          -80 callgsubr
        </CharString>
        <CharString name="R.ss01">
          -54 callsubr
          endchar
        </CharString>
        <CharString name="Racute">
          87 353 883 -69 callgsubr
          189 -744 rmoveto
          -80 callgsubr
        </CharString>
        <CharString name="Racute.ss01">
          93 356 883 -69 callgsubr
          166 -577 -93 callsubr
          endchar
        </CharString>
        <CharString name="Rcaron">
          87 301 754 -35 callsubr
          276 -754 rmoveto
          -80 callgsubr
        </CharString>
        <CharString name="Rcaron.ss01">
          93 304 754 -35 callsubr
          253 -587 -93 callsubr
          endchar
        </CharString>
        <CharString name="Rcommaaccent">
          -46 callsubr
          -62 -525 -11 callgsubr
        </CharString>
        <CharString name="Rcommaaccent.ss01">
          -54 callsubr
          -61 -527 -11 callgsubr
        </CharString>
        <CharString name="S">
          -67 callsubr
          endchar
        </CharString>
        <CharString name="Sacute">
          39 166 744 -100 callgsubr
          55 -757 -99 callsubr
          endchar
        </CharString>
        <CharString name="Sacute.loclPLK">
          39 166 744 -72 callgsubr
          55 -757 -99 callsubr
          endchar
        </CharString>
        <CharString name="Scaron">
          39 170 749 -97 callsubr
          127 -884 -99 callsubr
          endchar
        </CharString>
        <CharString name="Scedilla">
          39 408 207 rmoveto
          49 -5 35 -8 25 vhcurveto
          -19 58 -37 15 -45 7 -93 16 rcurveline
          -47 8 -7 9 68 vvcurveto
          40 2 24 17 14 vhcurveto
          14 15 28 4 52 hhcurveto
          41 50 -4 -6 31 6 callgsubr
          9 -32 -64 9 -59 hhcurveto
          -120 -75 -37 -166 -104 17 -67 70 -12 hvcurveto
          99 -17 rlineto
          67 -12 8 -10 -79 vvcurveto
          -36 -2 -24 -14 -15 vhcurveto
          -15 -13 -27 -7 -49 hhcurveto
          -36 -60 4 5 -47 hvcurveto
          -97 vlineto
          38 -7 52 -5 47 -2 -58 -178 rcurveline
          -5 98 vlineto
          35 183 rlineto
          97 8 53 43 163 vvcurveto
          endchar
        </CharString>
        <CharString name="Scircumflex">
          39 89 755 -106 callgsubr
          132 -770 -99 callsubr
          endchar
        </CharString>
        <CharString name="Scommaaccent">
          -68 callsubr
          -230 -87 callgsubr
        </CharString>
        <CharString name="T">
          11 150 hmoveto
          -31 callgsubr
          endchar
        </CharString>
        <CharString name="Tbar">
          11 401 582 rmoveto
          106 -389 -106 138 -192 -120 -93 120 -297 114 297 119 93 -119 192 vlineto
          endchar
        </CharString>
        <CharString name="Tcaron">
          11 151 754 -97 callsubr
          75 -881 rmoveto
          -31 callgsubr
          endchar
        </CharString>
        <CharString name="Thorn">
          67 59 hmoveto
          114 122 101 hlineto
          152 18 97 132 142 -21 86 -148 hvcurveto
          -102 109 -114 hlineto
          114 -463 rmoveto
          251 74 vlineto
          76 6 -23 -102 -101 -7 -25 -76 hvcurveto
          endchar
        </CharString>
        <CharString name="U">
          106 340 688 -100 callsubr
        </CharString>
        <CharString name="Uacute">
          106 208 750 -100 callgsubr
          132 -67 -100 callsubr
        </CharString>
        <CharString name="Ubreve">
          -26 callsubr
          -200 -100 callsubr
        </CharString>
        <CharString name="Ucircumflex">
          106 123 750 -106 callgsubr
          217 -69 -100 callsubr
        </CharString>
        <CharString name="Udieresis">
          106 118 780 -69 callsubr
        </CharString>
        <CharString name="Ugrave">
          106 218 750 -89 callsubr
          198 -201 -100 callsubr
        </CharString>
        <CharString name="Uhorn">
          106 468 785 rmoveto
          -61 vlineto
          -28 -11 -8 -59 vhcurveto
          -58 -428 hlineto
          -101 callgsubr
          337 vlineto
          75 8 10 28 71 vvcurveto
          38 vlineto
          endchar
        </CharString>
        <CharString name="Uhungarumlaut">
          106 146 754 -79 callsubr
          51 -70 -100 callsubr
        </CharString>
        <CharString name="Umacron">
          106 154 788 -63 callsubr
          186 -200 -100 callsubr
        </CharString>
        <CharString name="Uogonek">
          106 340 688 rmoveto
          -428 vlineto
          -146 -4 -19 -82 -81 -4 19 146 vhcurveto
          428 -114 -385 vlineto
          -243 12 -68 187 9 8 0 1 9 vhcurveto
          -30 -34 -20 -37 -35 10 callsubr
          -2 -7 0 -4 hhcurveto
          -33 -9 17 22 43 29 36 48 35 hvcurveto
          55 40 5 83 158 vvcurveto
          -4 callsubr
          endchar
        </CharString>
        <CharString name="Uring">
          106 253 724 -90 callsubr
          87 -92 -100 callsubr
        </CharString>
        <CharString name="Utilde">
          106 404 888 -107 callsubr
          -64 -200 -100 callsubr
        </CharString>
        <CharString name="V">
          73 155 hmoveto
          165 hlineto
          144 688 rlineto
          -114 hlineto
          -107 -562 rlineto
          -7 hlineto
          -108 562 rlineto
          -117 hlineto
          endchar
        </CharString>
        <CharString name="W">
          334 453 hmoveto
          -82 callsubr
        </CharString>
        <CharString name="Wacute">
          334 314 744 -100 callgsubr
          139 -749 rmoveto
          -82 callsubr
        </CharString>
        <CharString name="Wcircumflex">
          334 237 755 -106 callgsubr
          216 -762 rmoveto
          -82 callsubr
        </CharString>
        <CharString name="Wdieresis">
          334 233 -58 callsubr
          45 -875 rmoveto
          -82 callsubr
        </CharString>
        <CharString name="Wgrave">
          334 332 744 -89 callsubr
          197 -883 rmoveto
          -82 callsubr
        </CharString>
        <CharString name="X">
          91 355 hmoveto
          125 -21 callsubr
          349 151 339 rlineto
          -120 hlineto
          -105 -251 rlineto
          -7 hlineto
          -104 251 rlineto
          -125 hlineto
          154 -342 -156 -346 rlineto
          122 hlineto
          105 259 rlineto
          7 hlineto
          endchar
        </CharString>
        <CharString name="Y">
          49 169 hmoveto
          -84 callsubr
          endchar
        </CharString>
        <CharString name="Y.loclGUA">
          53 314 688 -92 callsubr
        </CharString>
        <CharString name="Yacute">
          49 182 750 -100 callgsubr
          -13 -755 rmoveto
          -84 callsubr
          endchar
        </CharString>
        <CharString name="Yacute.loclGUA">
          53 336 883 -69 callgsubr
          55 -56 -92 callsubr
        </CharString>
        <CharString name="Ycircumflex">
          49 94 755 -106 callgsubr
          75 -762 rmoveto
          -84 callsubr
          endchar
        </CharString>
        <CharString name="Ycircumflex.loclGUA">
          53 227 834 -70 callsubr
          143 -67 -92 callsubr
        </CharString>
        <CharString name="Ydieresis">
          49 94 -58 callsubr
          -100 -875 rmoveto
          -84 callsubr
          endchar
        </CharString>
        <CharString name="Ydieresis.loclGUA">
          53 189 875 -10 callgsubr
          -49 -92 -92 callsubr
        </CharString>
        <CharString name="Ygrave">
          49 189 744 -89 callsubr
          56 -883 rmoveto
          -84 callsubr
          endchar
        </CharString>
        <CharString name="Ygrave.loclGUA">
          53 278 744 -64 callgsubr
          123 -56 -92 callsubr
        </CharString>
        <CharString name="Z">
          29 30 hmoveto
          -74 callgsubr
          endchar
        </CharString>
        <CharString name="Zacute">
          29 161 744 -100 callgsubr
          -131 -749 rmoveto
          -74 callgsubr
          endchar
        </CharString>
        <CharString name="Zacute.loclPLK">
          29 161 744 -72 callgsubr
          -131 -749 rmoveto
          -74 callgsubr
          endchar
        </CharString>
        <CharString name="Zcaron">
          29 170 749 -97 callsubr
          -64 -876 rmoveto
          -74 callgsubr
          endchar
        </CharString>
        <CharString name="Zdotaccent">
          29 167 -33 callsubr
          -137 -875 rmoveto
          -74 callgsubr
          endchar
        </CharString>
        <CharString name="a">
          19 147 -8 -107 callgsubr
          endchar
        </CharString>
        <CharString name="aacute">
          19 160 599 -100 callgsubr
          -13 -612 -107 callgsubr
          endchar
        </CharString>
        <CharString name="abreve">
          19 336 -76 callsubr
          -189 -751 -107 callgsubr
          endchar
        </CharString>
        <CharString name="acircumflex">
          19 79 -86 callgsubr
          68 -625 -107 callgsubr
          endchar
        </CharString>
        <CharString name="acute">
          -228 6 599 -100 callgsubr
          endchar
        </CharString>
        <CharString name="acute.case.loclPLK">
          -228 6 744 -72 callgsubr
          endchar
        </CharString>
        <CharString name="acute.loclPLK">
          -228 6 -49 callsubr
          endchar
        </CharString>
        <CharString name="acutecomb">
          -169 599 -100 callgsubr
          endchar
        </CharString>
        <CharString name="acutecomb.case">
          -169 744 -100 callgsubr
          endchar
        </CharString>
        <CharString name="adieresis">
          19 76 627 -85 callsubr
          -104 -730 -107 callgsubr
          endchar
        </CharString>
        <CharString name="ae">
          245 608 254 -73 callgsubr
        </CharString>
        <CharString name="aeacute">
          245 436 738 -69 callgsubr
          249 -345 -73 callgsubr
        </CharString>
        <CharString name="agrave">
          19 178 599 -89 callsubr
          45 -746 -107 callgsubr
          endchar
        </CharString>
        <CharString name="amacron">
          19 112 643 -63 callsubr
          35 -751 -107 callgsubr
          endchar
        </CharString>
        <CharString name="ampersand">
          139 335 395 rmoveto
          -306 vlineto
          -2 -19 -20 -1 -16 hhcurveto
          -91 -34 10 96 83 12 24 74 hvcurveto
          37 96 -37 hlineto
          -70 -11 29 73 85 17 18 125 40 58 -4 -6 41 hvcurveto
          87 vlineto
          11 -51 -71 8 -50 hhcurveto
          -162 -57 -56 -124 -101 31 -45 61 -17 hvcurveto
          -4 vlineto
          -63 -19 -34 -35 -113 vvcurveto
          -130 45 -60 175 52 73 7 10 52 vhcurveto
          290 81 96 vlineto
          endchar
        </CharString>
        <CharString name="aogonek">
          19 360 -131 rmoveto
          -32 -10 17 20 36 31 40 22 18 hvcurveto
          316 vlineto
          150 -28 52 -144 -47 -55 -6 -10 -44 vhcurveto
          -85 vlineto
          3 35 56 5 24 hhcurveto
          79 16 -7 -96 hvcurveto
          -25 vlineto
          2 -34 -50 2 -22 hhcurveto
          -97 -31 -41 -116 -105 33 -47 85 40 54 11 60 20 hvcurveto
          6 hlineto
          4 -63 rlineto
          17 hlineto
          -32 -31 -25 -41 -44 vvcurveto
          -41 22 -39 75 12 16 1 2 17 vhcurveto
          63 vlineto
          -1 -3 -6 0 -4 hhcurveto
          -97 325 rmoveto
          -46 -5 -26 -9 -12 vhcurveto
          -17 -14 -18 -3 -23 hhcurveto
          -49 -9 12 52 58 11 9 41 hvcurveto
          75 hlineto
          endchar
        </CharString>
        <CharString name="approxequal">
          50 55 271 rmoveto
          65 hlineto
          32 1 11 24 19 23 -7 -6 12 callsubr
          -64 hlineto
          -33 -1 -10 -25 -18 -24 6 7 17 callgsubr
          -80 hvcurveto
          -171 vmoveto
          65 hlineto
          33 1 11 24 19 23 -6 -7 26 vhcurveto
          -10 33 37 -10 35 hhcurveto
          76 3 44 80 hvcurveto
          -64 hlineto
          -32 -1 -11 -25 -18 -24 7 6 17 callgsubr
          -81 hvcurveto
          endchar
        </CharString>
        <CharString name="aring">
          19 209 585 -90 callsubr
          -62 -649 -107 callgsubr
          endchar
        </CharString>
        <CharString name="aringacute">
          19 163 849 -100 callgsubr
          48 -245 -90 callsubr
          -64 -673 -107 callgsubr
          endchar
        </CharString>
        <CharString name="arrowboth">
          480 339 163 rmoveto
          -32 95 rlineto
          269 hlineto
          -32 -95 18 callgsubr
          -269 hlineto
          32 96 -284 -142 rlineto
          endchar
        </CharString>
        <CharString name="arrowdown">
          -8 198 -85 rmoveto
          141 284 -95 -32 rlineto
          521 -92 -521 vlineto
          -96 32 rlineto
          endchar
        </CharString>
        <CharString name="arrowdown.ss01">
          -58 173 171 rmoveto
          142 285 rlineto
          -285 hlineto
          endchar
        </CharString>
        <CharString name="arrowleft">
          480 306 258 rmoveto
          522 92 -522 hlineto
          33 96 -284 -142 284 -141 rlineto
          endchar
        </CharString>
        <CharString name="arrowleft.ss01">
          -40 315 201 rmoveto
          285 vlineto
          -285 -143 rlineto
          endchar
        </CharString>
        <CharString name="arrowright">
          480 544 163 rmoveto
          18 callgsubr
          -521 -92 521 hlineto
          endchar
        </CharString>
        <CharString name="arrowright.ss01">
          -40 48 201 rmoveto
          285 142 -285 143 rlineto
          endchar
        </CharString>
        <CharString name="arrowup">
          -8 152 -82 rmoveto
          92 521 hlineto
          95 -32 -141 284 -142 -284 96 32 rlineto
          endchar
        </CharString>
        <CharString name="arrowup.ss01">
          -58 30 231 rmoveto
          285 hlineto
          -142 285 rlineto
          endchar
        </CharString>
        <CharString name="arrowupdn">
          -30 callgsubr
          endchar
        </CharString>
        <CharString name="arrowupdnbse">
          -30 callgsubr
          -1 -401 rmoveto
          285 83 -285 hlineto
          endchar
        </CharString>
        <CharString name="asciicircum">
          -7 278 476 rmoveto
          94 hlineto
          -126 274 rlineto
          -96 hlineto
          -127 -274 rlineto
          94 hlineto
          81 190 rlineto
          endchar
        </CharString>
        <CharString name="asciitilde">
          50 397 370 rmoveto
          -64 hlineto
          -32 -1 -11 -25 -18 -24 7 7 -26 vhcurveto
          9 -32 -37 9 -35 hhcurveto
          -77 -3 -43 -80 hvcurveto
          65 hlineto
          32 1 12 24 19 23 -7 -7 12 callsubr
          endchar
        </CharString>
        <CharString name="asterisk">
          3 227 482 rmoveto
          100 -69 34 60 -110 51 110 52 -34 60 -100 -70 10 122 rlineto
          -68 hlineto
          10 -122 -100 70 -34 -60 109 -52 -109 -51 34 -60 100 69 -10 -121 rlineto
          68 hlineto
          endchar
        </CharString>
        <CharString name="asterisk.ss02">
          414 178 -14 rmoveto
          231 170 231 -170 -90 276 232 174 rlineto
          -288 hlineto
          -85 269 -87 -269 rlineto
          -287 hlineto
          234 -174 rlineto
          endchar
        </CharString>
        <CharString name="at">
          293 349 -108 rmoveto
          64 44 0 2 36 hvcurveto
          54 vlineto
          -2 -21 -78 -1 -45 hhcurveto
          -31 -27 0 1 -23 hvcurveto
          -154 8 -2 46 294 vvcurveto
          264 2 65 112 16 vhcurveto
          4 31 41 0 50 hhcurveto
          53 41 0 -4 32 hvcurveto
          110 -17 2 -66 -262 vvcurveto
          -166 -9 -1 -37 vhcurveto
          -47 218 hlineto
          127 -22 46 -123 -39 -45 -5 -9 -39 vhcurveto
          -74 vlineto
          2 14 56 4 25 hhcurveto
          68 11 -5 -81 hvcurveto
          -23 vlineto
          2 -31 -41 2 -18 hhcurveto
          -80 -25 -34 -99 -91 27 -39 72 37 39 11 47 16 hvcurveto
          5 hlineto
          5 -51 rlineto
          128 hlineto
          79 30 3 216 355 -7 47 -286 -285 -7 -48 -354 -354 7 -48 285 hvcurveto
          -8 259 rmoveto
          -40 -7 12 43 51 7 8 34 hvcurveto
          64 -28 hlineto
          -68 -10 -18 -48 vhcurveto
          endchar
        </CharString>
        <CharString name="atilde">
          19 361 743 -107 callsubr
          -214 -751 -107 callgsubr
          endchar
        </CharString>
        <CharString name="b">
          42 273 -8 rmoveto
          100 32 55 207 200 -28 64 -102 -52 -39 -18 -45 -17 hvcurveto
          -6 288 -108 -743 99 hlineto
          4 63 rlineto
          7 hlineto
          -60 18 49 -11 43 hhcurveto
          -46 100 rmoveto
          -34 -17 10 32 -8 hvcurveto
          -6 25 -1 39 57 vvcurveto
          64 2 40 7 24 vhcurveto
          27 10 16 8 31 hhcurveto
          63 7 -11 -152 -153 -7 -10 -63 hvcurveto
          endchar
        </CharString>
        <CharString name="backslash">
          -89 202 -55 rmoveto
          97 hlineto
          -188 798 rlineto
          -97 hlineto
          endchar
        </CharString>
        <CharString name="bar">
          -172 66 -161 rmoveto
          100 904 -100 hlineto
          endchar
        </CharString>
        <CharString name="bar.ss02">
          95 -1 hmoveto
          500 696 -500 hlineto
          endchar
        </CharString>
        <CharString name="braceleft">
          -107 201 -150 rmoveto
          74 hlineto
          -62 79 -12 44 60 vvcurveto
          113 vlineto
          77 -26 54 -66 16 vhcurveto
          7 vlineto
          66 16 26 53 76 vvcurveto
          114 vlineto
          59 12 47 62 78 vhcurveto
          -74 hlineto
          -60 -34 -44 -75 -70 vvcurveto
          -122 vlineto
          -56 -12 -59 -64 -5 vhcurveto
          -54 vlineto
          64 -5 12 -58 -56 vvcurveto
          -121 vlineto
          -70 43 -74 61 -34 vhcurveto
          endchar
        </CharString>
        <CharString name="braceright">
          -107 20 -150 rmoveto
          73 hlineto
          61 34 43 74 70 vvcurveto
          121 vlineto
          56 11 58 65 5 vhcurveto
          54 vlineto
          -65 5 -11 59 56 vvcurveto
          122 vlineto
          70 -44 75 -60 34 vhcurveto
          -73 hlineto
          62 -84 11 -41 -59 vvcurveto
          -114 vlineto
          -76 26 -53 66 -16 vhcurveto
          -7 vlineto
          -66 -16 -26 -54 -77 vvcurveto
          -113 vlineto
          -60 -13 -46 -60 -77 vhcurveto
          endchar
        </CharString>
        <CharString name="bracketleft">
          -120 59 -150 rmoveto
          193 74 hlineto
          -89 4 rlineto
          737 vlineto
          89 4 rlineto
          74 -193 vlineto
          endchar
        </CharString>
        <CharString name="bracketleft.ss02">
          -6 397 hmoveto
          696 vlineto
          -207 -145 -143 -205 hvcurveto
          -348 vlineto
          endchar
        </CharString>
        <CharString name="bracketright">
          -121 32 -150 rmoveto
          193 893 -193 -74 hlineto
          88 -4 rlineto
          -737 vlineto
          -88 -4 rlineto
          endchar
        </CharString>
        <CharString name="bracketright.ss02">
          -6 0 vmoveto
          352 348 hlineto
          13 callsubr
          vhcurveto
          endchar
        </CharString>
        <CharString name="breve">
          -142 255 -76 callsubr
          endchar
        </CharString>
        <CharString name="brokenbar">
          -172 66 390 rmoveto
          100 353 -100 hlineto
          -904 vmoveto
          100 353 -100 hlineto
          endchar
        </CharString>
        <CharString name="bullet">
          -111 243 342 rmoveto
          86 -4 13 -95 -92 -4 -13 -86 -83 4 -14 92 95 4 14 83 vhcurveto
          endchar
        </CharString>
        <CharString name="bullet.ss02">
          380 392 421 rmoveto
          62 50 39 73 90 -76 73 -36 -37 -76 -73 -90 -73 50 -39 63 hvcurveto
          60 vmoveto
          -30 -23 18 34 57 36 46 17 17 35 -46 -57 -34 -23 -18 -29 hvcurveto
          -189 -250 rmoveto
          73 39 50 63 62 -39 50 -73 -90 -73 -76 -36 -37 73 -76 90 hvcurveto
          378 hmoveto
          89 73 76 37 36 -73 76 -89 -74 -39 -50 -62 -63 39 -50 74 hvcurveto
          -378 60 rmoveto
          -57 -46 36 17 17 46 35 57 34 18 -23 -29 -30 -18 -23 -34 hvcurveto
          378 hmoveto
          -35 -18 23 30 29 18 23 35 56 46 -35 -17 -17 -46 -36 -56 hvcurveto
          -189 -299 rmoveto
          36 76 73 90 73 -50 39 -62 -63 -50 -39 -73 -90 76 -73 37 hvcurveto
          60 vmoveto
          -17 -36 46 57 34 23 18 30 29 23 -18 -34 -57 -35 -46 -17 hvcurveto
          endchar
        </CharString>
        <CharString name="c">
          -61 313 7 -86 callsubr
        </CharString>
        <CharString name="cacute">
          -61 121 599 -100 callgsubr
          192 -597 -86 callsubr
        </CharString>
        <CharString name="cacute.loclPLK">
          -61 121 -49 callsubr
          192 -597 -86 callsubr
        </CharString>
        <CharString name="caron">
          -128 81 609 -97 callsubr
          endchar
        </CharString>
        <CharString name="caron.loclCSY">
          -205 30 433 -34 callgsubr
          endchar
        </CharString>
        <CharString name="ccaron">
          -61 116 609 -97 callsubr
          273 -729 -86 callsubr
        </CharString>
        <CharString name="ccedilla">
          -61 313 93 rmoveto
          -5 -26 -32 -3 -23 hhcurveto
          -74 -11 18 152 150 10 20 75 21 31 -3 -5 26 hvcurveto
          86 vlineto
          9 -23 -44 6 -40 hhcurveto
          -139 -25 -75 -188 -149 11 -82 86 -24 hvcurveto
          18 callsubr
          35 182 36 1 39 5 29 9 rlinecurve
          endchar
        </CharString>
        <CharString name="ccircumflex">
          -61 40 -86 callgsubr
          273 -610 -86 callsubr
        </CharString>
        <CharString name="cdotaccent">
          -61 123 -29 callsubr
          190 -723 -86 callsubr
        </CharString>
        <CharString name="cedilla">
          -248 10 1 callsubr
        </CharString>
        <CharString name="cent">
          -44 168 -8 rmoveto
          82 78 hlineto
          22 2 28 5 22 7 rrcurveto
          89 vlineto
          -5 -29 -31 -3 -21 hhcurveto
          -74 -14 19 159 157 12 21 75 21 29 -3 -4 30 hvcurveto
          89 vlineto
          -19 6 -28 6 -23 2 rrcurveto
          79 -82 -81 vlineto
          -105 -17 -21 -82 -174 vvcurveto
          -164 14 -89 112 -18 vhcurveto
          endchar
        </CharString>
        <CharString name="cent.bold">
          -44 322 173 rmoveto
          -25 -4 -26 -3 -21 -1 rrcurveto
          356 vlineto
          19 -1 26 -3 25 -3 rrcurveto
          89 vlineto
          -14 4 -25 6 -31 3 rrcurveto
          80 -82 -81 vlineto
          -90 -13 -36 -67 -193 vvcurveto
          -194 30 -64 96 -13 vhcurveto
          -79 82 78 vlineto
          23 3 26 5 23 6 rrcurveto
          -169 259 rmoveto
          78 3 44 12 25 vhcurveto
          -293 vlineto
          -12 25 -3 44 77 vvcurveto
          endchar
        </CharString>
        <CharString name="circumflex">
          -128 6 -86 callgsubr
          endchar
        </CharString>
        <CharString name="colon">
          12 callgsubr
          -510 vmoveto
          -41 callgsubr
          endchar
        </CharString>
        <CharString name="comma">
          -179 43 -88 -13 callgsubr
        </CharString>
        <CharString name="copyright">
          174 288 -8 rmoveto
          220 8 44 308 307 -8 45 -220 -221 -7 -45 -307 -308 7 -44 221 hvcurveto
          45 vmoveto
          -177 -5 11 296 295 5 11 177 177 4 -11 -295 -296 -4 -11 -177 hvcurveto
          17 117 rmoveto
          23 26 4 5 14 hvcurveto
          55 vlineto
          -3 -13 -20 -2 -17 hhcurveto
          -54 -3 11 119 120 3 10 54 16 20 -2 -2 13 hvcurveto
          54 vlineto
          5 -13 -25 4 -24 hhcurveto
          -97 -13 -42 -147 -147 12 -42 98 hvcurveto
          endchar
        </CharString>
        <CharString name="currency">
          123 106 4 rmoveto
          76 76 rlineto
          -5 21 26 -2 31 hhcurveto
          34 27 2 6 22 hvcurveto
          78 -77 66 65 -70 71 rlineto
          19 42 2 64 98 vvcurveto
          98 -2 65 -19 41 vhcurveto
          70 69 -66 67 -77 -77 rlineto
          6 -23 -27 2 -34 hhcurveto
          -31 -26 -2 -5 -21 hvcurveto
          -76 76 -67 -67 66 -66 rlineto
          -20 -41 -3 -65 -101 vvcurveto
          -101 3 -66 20 -41 vhcurveto
          -66 -67 rlineto
          221 98 rmoveto
          -68 -2 16 161 162 2 15 68 68 2 -15 -162 -161 -25 callsubr
          hvcurveto
          endchar
        </CharString>
        <CharString name="d">
          42 -77 callgsubr
          45 100 -73 callsubr
          endchar
        </CharString>
        <CharString name="dagger">
          -32 146 hmoveto
          76 hlineto
          9 431 -13 callsubr
          endchar
        </CharString>
        <CharString name="daggerdbl">
          -33 146 hmoveto
          76 hlineto
          9 163 98 9 rlineto
          75 vlineto
          -98 10 rlineto
          174 vlineto
          -13 callsubr
          -174 vlineto
          -96 -10 rlineto
          -75 vlineto
          96 -9 rlineto
          endchar
        </CharString>
        <CharString name="dcaron">
          78 -77 callgsubr
          250 441 -34 callgsubr
          -222 -535 -73 callsubr
          endchar
        </CharString>
        <CharString name="dcroat">
          42 437 688 rmoveto
          -45 55 -108 -55 -96 -93 96 -140 -6 hlineto
          45 -18 -38 18 -52 hhcurveto
          -103 -28 -64 -201 -206 32 -55 101 42 49 11 60 18 hvcurveto
          7 5 callsubr
          595 45 hlineto
          -162 -465 rmoveto
          -29 -9 -17 -9 -32 hhcurveto
          -62 -8 10 153 152 8 11 62 38 17 -13 -43 7 hvcurveto
          4 -24 1 -35 -48 vvcurveto
          -61 -2 -39 -7 -25 vhcurveto
          endchar
        </CharString>
        <CharString name="degree">
          -86 158 -20 callsubr
          59 vmoveto
          4 callgsubr
          endchar
        </CharString>
        <CharString name="dialog">
          402 306 -212 rmoveto
          213 212 rlineto
          227 688 -687 -688 247 60 -187 568 567 -568 -192 hlineto
          -188 -187 rlineto
          endchar
        </CharString>
        <CharString name="dieresis">
          -111 11 635 -85 callsubr
          endchar
        </CharString>
        <CharString name="divide">
          72 190 376 rmoveto
          95 85 -95 hlineto
          -132 -255 rmoveto
          359 93 -359 hlineto
          132 -255 rmoveto
          95 86 -95 hlineto
          endchar
        </CharString>
        <CharString name="dollar">
          6 167 -8 rmoveto
          82 80 hlineto
          75 10 42 42 113 vvcurveto
          125 -42 22 -68 9 vhcurveto
          -64 8 rlineto
          -32 4 -6 6 51 vvcurveto
          50 18 10 53 33 46 -3 -6 37 vhcurveto
          90 vlineto
          -21 7 -39 7 -32 2 rrcurveto
          77 -82 -79 vlineto
          -78 -10 -46 -41 -106 vvcurveto
          -106 20 -36 95 -15 vhcurveto
          58 -9 rlineto
          32 -5 7 -3 -57 vvcurveto
          -48 -11 -14 -63 -43 -25 2 7 -59 vhcurveto
          -91 vlineto
          28 -7 46 -6 39 -2 rrcurveto
          endchar
        </CharString>
        <CharString name="dollar.bold">
          6 366 237 rmoveto
          125 -42 22 -68 9 vhcurveto
          -7 1 rlineto
          128 vlineto
          29 -2 34 -2 29 -5 rrcurveto
          90 vlineto
          -21 8 -36 6 -35 2 rrcurveto
          77 -82 -79 vlineto
          -86 -12 -38 -46 -99 vvcurveto
          -106 20 -36 95 -15 vhcurveto
          9 -1 rlineto
          -135 vlineto
          -32 1 -29 2 -52 6 rrcurveto
          -91 vlineto
          32 -8 41 -5 40 -2 rrcurveto
          -78 82 80 vlineto
          84 12 33 50 103 vvcurveto
          -212 225 rmoveto
          23 4 15 9 9 vhcurveto
          -101 vlineto
          -10 7 -3 14 33 vvcurveto
          95 -272 rmoveto
          88 vlineto
          5 -8 1 -15 -26 vvcurveto
          -17 -1 -13 -5 -9 vhcurveto
          endchar
        </CharString>
        <CharString name="dotaccent">
          -287 10 -29 callsubr
          endchar
        </CharString>
        <CharString name="dotbelowcomb">
          -172 -181 -89 callgsubr
        </CharString>
        <CharString name="dotlessi">
          -189 53 hmoveto
          -59 callgsubr
          endchar
        </CharString>
        <CharString name="e">
          22 384 255 -105 callgsubr
          endchar
        </CharString>
        <CharString name="eacute">
          22 332 738 -69 callgsubr
          129 -344 -105 callgsubr
          endchar
        </CharString>
        <CharString name="ebreve">
          22 210 606 rmoveto
          -71 callgsubr
          hvcurveto
          -70 hlineto
          -45 -1 -26 -55 -54 0 26 45 vhcurveto
          -69 hlineto
          -80 11 -57 112 vhcurveto
          174 -351 -105 callgsubr
          endchar
        </CharString>
        <CharString name="ecaron">
          22 268 609 -35 callsubr
          228 -354 -105 callgsubr
          endchar
        </CharString>
        <CharString name="ecircumflex">
          22 217 689 -70 callsubr
          223 -355 -105 callgsubr
          endchar
        </CharString>
        <CharString name="edieresis">
          22 179 722 -10 callgsubr
          31 -372 -105 callgsubr
          endchar
        </CharString>
        <CharString name="edotaccent">
          22 259 730 rmoveto
          -96 -95 96 hlineto
          125 -380 -105 callgsubr
          endchar
        </CharString>
        <CharString name="egrave">
          22 268 599 -64 callgsubr
          203 -344 -105 callgsubr
          endchar
        </CharString>
        <CharString name="eight">
          86 244 -1 callgsubr
          29 47 101 vvcurveto
          132 -55 0 callsubr
          -31 -32 -117 vvcurveto
          -133 44 -57 157 vhcurveto
          405 vmoveto
          -68 -15 14 85 86 14 -10 callsubr
          19 -11 -92 -91 -21 -11 -67 hvcurveto
          endchar
        </CharString>
        <CharString name="eight.dnom">
          -101 151 -4 -95 callgsubr
        </CharString>
        <CharString name="eight.numr">
          -101 151 304 -95 callgsubr
        </CharString>
        <CharString name="eight.tnum">
          75 239 -1 callgsubr
          28 47 101 vvcurveto
          132 -54 0 callsubr
          -32 -32 -117 vvcurveto
          -133 44 -57 158 vhcurveto
          405 vmoveto
          -68 -16 14 85 86 15 -10 callsubr
          18 -11 -92 -91 -20 -11 -67 hvcurveto
          endchar
        </CharString>
        <CharString name="ellipsis">
          271 52 hmoveto
          -41 callgsubr
          224 -118 -42 callgsubr
          225 -118 -16 callsubr
          endchar
        </CharString>
        <CharString name="emacron">
          22 311 743 19 callgsubr
          73 -388 -105 callgsubr
          endchar
        </CharString>
        <CharString name="emdash">
          415 47 257 rmoveto
          724 94 -724 hlineto
          endchar
        </CharString>
        <CharString name="endash">
          37 47 257 rmoveto
          347 94 -347 hlineto
          endchar
        </CharString>
        <CharString name="eng">
          46 279 518 rmoveto
          -28 callsubr
          hvcurveto
          -40 callsubr
          -510 108 266 hlineto
          116 3 35 64 56 6 -8 -128 vhcurveto
          -336 vlineto
          -38 -4 -14 -59 vhcurveto
          -86 vlineto
          135 36 14 166 hvcurveto
          344 vlineto
          -27 callgsubr
          vhcurveto
          endchar
        </CharString>
        <CharString name="eogonek">
          22 384 255 rmoveto
          189 -3 74 -163 -167 -12 -80 -184 -188 14 -74 172 15 16 1 1 16 vhcurveto
          -35 -31 -26 -38 -42 vvcurveto
          -40 23 -39 74 13 15 1 2 17 vhcurveto
          -5 callsubr
          -6 hhcurveto
          -30 -10 18 19 38 42 42 32 22 hvcurveto
          -98 callgsubr
          endchar
        </CharString>
        <CharString name="equal">
          72 58 296 rmoveto
          359 94 -359 hlineto
          -274 vmoveto
          2 callgsubr
        </CharString>
        <CharString name="estimated">
          106 159 323 rmoveto
          305 21 hlineto
          278 -8 74 -202 -202 -7 -74 -278 -278 7 -74 202 154 36 48 160 8 vhcurveto
          -36 hlineto
          -169 -10 -37 -5 -112 hhcurveto
          -90 -8 8 289 hvcurveto
          95 339 rmoveto
          88 8 -8 -297 hvcurveto
          -191 hlineto
          297 7 8 88 vhcurveto
          endchar
        </CharString>
        <CharString name="eth">
          35 217 -8 rmoveto
          168 10 60 209 87 -7 74 -10 44 hvcurveto
          -14 73 -14 46 -18 41 51 8 rcurveline
          67 vlineto
          -85 -13 -13 20 -13 18 -14 17 rlinecurve
          -111 -4 hlineto
          16 -20 17 -23 15 -24 -58 -9 rcurveline
          -67 vlineto
          90 14 15 -32 12 -36 10 -39 rlinecurve
          -2 -3 rlineto
          11 -20 -26 6 -35 hhcurveto
          -131 -11 -84 -179 16 callgsubr
          17 152 157 0 14 70 70 0 -29 -142 -152 0 -17 -70 hvcurveto
          endchar
        </CharString>
        <CharString name="exclam">
          -163 85 209 rmoveto
          -48 callsubr
          -23 -209 -16 callsubr
          endchar
        </CharString>
        <CharString name="exclam.case">
          -163 85 209 rmoveto
          -48 callsubr
          -23 -209 -16 callsubr
          endchar
        </CharString>
        <CharString name="exclam.ss02">
          391 397 -8 rmoveto
          194 158 158 194 194 -158 158 -194 -194 -158 -158 -194 -194 158 -158 194 hvcurveto
          45 vmoveto
          -169 -138 138 169 169 138 138 169 169 138 -138 -169 -169 -138 -138 -169 hvcurveto
          -20 231 rmoveto
          40 hlineto
          8 55 6 88 69 vvcurveto
          99 -68 -99 vlineto
          -69 6 -88 8 -55 vhcurveto
          -14 -159 rmoveto
          68 82 -68 hlineto
          endchar
        </CharString>
        <CharString name="exclamdbl">
          25 85 209 rmoveto
          -48 callsubr
          187 hmoveto
          -48 callsubr
          -210 -209 -16 callsubr
          187 -118 -16 callsubr
          endchar
        </CharString>
        <CharString name="exclamdown">
          -166 57 392 -30 callsubr
        </CharString>
        <CharString name="exclamdown.case">
          -166 57 570 -30 callsubr
        </CharString>
        <CharString name="f">
          -107 83 hmoveto
          -67 callgsubr
          endchar
        </CharString>
        <CharString name="f_f">
          189 83 hmoveto
          -67 callgsubr
          296 -417 rmoveto
          -67 callgsubr
          endchar
        </CharString>
        <CharString name="fi">
          107 83 hmoveto
          -67 callgsubr
          265 216 -46 callgsubr
          1 -23 callgsubr
        </CharString>
        <CharString name="five">
          44 49 104 rmoveto
          -95 vlineto
          -10 48 68 -7 47 hhcurveto
          163 36 3 callsubr
          220 103 -327 1 callgsubr
          -57 4 5 -45 hvcurveto
          endchar
        </CharString>
        <CharString name="five.dnom">
          -123 38 68 -66 callsubr
          endchar
        </CharString>
        <CharString name="five.numr">
          -123 38 376 -66 callsubr
          endchar
        </CharString>
        <CharString name="five.tnum">
          75 64 104 rmoveto
          -95 vlineto
          -10 47 69 -7 47 hhcurveto
          162 37 3 callsubr
          219 103 -326 1 callgsubr
          -58 4 5 -44 hvcurveto
          endchar
        </CharString>
        <CharString name="fiveeighths">
          281 38 376 -66 callsubr
          84 -376 -17 callsubr
          65 -692 -95 callgsubr
        </CharString>
        <CharString name="fl">
          107 83 hmoveto
          -67 callgsubr
          266 -417 rmoveto
          -28 callgsubr
          endchar
        </CharString>
        <CharString name="florin">
          -18 369 658 rmoveto
          17 84 rlineto
          -176 -27 -24 -207 -40 hvcurveto
          -1 -66 vlineto
          -20 -94 rlineto
          66 hlineto
          -96 -449 rlineto
          -68 -15 -12 -8 -74 hhcurveto
          -18 -84 rlineto
          169 28 21 171 37 hvcurveto
          88 417 rlineto
          88 hlineto
          19 94 rlineto
          -87 1 hlineto
          145 29 7 2 83 hhcurveto
          endchar
        </CharString>
        <CharString name="four">
          64 267 6 callsubr
          -125 hlineto
          156 440 rlineto
          -119 -21 callsubr
          -453 rlineto
          -89 242 vlineto
          endchar
        </CharString>
        <CharString name="four.dnom">
          -123 160 hmoveto
          -22 callgsubr
        </CharString>
        <CharString name="four.numr">
          -123 160 308 rmoveto
          -22 callgsubr
        </CharString>
        <CharString name="four.ss01">
          67 267 hmoveto
          114 145 63 104 -63 439 -175 hlineto
          -181 -455 rlineto
          -88 242 vlineto
          -134 104 rmoveto
          129 326 rlineto
          5 -326 hlineto
          endchar
        </CharString>
        <CharString name="four.tnum">
          75 274 6 callsubr
          -130 hlineto
          160 440 rlineto
          -120 hlineto
          -158 -453 rlineto
          -89 248 vlineto
          endchar
        </CharString>
        <CharString name="fraction">
          -301 -158 hmoveto
          72 -5 callgsubr
          -72 hlineto
          endchar
        </CharString>
        <CharString name="g">
          41 204 -200 -101 callsubr
        </CharString>
        <CharString name="g_tilde.loclGUA">
          41 372 743 -107 callsubr
          -168 -943 -101 callsubr
        </CharString>
        <CharString name="gbreve">
          41 346 -76 callsubr
          -142 -943 -101 callsubr
        </CharString>
        <CharString name="gcaron">
          41 166 609 -97 callsubr
          114 -936 -101 callsubr
        </CharString>
        <CharString name="gcircumflex">
          41 90 -86 callgsubr
          114 -817 -101 callsubr
        </CharString>
        <CharString name="gcommaaccent">
          41 287 -14 callsubr
          -83 -976 -101 callsubr
        </CharString>
        <CharString name="gdotaccent">
          41 173 -29 callsubr
          31 -930 -101 callsubr
        </CharString>
        <CharString name="germandbls">
          55 246 hmoveto
          149 22 73 166 130 -30 48 -67 15 hvcurveto
          4 vlineto
          64 13 28 43 90 vvcurveto
          110 -42 58 -138 -136 -43 -61 -142 vhcurveto
          -547 108 545 vlineto
          97 18 15 51 50 24 -13 -76 -67 -6 -24 -60 vhcurveto
          -14 -95 14 hlineto
          57 14 -13 -125 -146 -7 -5 -67 hvcurveto
          -20 -93 hlineto
          endchar
        </CharString>
        <CharString name="grave">
          -228 82 599 -89 callsubr
          endchar
        </CharString>
        <CharString name="gravecomb">
          -93 599 -89 callsubr
          endchar
        </CharString>
        <CharString name="gravecomb.case">
          -93 744 -89 callsubr
          endchar
        </CharString>
        <CharString name="greater">
          72 58 65 -7 callgsubr
          endchar
        </CharString>
        <CharString name="greaterequal">
          73 59 186 -7 callgsubr
          -252 vmoveto
          2 callgsubr
        </CharString>
        <CharString name="guillemotleft">
          -5 122 116 rmoveto
          79 hlineto
          -72 196 72 198 rlineto
          -79 hlineto
          -89 -198 rlineto
          241 -196 rmoveto
          79 hlineto
          -73 196 73 198 rlineto
          -79 hlineto
          -89 -198 rlineto
          endchar
        </CharString>
        <CharString name="guillemotright">
          -5 0 callgsubr
          80 -196 rmoveto
          78 hlineto
          89 196 -89 198 rlineto
          -78 hlineto
          72 -198 rlineto
          endchar
        </CharString>
        <CharString name="guilsinglleft">
          -156 122 116 rmoveto
          78 hlineto
          -71 196 71 198 rlineto
          -78 hlineto
          -89 -198 rlineto
          endchar
        </CharString>
        <CharString name="guilsinglright">
          -156 0 callgsubr
          endchar
        </CharString>
        <CharString name="h">
          46 290 hmoveto
          -55 callgsubr
          endchar
        </CharString>
        <CharString name="hbar">
          46 279 518 rmoveto
          -57 -38 -20 -48 -18 hvcurveto
          -5 145 96 93 -96 55 -108 -55 -45 -93 45 -595 108 266 hlineto
          116 3 35 64 56 6 -8 -128 vhcurveto
          -281 108 335 vlineto
          124 -18 59 -101 vhcurveto
          endchar
        </CharString>
        <CharString name="hcircumflex">
          46 -25 788 -106 callgsubr
          315 -795 rmoveto
          -55 callgsubr
          endchar
        </CharString>
        <CharString name="hookabovecomb">
          -192 610 -105 callsubr
          endchar
        </CharString>
        <CharString name="hookabovecomb.case">
          -192 -93 callgsubr
          endchar
        </CharString>
        <CharString name="house">
          129 29 hmoveto
          474 373 hlineto
          -188 326 rlineto
          -98 hlineto
          -188 -326 rlineto
          101 -288 rmoveto
          276 vlineto
          136 234 136 -234 -1 -276 rlineto
          endchar
        </CharString>
        <CharString name="hungarumlaut">
          -102 10 609 -79 callsubr
          endchar
        </CharString>
        <CharString name="hyphen">
          13 callgsubr
        </CharString>
        <CharString name="i">
          -12 callgsubr
          endchar
        </CharString>
        <CharString name="i.loclTRK">
          -189 58 -29 callsubr
          -5 -730 -62 callgsubr
        </CharString>
        <CharString name="iacute">
          -189 54 599 -100 callgsubr
          -1 -604 -62 callgsubr
        </CharString>
        <CharString name="iacute_j.loclNLD">
          25 56 599 -100 callgsubr
          214 -5 -100 callgsubr
          -217 -604 -65 callsubr
          151 -703 -76 callgsubr
        </CharString>
        <CharString name="ibreve">
          -189 231 -76 callsubr
          -178 -23 callgsubr
        </CharString>
        <CharString name="icircumflex">
          -189 -24 -86 callgsubr
          77 -617 -62 callgsubr
        </CharString>
        <CharString name="idieresis">
          -189 -28 627 -85 callsubr
          -94 -722 -62 callgsubr
        </CharString>
        <CharString name="igrave">
          -189 73 599 -89 callsubr
          56 -738 -62 callgsubr
        </CharString>
        <CharString name="ij">
          25 -2 callgsubr
          214 -110 -46 callgsubr
          -213 -743 -65 callsubr
          151 -703 -76 callgsubr
        </CharString>
        <CharString name="imacron">
          -189 7 643 -63 callsubr
          46 -23 callgsubr
        </CharString>
        <CharString name="infinity">
          379 220 41 rmoveto
          98 44 50 66 29 hvcurveto
          -66 28 45 -50 98 hhcurveto
          134 36 78 137 136 -36 79 -134 -98 -45 -51 -65 -28 hvcurveto
          65 -29 -44 51 -98 hhcurveto
          -134 -36 -79 -136 -137 36 -78 134 hvcurveto
          9 84 rmoveto
          -73 -13 48 83 82 13 49 73 70 30 -57 -74 15 hvcurveto
          -73 -15 -30 -58 -70 hhcurveto
          325 hmoveto
          -70 -31 58 73 -16 hvcurveto
          74 16 31 57 70 hhcurveto
          72 13 -49 -82 -83 -13 -48 -72 hvcurveto
          endchar
        </CharString>
        <CharString name="integral">
          -85 31 -190 rmoveto
          138 57 6 138 6 -1 27 -3 56 hvcurveto
          -25 458 rlineto
          17 -2 22 14 vvcurveto
          52 12 6 71 vhcurveto
          84 vlineto
          -141 -54 -6 -137 hvcurveto
          3 -52 24 -455 rlineto
          3 -58 2 -37 -7 vvcurveto
          -44 -18 -5 -66 vhcurveto
          endchar
        </CharString>
        <CharString name="iogonek">
          -189 155 730 rmoveto
          -97 -95 97 hlineto
          -9 -766 rmoveto
          -29 -10 17 20 36 31 40 23 18 hvcurveto
          -56 callgsubr
          -510 24 vlineto
          -33 -32 -24 -41 -43 vvcurveto
          -41 22 -39 -11 callsubr
          -7 hhcurveto
          endchar
        </CharString>
        <CharString name="itilde">
          -189 257 743 -107 callsubr
          -204 -23 callgsubr
        </CharString>
        <CharString name="j">
          11 callsubr
          -62 -936 -76 callgsubr
        </CharString>
        <CharString name="jcircumflex">
          -189 -25 -86 callgsubr
          15 -810 -76 callgsubr
        </CharString>
        <CharString name="k">
          -40 callgsubr
          441 -108 -743 108 208 36 hlineto
          endchar
        </CharString>
        <CharString name="kcommaaccent">
          -40 callgsubr
          441 -108 -743 108 208 36 hlineto
          -48 -446 -87 callgsubr
        </CharString>
        <CharString name="kgreenlandic">
          -40 callgsubr
          208 -108 -510 108 208 36 hlineto
          endchar
        </CharString>
        <CharString name="l">
          -189 -9 callsubr
          endchar
        </CharString>
        <CharString name="lacute">
          -189 56 777 -100 callgsubr
          -3 -782 rmoveto
          -28 callgsubr
          endchar
        </CharString>
        <CharString name="lcaron">
          -143 -9 callsubr
          137 -310 -34 callgsubr
          endchar
        </CharString>
        <CharString name="lcommaaccent">
          -189 -9 callsubr
          -7 -981 -87 callgsubr
        </CharString>
        <CharString name="ldot">
          -108 -9 callsubr
          143 -504 rmoveto
          119 119 -119 hlineto
          endchar
        </CharString>
        <CharString name="leftOpenDialog">
          220 626 628 rmoveto
          60 -626 -688 626 60 -566 568 vlineto
          endchar
        </CharString>
        <CharString name="less">
          72 417 65 -1 callsubr
          endchar
        </CharString>
        <CharString name="lessequal">
          72 417 186 -1 callsubr
          -294 vmoveto
          2 callgsubr
        </CharString>
        <CharString name="logicalnot">
          72 323 69 rmoveto
          94 228 -359 -94 265 hlineto
          endchar
        </CharString>
        <CharString name="longs">
          -117 83 hmoveto
          108 581 hlineto
          70 12 8 75 vhcurveto
          84 vlineto
          -156 -39 -12 -174 hvcurveto
          -47 -66 -93 66 vlineto
          endchar
        </CharString>
        <CharString name="lozenge">
          43 173 hmoveto
          99 hlineto
          143 344 -143 344 rlineto
          -99 hlineto
          -144 -344 rlineto
          193 -255 rmoveto
          -99 255 99 254 99 -254 rlineto
          endchar
        </CharString>
        <CharString name="lslash">
          -183 54 hmoveto
          108 333 hlineto
          45 16 rlineto
          96 vlineto
          -45 -16 rlineto
          314 -108 -353 vlineto
          -41 -14 rlineto
          -95 vlineto
          41 13 rlineto
          endchar
        </CharString>
        <CharString name="m">
          268 512 hmoveto
          108 336 hlineto
          126 -20 56 -95 -62 -36 -21 -51 -18 vhcurveto
          -6 hlineto
          51 -12 -30 21 -65 hhcurveto
          -61 -34 -22 -50 -19 hvcurveto
          -40 callsubr
          -510 108 266 hlineto
          117 3 34 60 53 5 -8 -128 vhcurveto
          -281 108 266 vlineto
          119 4 32 60 53 5 -8 -128 vhcurveto
          endchar
        </CharString>
        <CharString name="macron">
          -102 50 643 -63 callsubr
          endchar
        </CharString>
        <CharString name="minus">
          72 58 206 rmoveto
          359 93 -359 hlineto
          endchar
        </CharString>
        <CharString name="minute">
          -205 35 373 -6 callgsubr
          endchar
        </CharString>
        <CharString name="multiply">
          39 220 186 rmoveto
          97 -97 67 65 -98 98 98 97 -67 67 -97 -97 -97 97 -67 -67 98 -97 -98 -98 67 -65 rlineto
          endchar
        </CharString>
        <CharString name="n">
          46 290 hmoveto
          -84 callgsubr
        </CharString>
        <CharString name="nacute">
          46 173 599 -100 callgsubr
          117 -604 rmoveto
          -84 callgsubr
        </CharString>
        <CharString name="nacute.loclPLK">
          46 173 -49 callsubr
          117 -604 rmoveto
          -84 callgsubr
        </CharString>
        <CharString name="napostrophe">
          130 -15 callgsubr
          362 -570 rmoveto
          -84 callgsubr
        </CharString>
        <CharString name="ncaron">
          46 168 609 -97 callsubr
          198 -736 rmoveto
          -84 callgsubr
        </CharString>
        <CharString name="ncommaaccent">
          46 290 hmoveto
          -83 callgsubr
          -127 -519 -87 callgsubr
        </CharString>
        <CharString name="nine">
          71 212 -8 rmoveto
          115 57 33 90 26 hvcurveto
          16 53 4 77 103 vvcurveto
          105 -4 75 -12 52 vhcurveto
          97 -23 -51 19 -111 hhcurveto
          -157 -33 -55 -179 -176 53 -24 101 78 25 28 20 13 hvcurveto
          6 hlineto
          -183 -9 -32 -115 -32 -54 5 7 -43 vhcurveto
          -95 vlineto
          -12 43 63 -8 44 hhcurveto
          21 373 rmoveto
          -68 -13 5 111 109 15 3 66 62 18 -8 -121 -84 -7 -15 -73 hvcurveto
          endchar
        </CharString>
        <CharString name="nine.dnom">
          -112 130 -4 -60 callsubr
        </CharString>
        <CharString name="nine.numr">
          -112 130 304 -60 callsubr
        </CharString>
        <CharString name="nine.ss01">
          68 105 hmoveto
          128 hlineto
          47 45 155 185 224 vvcurveto
          160 -30 82 -170 -169 -32 -80 -139 -131 22 -84 131 44 28 6 16 24 vhcurveto
          3 -2 -48 -135 -94 -102 -39 -39 rlinecurve
          129 357 rmoveto
          -66 -20 4 111 100 17 15 69 64 21 -8 -117 -89 -20 -16 -65 hvcurveto
          endchar
        </CharString>
        <CharString name="nine.tnum">
          75 214 -8 rmoveto
          103 56 26 70 29 hvcurveto
          23 56 7 83 121 vvcurveto
          128 -6 81 -18 52 vhcurveto
          72 -27 -51 15 -100 hhcurveto
          -157 -33 -55 -179 -176 54 -24 101 77 26 28 20 13 hvcurveto
          6 hlineto
          -183 -10 -32 -115 -31 -54 5 7 -43 vhcurveto
          -95 vlineto
          -12 43 62 -8 45 hhcurveto
          21 373 rmoveto
          -69 -13 5 111 109 15 3 67 61 19 -8 -121 -84 -8 -15 -72 hvcurveto
          endchar
        </CharString>
        <CharString name="notequal">
          72 209 117 rmoveto
          208 93 -164 hlineto
          41 86 rlineto
          123 94 -78 hlineto
          46 96 rlineto
          -81 hlineto
          -46 -96 rlineto
          -200 -94 156 hlineto
          -42 -86 rlineto
          -114 -93 70 hlineto
          -44 -93 rlineto
          81 hlineto
          endchar
        </CharString>
        <CharString name="ntilde">
          46 378 743 -107 callsubr
          -88 -743 rmoveto
          -84 callgsubr
        </CharString>
        <CharString name="numbersign">
          158 271 hmoveto
          83 hlineto
          26 185 rlineto
          95 80 -84 hlineto
          23 155 rlineto
          83 80 -73 hlineto
          28 188 rlineto
          -83 hlineto
          -27 -188 rlineto
          -104 hlineto
          27 188 rlineto
          -83 hlineto
          -27 -188 rlineto
          -87 -80 76 hlineto
          -23 -155 rlineto
          -77 -80 66 hlineto
          -25 -185 rlineto
          82 hlineto
          26 185 rlineto
          105 hlineto
          33 235 rmoveto
          -22 -155 rlineto
          -104 hlineto
          22 155 rlineto
          endchar
        </CharString>
        <CharString name="o">
          32 217 -8 -104 callsubr
          endchar
        </CharString>
        <CharString name="oacute">
          32 169 599 -100 callgsubr
          48 -612 -104 callsubr
          endchar
        </CharString>
        <CharString name="oacute.loclPLK">
          32 166 -49 callsubr
          51 -612 -104 callsubr
          endchar
        </CharString>
        <CharString name="obreve">
          32 341 -76 callsubr
          -124 -751 -104 callsubr
          endchar
        </CharString>
        <CharString name="ocircumflex">
          32 86 -86 callgsubr
          131 -625 -104 callsubr
          endchar
        </CharString>
        <CharString name="odieresis">
          32 82 627 -85 callsubr
          -40 -730 -104 callsubr
          endchar
        </CharString>
        <CharString name="oe">
          270 633 254 rmoveto
          190 -4 74 -163 -58 -39 -12 -24 -26 vhcurveto
          26 -26 -40 10 -60 5 callgsubr
          -210 13 -53 165 61 40 9 27 26 hvcurveto
          -25 27 41 -11 61 hhcurveto
          50 61 6 9 36 hvcurveto
          86 vlineto
          -5 -46 -47 -3 -30 hhcurveto
          -96 -6 13 120 9 callgsubr
          -1 -134 -8 callgsubr
          1 8 17 61 hhcurveto
          -248 -340 rmoveto
          -68 -2 15 155 155 2 14 68 68 2 -14 -155 -155 -2 -15 -68 hvcurveto
          endchar
        </CharString>
        <CharString name="ogonek">
          -261 142 -193 rmoveto
          -35 callgsubr
        </CharString>
        <CharString name="ograve">
          32 179 599 -89 callsubr
          114 -746 -104 callsubr
          endchar
        </CharString>
        <CharString name="ohorn">
          32 393 607 -92 callgsubr
          endchar
        </CharString>
        <CharString name="ohungarumlaut">
          32 114 609 -79 callsubr
          -40 -621 -104 callsubr
          endchar
        </CharString>
        <CharString name="omacron">
          32 117 643 -63 callsubr
          100 -751 -104 callsubr
          endchar
        </CharString>
        <CharString name="one">
          -104 122 hmoveto
          114 688 -84 hlineto
          -130 -71 rlineto
          -110 vlineto
          100 44 rlineto
          endchar
        </CharString>
        <CharString name="one.dnom">
          -207 80 hmoveto
          10 callgsubr
        </CharString>
        <CharString name="one.numr">
          -207 80 308 rmoveto
          10 callgsubr
        </CharString>
        <CharString name="one.tnum">
          75 74 hmoveto
          360 103 -119 585 -84 hlineto
          -152 -77 rlineto
          -108 vlineto
          121 50 rlineto
          -450 -126 vlineto
          endchar
        </CharString>
        <CharString name="oneeighth">
          250 -49 callgsubr
          -23 -599 rmoveto
          -6 callsubr
          -71 hlineto
          68 -692 -95 callgsubr
        </CharString>
        <CharString name="onehalf">
          230 -49 callgsubr
          323 89 rmoveto
          -346 -688 rlineto
          -6 callsubr
          -38 -594 rmoveto
          21 4 7 17 11 vhcurveto
          67 39 rlineto
          -65 callgsubr
          68 -135 vlineto
          endchar
        </CharString>
        <CharString name="onequarter">
          194 -49 callgsubr
          -23 -599 rmoveto
          -6 callsubr
          -71 hlineto
          32 -688 rmoveto
          74 75 33 67 -33 108 -51 hlineto
          -23 -108 rlineto
          -57 hlineto
          84 232 rlineto
          -77 hlineto
          -82 -245 rlineto
          -54 132 vlineto
          endchar
        </CharString>
        <CharString name="ordfeminine">
          -76 117 309 rmoveto
          29 35 8 40 17 hvcurveto
          5 hlineto
          3 -43 rlineto
          78 232 hlineto
          110 -21 40 -106 -36 -42 -5 -8 -30 vhcurveto
          -66 vlineto
          3 26 41 4 15 hhcurveto
          63 8 -5 -68 hvcurveto
          -19 vlineto
          2 -23 -36 1 -19 hhcurveto
          -69 -23 -30 -83 -79 25 -34 60 hvcurveto
          36 72 rmoveto
          -35 -6 10 37 41 8 8 28 hvcurveto
          54 -21 hlineto
          -20 -1 -16 -4 -11 vhcurveto
          -20 -5 -13 -8 -26 hhcurveto
          endchar
        </CharString>
        <CharString name="ordmasculine">
          -68 168 309 -41 callsubr
          10 42 150 151 -10 44 -121 -122 -10 -44 -151 -150 10 -42 122 hvcurveto
          71 vmoveto
          -49 0 9 112 112 0 12 49 48 0 -12 -112 -112 0 -9 -48 hvcurveto
          endchar
        </CharString>
        <CharString name="orn.001">
          -66 289 341 rmoveto
          105 -6 17 -117 -112 -6 -17 -105 -102 6 -16 112 117 6 16 102 vhcurveto
          endchar
        </CharString>
        <CharString name="orn.002">
          146 210 -53 callgsubr
          63 101 -48 callgsubr
          121 87 -3 callgsubr
          -29 -21 22 28 29 21 21 29 28 22 -21 -29 -28 -22 -22 -28 hvcurveto
          endchar
        </CharString>
        <CharString name="orn.003">
          12 211 -53 callgsubr
          63 101 -48 callgsubr
          63 101 -27 callsubr
          endchar
        </CharString>
        <CharString name="orn.007">
          -66 168 222 rmoveto
          67 54 53 67 67 -54 54 -67 -67 -53 -54 -67 -67 53 -53 67 hvcurveto
          endchar
        </CharString>
        <CharString name="orn.010">
          391 397 hmoveto
          352 348 hlineto
          13 callsubr
          7 callgsubr
          vhcurveto
          endchar
        </CharString>
        <CharString name="orn.015">
          9 callsubr
          187 60 -187 hlineto
          187 -272 rmoveto
          213 212 rlineto
          167 60 -192 hlineto
          -188 -187 rlineto
          endchar
        </CharString>
        <CharString name="orn.016">
          9 callsubr
          567 60 -567 hlineto
          endchar
        </CharString>
        <CharString name="orn.017">
          -343 0 vmoveto
          60 688 -60 hlineto
          endchar
        </CharString>
        <CharString name="orn.018">
          389 211 -53 callgsubr
          370 hmoveto
          99 62 67 110 126 vvcurveto
          125 -67 111 -99 62 vhcurveto
          -32 -51 rlineto
          82 -51 56 -92 -104 vvcurveto
          -105 -55 -91 -83 -52 vhcurveto
          -275 51 -48 callgsubr
          244 hmoveto
          65 41 44 73 83 vvcurveto
          83 -44 73 -66 41 vhcurveto
          -32 -51 rlineto
          49 -31 33 -54 -61 vvcurveto
          -62 -33 -53 -48 -31 vhcurveto
          -149 50 -27 callsubr
          118 hmoveto
          -22 callsubr
        </CharString>
        <CharString name="orn.019">
          146 338 -50 callgsubr
          -89 36 -3 callgsubr
          -28 -22 22 28 29 22 21 28 29 21 -21 -29 -28 -21 -22 -29 hvcurveto
          endchar
        </CharString>
        <CharString name="orn.020">
          12 204 -50 callgsubr
          -31 50 rmoveto
          -22 callsubr
        </CharString>
        <CharString name="orn.021">
          350 376 -116 rmoveto
          22 11 310 176 293 vvcurveto
          188 -149 144 -183 -183 -148 -144 -188 -293 309 -176 22 -11 vhcurveto
          endchar
        </CharString>
        <CharString name="orn.022">
          -14 171 220 rmoveto
          98 80 83 40 40 -80 83 -98 -81 -42 -55 -68 -68 42 -55 81 hvcurveto
          endchar
        </CharString>
        <CharString name="oslash">
          32 39 -55 -57 callsubr
        </CharString>
        <CharString name="oslash.bold">
          32 395 566 rmoveto
          -96 hlineto
          -22 -51 rlineto
          2 -17 -20 1 -23 5 callgsubr
          -117 4 -68 32 -38 hvcurveto
          -36 -87 rlineto
          97 hlineto
          21 50 rlineto
          -2 17 20 -1 23 hhcurveto
          165 13 54 209 118 -4 68 -33 37 hvcurveto
          -211 -223 rmoveto
          155 2 15 68 9 7 0 -1 7 vhcurveto
          -93 -221 rlineto
          140 52 rmoveto
          -154 -25 callsubr
          -8 -8 0 1 -6 vhcurveto
          92 221 rlineto
          endchar
        </CharString>
        <CharString name="oslashacute">
          32 166 599 -100 callgsubr
          -127 -659 -57 callsubr
        </CharString>
        <CharString name="otilde">
          32 369 743 -107 callsubr
          -152 -751 -104 callsubr
          endchar
        </CharString>
        <CharString name="p">
          42 53 -193 rmoveto
          108 250 6 hlineto
          -47 17 39 -18 52 hhcurveto
          102 28 64 201 206 -32 55 -100 -43 -49 -11 -60 -18 hvcurveto
          -7 hlineto
          -4 63 rlineto
          -99 hlineto
          174 -418 rmoveto
          -39 -16 13 47 -7 hvcurveto
          -3 23 -1 33 47 vvcurveto
          55 1 37 5 24 vhcurveto
          36 8 17 11 35 11 callgsubr
        </CharString>
        <CharString name="paragraph">
          63 180 -144 rmoveto
          87 832 -87 hlineto
          -135 -12 -31 -203 -203 12 -29 135 hvcurveto
          139 -366 rmoveto
          86 832 -86 hlineto
          endchar
        </CharString>
        <CharString name="parenleft">
          -129 168 -150 rmoveto
          88 hlineto
          -63 106 -31 47 294 vvcurveto
          292 31 48 63 106 vhcurveto
          -88 hlineto
          -84 -126 -31 -58 -262 vvcurveto
          -263 31 -51 84 -133 vhcurveto
          endchar
        </CharString>
        <CharString name="parenleft.ss02">
          -6 397 hmoveto
          696 vlineto
          7 callgsubr
          hvcurveto
          endchar
        </CharString>
        <CharString name="parenright">
          -129 17 -150 rmoveto
          88 hlineto
          84 133 30 51 263 vvcurveto
          262 -30 58 -84 126 vhcurveto
          -88 hlineto
          63 -106 31 -48 -292 vvcurveto
          -294 -31 -47 -63 -106 vhcurveto
          endchar
        </CharString>
        <CharString name="parenright.ss02">
          -6 0 vmoveto
          207 145 144 204 13 callsubr
          hvcurveto
          endchar
        </CharString>
        <CharString name="partialdiff">
          32 217 -8 rmoveto
          168 10 60 209 89 -8 78 -14 68 hvcurveto
          -23 107 -41 81 -51 59 rrcurveto
          -111 -4 hlineto
          50 -61 42 -74 25 -101 -2 -3 rcurveline
          10 -22 -28 7 -32 hhcurveto
          -130 -11 -82 -181 16 callgsubr
          18 152 157 0 13 70 70 0 -28 -142 -152 0 -18 -70 hvcurveto
          endchar
        </CharString>
        <CharString name="percent">
          297 168 311 -31 callsubr
          10 41 151 150 -10 43 -112 -112 -11 -43 -150 -151 11 -41 112 hvcurveto
          -30 -311 rmoveto
          70 hlineto
          355 688 rlineto
          -71 hlineto
          -324 -315 rmoveto
          -43 -2 5 125 125 2 5 43 16 callsubr
          365 -381 rmoveto
          111 11 41 151 150 -11 43 -111 -113 -9 -43 -150 -151 9 -41 113 hvcurveto
          62 vmoveto
          -42 -2 5 125 125 2 5 42 16 callsubr
          endchar
        </CharString>
        <CharString name="period">
          -179 52 hmoveto
          -41 callgsubr
          endchar
        </CharString>
        <CharString name="periodcentered">
          -179 52 239 -89 callgsubr
        </CharString>
        <CharString name="perthousand">
          442 153 359 15 callsubr
          -97 -11 -38 -131 -131 11 -37 97 hvcurveto
          -70 -359 rmoveto
          70 hlineto
          358 688 rlineto
          -70 hlineto
          -288 -272 -7 callsubr
          287 -424 15 callsubr
          17 callsubr
          252 hmoveto
          98 10 37 131 131 -10 38 -98 17 callsubr
          -252 57 -7 callsubr
          252 hmoveto
          -36 -2 3 108 108 2 4 36 35 2 -4 -108 -108 -2 -3 -35 hvcurveto
          endchar
        </CharString>
        <CharString name="pi">
          44 288 hmoveto
          107 510 -342 -510 108 418 127 hlineto
          endchar
        </CharString>
        <CharString name="plus">
          72 191 73 rmoveto
          93 133 133 93 -133 133 -93 -133 -133 -93 133 hlineto
          endchar
        </CharString>
        <CharString name="plusminus">
          72 191 195 rmoveto
          93 133 133 94 -133 132 -93 -132 -133 -94 133 hlineto
          -133 -298 rmoveto
          2 callgsubr
        </CharString>
        <CharString name="product">
          119 349 -190 rmoveto
          114 878 -404 -878 114 775 176 hlineto
          endchar
        </CharString>
        <CharString name="q">
          42 284 -193 rmoveto
          108 703 -100 hlineto
          -4 -63 rlineto
          -7 hlineto
          60 -18 -49 11 -42 hhcurveto
          -101 -32 -55 -207 -201 28 -63 103 52 38 18 47 18 hvcurveto
          6 hlineto
          -67 35 rmoveto
          -62 -8 10 153 153 8 10 62 34 17 -10 -30 7 hvcurveto
          8 -25 1 -39 -59 vvcurveto
          -54 -1 -36 -5 -24 vhcurveto
          -38 -8 -17 -11 -36 hhcurveto
          endchar
        </CharString>
        <CharString name="question">
          -55 callsubr
        </CharString>
        <CharString name="question.case">
          -55 callsubr
        </CharString>
        <CharString name="questiondown">
          -51 170 392 -54 callgsubr
        </CharString>
        <CharString name="questiondown.case">
          -38 166 570 -54 callgsubr
        </CharString>
        <CharString name="quotedbl">
          -53 60 433 rmoveto
          78 hlineto
          13 194 rlineto
          61 -104 -61 vlineto
          165 -194 rmoveto
          77 hlineto
          13 194 rlineto
          61 -103 -61 vlineto
          endchar
        </CharString>
        <CharString name="quotedblbase">
          -14 44 -84 rmoveto
          -50 vlineto
          110 13 35 128 -21 callgsubr
          -15 -44 vhcurveto
          170 hmoveto
          -50 vlineto
          109 13 35 128 hvcurveto
          83 -114 -112 44 -16 vlineto
          -53 -9 -15 -43 vhcurveto
          endchar
        </CharString>
        <CharString name="quotedblleft">
          -20 -14 callgsubr
          169 -83 rmoveto
          115 112 -45 16 hlineto
          53 9 15 44 vhcurveto
          50 vlineto
          -110 -13 -35 -128 hvcurveto
          endchar
        </CharString>
        <CharString name="quotedblright">
          -20 -19 callsubr
          170 hmoveto
          -49 vlineto
          109 14 34 129 hvcurveto
          83 -115 -112 44 -16 vlineto
          -53 -8 -16 -44 vhcurveto
          endchar
        </CharString>
        <CharString name="quoteleft">
          -189 -14 callgsubr
          endchar
        </CharString>
        <CharString name="quoteright">
          -189 -19 callsubr
          endchar
        </CharString>
        <CharString name="quotesinglbase">
          -184 44 -84 rmoveto
          -50 vlineto
          110 13 35 128 -21 callgsubr
          -15 -44 vhcurveto
          endchar
        </CharString>
        <CharString name="quotesingle">
          -205 60 433 rmoveto
          78 hlineto
          13 194 rlineto
          61 -104 -61 vlineto
          endchar
        </CharString>
        <CharString name="r">
          -24 callsubr
          endchar
        </CharString>
        <CharString name="racute">
          -101 100 599 -100 callgsubr
          -47 -604 rmoveto
          -75 callgsubr
          endchar
        </CharString>
        <CharString name="radical">
          130 198 -106 rmoveto
          150 hlineto
          157 876 rlineto
          -107 hlineto
          -130 -757 -102 326 -151 -64 23 -69 49 20 rlineto
          endchar
        </CharString>
        <CharString name="rcaron">
          -101 95 609 -97 callsubr
          34 -736 rmoveto
          -75 callgsubr
          endchar
        </CharString>
        <CharString name="rcommaaccent">
          -26 callgsubr
          -748 -87 callgsubr
        </CharString>
        <CharString name="registered">
          174 287 696 rmoveto
          -221 -7 -45 -307 -309 7 -43 221 221 8 43 309 307 -8 45 -221 hvcurveto
          -659 vmoveto
          -176 -5 11 296 294 5 12 176 177 5 -12 -294 -296 -5 -11 -177 hvcurveto
          109 374 rmoveto
          71 -9 46 -84 vhcurveto
          -118 -370 66 134 45 hlineto
          39 -134 rlineto
          69 hlineto
          -46 148 rlineto
          33 17 5 42 46 vvcurveto
          -110 -61 rmoveto
          -35 117 37 hlineto
          35 6 -8 -49 -47 -2 -13 -41 hvcurveto
          endchar
        </CharString>
        <CharString name="rightCloseDialog">
          215 624 688 rmoveto
          -625 -60 565 -568 -190 hlineto
          -188 -187 rlineto
          -85 vlineto
          213 212 rlineto
          225 hlineto
          -438 60 rmoveto
          -187 -60 187 hlineto
          endchar
        </CharString>
        <CharString name="rightOpenDialog">
          215 625 688 rmoveto
          -626 -60 566 -568 -566 -60 626 hlineto
          endchar
        </CharString>
        <CharString name="ring">
          -153 124 609 -90 callsubr
          endchar
        </CharString>
        <CharString name="s">
          -60 callgsubr
          endchar
        </CharString>
        <CharString name="sacute">
          -30 136 599 -100 callgsubr
          51 -612 -96 callsubr
          endchar
        </CharString>
        <CharString name="sacute.loclPLK">
          -30 136 -49 callsubr
          51 -612 -96 callsubr
          endchar
        </CharString>
        <CharString name="scaron">
          -30 135 609 -97 callsubr
          128 -744 -96 callsubr
          endchar
        </CharString>
        <CharString name="scedilla">
          -30 342 152 rmoveto
          120 -39 20 -50 7 vhcurveto
          -76 10 rlineto
          -33 4 -5 6 48 vvcurveto
          48 17 10 51 34 47 -4 -5 31 vhcurveto
          86 vlineto
          9 -29 -53 7 -44 hhcurveto
          -99 -63 -32 -121 -101 19 -36 54 -8 hvcurveto
          89 -13 rlineto
          36 -6 6 -2 -55 vvcurveto
          -45 -9 -14 -62 -38 -38 3 5 -45 vhcurveto
          -87 vlineto
          29 -6 40 -5 37 -2 -58 -178 rcurveline
          -5 98 vlineto
          35 184 rlineto
          77 8 41 40 110 vvcurveto
          endchar
        </CharString>
        <CharString name="scircumflex">
          -30 55 -86 callgsubr
          132 -625 -96 callsubr
          endchar
        </CharString>
        <CharString name="scommaaccent">
          -61 callgsubr
          -230 -87 callgsubr
        </CharString>
        <CharString name="second">
          -71 35 373 -6 callgsubr
          113 -315 -6 callgsubr
          endchar
        </CharString>
        <CharString name="section">
          97 231 -171 rmoveto
          110 69 39 129 49 -7 30 -20 23 hvcurveto
          60 16 21 53 93 vvcurveto
          116 -57 21 -70 29 vhcurveto
          -95 40 rlineto
          -33 13 -8 4 46 vvcurveto
          47 18 16 67 39 52 -4 -5 30 vhcurveto
          96 vlineto
          9 -31 -58 7 -50 hhcurveto
          -110 -69 -39 -129 -50 7 -31 20 -23 hvcurveto
          -60 -15 -21 -53 -92 vvcurveto
          -116 57 -20 69 -29 vhcurveto
          96 -40 rlineto
          33 -14 8 -4 -46 vvcurveto
          -47 -18 -16 -67 -39 -51 4 5 -31 vhcurveto
          -96 vlineto
          -9 32 58 -7 49 hhcurveto
          88 329 rmoveto
          -4 -13 3 7 -15 hvcurveto
          -110 46 rlineto
          -26 11 -6 20 36 vvcurveto
          57 14 28 21 5 12 -3 -7 17 vhcurveto
          112 -48 rlineto
          17 -8 10 -19 -39 vvcurveto
          -56 -12 -28 -22 vhcurveto
          endchar
        </CharString>
        <CharString name="semicolon">
          12 callgsubr
          -9 -598 -13 callgsubr
        </CharString>
        <CharString name="seven">
          13 73 hmoveto
          122 hlineto
          197 596 rlineto
          92 -369 -103 248 vlineto
          endchar
        </CharString>
        <CharString name="seven.dnom">
          -143 46 hmoveto
          -18 callsubr
          endchar
        </CharString>
        <CharString name="seven.numr">
          -143 46 308 rmoveto
          -18 callsubr
          endchar
        </CharString>
        <CharString name="seven.tnum">
          75 106 hmoveto
          121 hlineto
          208 596 rlineto
          92 -385 -103 264 vlineto
          endchar
        </CharString>
        <CharString name="seveneighths">
          227 46 308 rmoveto
          -18 callsubr
          -96 -619 -17 callsubr
          65 -692 -95 callgsubr
        </CharString>
        <CharString name="six">
          71 245 -8 rmoveto
          157 33 55 179 176 -53 24 -101 -78 -25 -29 -19 -13 hvcurveto
          -6 hlineto
          183 9 32 115 32 53 -5 -7 44 vhcurveto
          95 vlineto
          12 -43 -63 8 -44 hhcurveto
          -122 -56 -36 -102 -23 hvcurveto
          -13 -52 -4 -71 -95 vvcurveto
          -86 2 -65 7 -48 vhcurveto
          -127 20 50 -22 122 hhcurveto
          -4 103 rmoveto
          -62 -18 8 121 84 7 15 73 68 13 -5 -111 -109 -15 -3 -66 hvcurveto
          endchar
        </CharString>
        <CharString name="six.dnom">
          -112 150 -4 -59 callsubr
        </CharString>
        <CharString name="six.numr">
          -112 150 304 -59 callsubr
        </CharString>
        <CharString name="six.ss01">
          68 235 -8 rmoveto
          169 32 80 138 131 -22 85 -130 -45 -28 -7 -16 -24 hvcurveto
          -3 3 46 129 93 105 42 42 rlinecurve
          6 -129 vlineto
          -56 -56 -146 -186 -213 vvcurveto
          -160 32 -81 169 vhcurveto
          1 103 rmoveto
          -64 -22 7 117 90 21 15 65 65 21 -4 -111 -101 -17 -13 -69 hvcurveto
          endchar
        </CharString>
        <CharString name="six.tnum">
          75 248 -8 rmoveto
          157 32 55 179 176 -53 24 -101 -77 -26 -28 -20 -12 hvcurveto
          -7 hlineto
          183 10 32 115 32 53 -5 -7 43 vhcurveto
          95 vlineto
          12 -43 -62 8 -45 hhcurveto
          -111 -55 -29 -82 -28 hvcurveto
          -18 -54 -6 -80 -111 vvcurveto
          -98 3 -71 11 -51 vhcurveto
          -108 21 51 -20 116 hhcurveto
          -5 103 rmoveto
          -61 -19 8 121 84 8 15 72 68 14 -5 -111 -109 -15 -3 -67 hvcurveto
          endchar
        </CharString>
        <CharString name="slash">
          -89 14 -55 rmoveto
          97 hlineto
          188 798 rlineto
          -97 hlineto
          endchar
        </CharString>
        <CharString name="space">
          -217 endchar
        </CharString>
        <CharString name="sterling">
          33 204 102 rmoveto
          201 139 103 -139 4 vlineto
          101 4 46 26 21 vhcurveto
          12 15 24 3 35 hhcurveto
          23 36 -4 -5 23 hvcurveto
          98 vlineto
          8 -26 -47 6 -38 hhcurveto
          -153 -35 -84 -202 hvcurveto
          -4 -57 -103 56 -201 -56 -102 364 102 vlineto
          endchar
        </CharString>
        <CharString name="summation">
          112 56 -190 rmoveto
          403 103 -272 hlineto
          203 336 -203 336 rlineto
          272 103 -403 -99 hlineto
          203 -340 -203 -339 rlineto
          endchar
        </CharString>
        <CharString name="t">
          -112 83 hmoveto
          -42 callsubr
          endchar
        </CharString>
        <CharString name="tbar">
          -112 273 417 rmoveto
          93 -82 148 -108 -148 -67 -93 67 -117 -64 -93 64 -207 108 207 81 93 -81 117 vlineto
          endchar
        </CharString>
        <CharString name="tcaron">
          -38 302 433 -34 callgsubr
          -236 -627 rmoveto
          -42 callsubr
          endchar
        </CharString>
        <CharString name="thorn">
          42 53 -192 rmoveto
          108 248 5 hlineto
          -47 18 41 -17 50 hhcurveto
          102 28 63 201 207 -32 55 -100 -43 -46 -13 -57 -18 hvcurveto
          -5 295 -108 hlineto
          174 -651 rmoveto
          -41 -16 14 56 -6 hvcurveto
          -2 23 -1 30 40 vvcurveto
          48 1 35 4 24 vhcurveto
          43 6 17 13 38 11 callgsubr
        </CharString>
        <CharString name="three">
          28 189 -19 callgsubr
          -138 -50 -44 callsubr
        </CharString>
        <CharString name="three.dnom">
          -134 117 -4 -74 callsubr
          endchar
        </CharString>
        <CharString name="three.numr">
          -134 117 304 -74 callsubr
          endchar
        </CharString>
        <CharString name="three.tnum">
          75 219 -19 callgsubr
          -139 -49 -44 callsubr
        </CharString>
        <CharString name="threeeighths">
          270 117 304 -74 callsubr
          -6 -304 -17 callsubr
          65 -692 -95 callgsubr
        </CharString>
        <CharString name="threequarters">
          247 42 379 rmoveto
          -2 callsubr
          88 25 33 75 53 -19 24 -29 11 hvcurveto
          4 vlineto
          30 8 callsubr
          -64 vlineto
          5 -63 callgsubr
          81 -379 -17 callsubr
          32 -688 rmoveto
          74 75 33 67 -33 108 -50 hlineto
          -24 -108 rlineto
          -57 hlineto
          84 232 rlineto
          -76 hlineto
          -83 -245 rlineto
          -54 132 vlineto
          endchar
        </CharString>
        <CharString name="tilde">
          -91 306 743 -107 callsubr
          endchar
        </CharString>
        <CharString name="tildecomb">
          -6 743 -107 callsubr
          endchar
        </CharString>
        <CharString name="tildecomb.case">
          -6 888 -107 callsubr
          endchar
        </CharString>
        <CharString name="trademark">
          162 98 386 rmoveto
          55 251 62 51 -178 -51 61 hlineto
          153 -251 rmoveto
          52 225 4 hlineto
          49 -225 rlineto
          50 hlineto
          48 225 rlineto
          4 -225 52 302 -80 hlineto
          -45 -217 rlineto
          -5 hlineto
          -47 217 rlineto
          -82 hlineto
          endchar
        </CharString>
        <CharString name="two">
          42 155 133 rmoveto
          52 0 25 8 16 vhcurveto
          6 12 9 6 14 8 44 23 42 23 43 23 rrcurveto
          59 -4 callgsubr
          54 4 32 -29 callgsubr
        </CharString>
        <CharString name="two.dnom">
          -123 103 78 -56 callsubr
        </CharString>
        <CharString name="two.numr">
          -123 103 386 -56 callsubr
        </CharString>
        <CharString name="two.tnum">
          75 172 133 rmoveto
          50 1 25 6 15 vhcurveto
          6 14 9 7 15 7 130 70 rcurveline
          58 -4 callgsubr
          55 4 31 -29 callgsubr
        </CharString>
        <CharString name="u">
          46 296 hmoveto
          100 -56 callgsubr
          -102 callgsubr
          endchar
        </CharString>
        <CharString name="uacute">
          46 177 599 -100 callgsubr
          119 -604 rmoveto
          100 -56 callgsubr
          -102 callgsubr
          endchar
        </CharString>
        <CharString name="ubreve">
          46 348 -76 callsubr
          -52 -743 rmoveto
          100 -56 callgsubr
          -102 callgsubr
          endchar
        </CharString>
        <CharString name="ucircumflex">
          46 92 -86 callgsubr
          204 -617 rmoveto
          100 -56 callgsubr
          -102 callgsubr
          endchar
        </CharString>
        <CharString name="udieresis">
          46 87 627 -85 callsubr
          34 -722 rmoveto
          100 -56 callgsubr
          -102 callgsubr
          endchar
        </CharString>
        <CharString name="ugrave">
          46 184 599 -89 callsubr
          188 -738 rmoveto
          100 -56 callgsubr
          -102 callgsubr
          endchar
        </CharString>
        <CharString name="uhorn">
          46 408 607 rmoveto
          -61 vlineto
          -28 -11 -8 -59 vhcurveto
          -50 -102 callgsubr
          4 -64 rlineto
          100 462 hlineto
          73 8 10 29 70 vvcurveto
          38 vlineto
          endchar
        </CharString>
        <CharString name="uhungarumlaut">
          46 121 609 -79 callsubr
          32 -613 rmoveto
          100 -56 callgsubr
          -102 callgsubr
          endchar
        </CharString>
        <CharString name="umacron">
          46 124 643 -63 callsubr
          172 -743 rmoveto
          100 -56 callgsubr
          -102 callgsubr
          endchar
        </CharString>
        <CharString name="underscore">
          -56 -181 vmoveto
          347 92 -347 hlineto
          endchar
        </CharString>
        <CharString name="underscoredbl">
          -56 -154 vmoveto
          347 91 -347 hlineto
          -226 vmoveto
          347 91 -347 hlineto
          endchar
        </CharString>
        <CharString name="uni00AD">
          13 callgsubr
        </CharString>
        <CharString name="uni00B2">
          -107 117 409 rmoveto
          23 3 6 18 9 vhcurveto
          22 14 23 13 22 13 rrcurveto
          -65 callgsubr
          68 -135 vlineto
          endchar
        </CharString>
        <CharString name="uni00B3">
          -109 136 307 rmoveto
          88 25 33 75 53 -19 24 -29 11 hvcurveto
          4 vlineto
          30 8 callsubr
          -64 vlineto
          5 -63 callgsubr
          -2 callsubr
          endchar
        </CharString>
        <CharString name="uni00B5">
          -45 callsubr
        </CharString>
        <CharString name="uni00B9">
          -182 -49 callgsubr
          endchar
        </CharString>
        <CharString name="uni0162">
          11 12 688 rmoveto
          -106 138 -582 21 vlineto
          18 callsubr
          36 190 rlineto
          19 582 137 106 hlineto
          endchar
        </CharString>
        <CharString name="uni0163">
          -112 191 510 rmoveto
          148 -108 -148 -67 -93 67 -417 18 vlineto
          18 callsubr
          36 190 rlineto
          16 417 82 93 hlineto
          endchar
        </CharString>
        <CharString name="uni018F">
          106 237 696 rmoveto
          -47 -56 -7 -9 -32 hvcurveto
          -95 vlineto
          5 32 46 3 34 hhcurveto
          117 17 -18 -176 2 hvcurveto
          -305 -55 hlineto
          -278 7 -74 202 -71 callsubr
          278 -26 74 -201 vhcurveto
          17 -601 rmoveto
          -84 -11 5 196 -1 hvcurveto
          193 hlineto
          -196 -1 -11 -5 -85 hhcurveto
          endchar
        </CharString>
        <CharString name="uni019D">
          121 355 688 rmoveto
          -404 -4 vlineto
          -178 404 rlineto
          -114 -743 hlineto
          -38 -4 -14 -60 vhcurveto
          -86 vlineto
          138 36 14 166 hvcurveto
          438 4 vlineto
          186 -425 rlineto
          106 688 hlineto
          endchar
        </CharString>
        <CharString name="uni01C4">
          524 645 754 -97 callsubr
          -510 -881 rmoveto
          -52 callsubr
        </CharString>
        <CharString name="uni01C5">
          479 639 609 -97 callsubr
          -504 -736 rmoveto
          -75 callsubr
          296 -103 rmoveto
          -80 callsubr
          endchar
        </CharString>
        <CharString name="uni01C6">
          429 -77 callgsubr
          407 617 -97 callsubr
          -24 -736 rmoveto
          -80 callsubr
          -262 5 -73 callsubr
          endchar
        </CharString>
        <CharString name="uni01C7">
          255 59 hmoveto
          -43 callsubr
          332 -591 -72 callsubr
        </CharString>
        <CharString name="uni01C8">
          189 430 -37 callsubr
          -371 -743 rmoveto
          -43 callsubr
          309 -881 -76 callgsubr
        </CharString>
        <CharString name="uni01C9">
          25 -9 callsubr
          213 -110 -46 callgsubr
          -62 -936 -76 callgsubr
        </CharString>
        <CharString name="uni01CA">
          401 359 hmoveto
          -81 callsubr
          364 -328 -72 callsubr
        </CharString>
        <CharString name="uni01CB">
          335 576 -37 callsubr
          -217 -743 rmoveto
          -81 callsubr
          341 -618 -76 callgsubr
        </CharString>
        <CharString name="uni01CC">
          260 501 -37 callsubr
          -211 -743 rmoveto
          -83 callgsubr
          149 -474 -76 callgsubr
        </CharString>
        <CharString name="uni01CD">
          92 192 754 -97 callsubr
          251 -881 rmoveto
          -103 callgsubr
          endchar
        </CharString>
        <CharString name="uni01CD.ss01">
          106 198 754 -97 callsubr
          218 -881 rmoveto
          -106 callsubr
          endchar
        </CharString>
        <CharString name="uni01CE">
          19 156 609 -97 callsubr
          67 -744 -107 callgsubr
          endchar
        </CharString>
        <CharString name="uni01CF">
          -168 62 754 -97 callsubr
          74 -881 -57 callgsubr
        </CharString>
        <CharString name="uni01D0">
          -189 51 609 -97 callsubr
          78 -736 -62 callgsubr
        </CharString>
        <CharString name="uni01D1">
          106 199 754 -97 callsubr
          131 -889 -104 callgsubr
          endchar
        </CharString>
        <CharString name="uni01D2">
          32 161 609 -97 callsubr
          132 -744 -104 callsubr
          endchar
        </CharString>
        <CharString name="uni01D3">
          106 198 754 -97 callsubr
          218 -193 -100 callsubr
        </CharString>
        <CharString name="uni01D4">
          46 168 609 -97 callsubr
          204 -736 rmoveto
          100 -56 callgsubr
          -102 callgsubr
          endchar
        </CharString>
        <CharString name="uni01D5">
          106 156 913 rmoveto
          199 98 -199 hlineto
          -38 -231 -69 callsubr
        </CharString>
        <CharString name="uni01D6">
          46 126 803 -63 callsubr
          -38 -268 -85 callsubr
          33 -730 rmoveto
          100 -56 callgsubr
          -102 callgsubr
          endchar
        </CharString>
        <CharString name="uni01D7">
          106 215 871 rmoveto
          72 -98 callsubr
          -1 -83 -95 97 vlineto
          78 hmoveto
          96 95 -96 hlineto
          47 -187 -100 callsubr
        </CharString>
        <CharString name="uni01D8">
          46 175 759 -100 callgsubr
          -87 -129 -85 callsubr
          33 -730 rmoveto
          100 -56 callgsubr
          -102 callgsubr
          endchar
        </CharString>
        <CharString name="uni01D9">
          106 200 881 -97 callsubr
          -6 -228 -69 callsubr
        </CharString>
        <CharString name="uni01DA">
          46 170 769 -97 callsubr
          -6 -261 -85 callsubr
          33 -730 rmoveto
          100 -56 callgsubr
          -102 callgsubr
          endchar
        </CharString>
        <CharString name="uni01DB">
          106 293 871 rmoveto
          -91 96 95 -83 1 vlineto
          -53 -68 callgsubr
          -110 -5 hlineto
          76 -139 rlineto
          -4 4 rmoveto
          -97 -95 97 hlineto
          125 -92 -100 callsubr
        </CharString>
        <CharString name="uni01DC">
          46 181 759 -89 callsubr
          -17 -263 -85 callsubr
          33 -730 rmoveto
          100 -56 callgsubr
          -102 callgsubr
          endchar
        </CharString>
        <CharString name="uni01EA">
          106 342 3 callgsubr
          -30 -10 17 20 46 22 40 44 30 hvcurveto
          63 42 3 95 185 vvcurveto
          278 -8 74 -202 -202 -7 -74 -278 -278 7 -74 202 12 12 0 1 11 vhcurveto
          -26 -34 -18 -38 -36 vvcurveto
          -42 22 -39 75 vhcurveto
          -88 291 -51 callsubr
        </CharString>
        <CharString name="uni01EB">
          32 217 518 rmoveto
          -165 -13 -53 -210 -209 13 -54 165 hvcurveto
          20 hlineto
          -25 -33 -17 -37 -37 vvcurveto
          -43 22 -38 -11 callsubr
          -7 hhcurveto
          -30 -9 17 21 43 29 44 34 25 hvcurveto
          45 34 5 70 132 vvcurveto
          210 -13 53 -165 vhcurveto
          -433 vmoveto
          -37 callgsubr
        </CharString>
        <CharString name="uni01F1">
          524 59 hmoveto
          -52 callsubr
        </CharString>
        <CharString name="uni01F2">
          479 59 hmoveto
          -75 callsubr
          296 -103 rmoveto
          -80 callsubr
          endchar
        </CharString>
        <CharString name="uni01F3">
          429 -77 callgsubr
          307 8 rmoveto
          -80 callsubr
          -262 5 -73 callsubr
          endchar
        </CharString>
        <CharString name="uni01F4">
          82 188 744 -100 callgsubr
          135 -460 -94 callgsubr
          endchar
        </CharString>
        <CharString name="uni01F4.ss01">
          94 193 744 -100 callgsubr
          69 -757 -94 callsubr
          endchar
        </CharString>
        <CharString name="uni01F5">
          41 171 599 -100 callgsubr
          33 -804 -101 callsubr
        </CharString>
        <CharString name="uni0200">
          92 217 754 -95 callsubr
          79 -754 rmoveto
          -103 callgsubr
          endchar
        </CharString>
        <CharString name="uni0200.ss01">
          106 223 754 -95 callsubr
          46 -754 rmoveto
          -106 callsubr
          endchar
        </CharString>
        <CharString name="uni0201">
          19 181 609 -95 callsubr
          -105 -617 -107 callgsubr
          endchar
        </CharString>
        <CharString name="uni0202">
          92 123 757 -87 callsubr
          244 -757 rmoveto
          -103 callgsubr
          endchar
        </CharString>
        <CharString name="uni0202.ss01">
          106 129 757 -87 callsubr
          211 -757 rmoveto
          -106 callsubr
          endchar
        </CharString>
        <CharString name="uni0203">
          19 87 612 -87 callsubr
          60 -620 -107 callgsubr
          endchar
        </CharString>
        <CharString name="uni0204">
          20 192 754 -95 callsubr
          -204 -754 rmoveto
          -91 callgsubr
          endchar
        </CharString>
        <CharString name="uni0205">
          22 181 609 -95 callsubr
          132 -354 -105 callgsubr
          endchar
        </CharString>
        <CharString name="uni0206">
          20 98 757 -87 callsubr
          -39 -757 rmoveto
          -91 callgsubr
          endchar
        </CharString>
        <CharString name="uni0207">
          22 213 683 -43 callgsubr
          171 -428 -105 callgsubr
          endchar
        </CharString>
        <CharString name="uni0208">
          -168 87 754 -95 callsubr
          -98 -754 -57 callgsubr
        </CharString>
        <CharString name="uni0209">
          -189 76 609 -95 callsubr
          -94 -609 -62 callgsubr
        </CharString>
        <CharString name="uni020A">
          -168 -7 757 -87 callsubr
          67 -757 -57 callgsubr
        </CharString>
        <CharString name="uni020B">
          -189 -18 612 -87 callsubr
          71 -612 -62 callgsubr
        </CharString>
        <CharString name="uni020C">
          106 224 754 -95 callsubr
          -41 -762 -104 callgsubr
          endchar
        </CharString>
        <CharString name="uni020D">
          32 186 609 -95 callsubr
          -40 -617 -104 callsubr
          endchar
        </CharString>
        <CharString name="uni020E">
          106 130 757 -87 callsubr
          124 -765 -104 callgsubr
          endchar
        </CharString>
        <CharString name="uni020F">
          32 92 612 -87 callsubr
          125 -620 -104 callsubr
          endchar
        </CharString>
        <CharString name="uni0210">
          87 214 754 -95 callsubr
          180 -754 rmoveto
          -80 callgsubr
        </CharString>
        <CharString name="uni0210.ss01">
          93 217 754 -95 callsubr
          157 -587 -93 callsubr
          endchar
        </CharString>
        <CharString name="uni0211">
          -101 120 609 -95 callsubr
          -138 -609 rmoveto
          -75 callgsubr
          endchar
        </CharString>
        <CharString name="uni0212">
          87 246 828 -43 callgsubr
          219 -828 rmoveto
          -80 callgsubr
        </CharString>
        <CharString name="uni0212.ss01">
          93 249 828 -43 callgsubr
          196 -661 -93 callsubr
          endchar
        </CharString>
        <CharString name="uni0213">
          -101 26 612 -87 callsubr
          27 -612 rmoveto
          -75 callgsubr
          endchar
        </CharString>
        <CharString name="uni0214">
          106 223 754 -95 callsubr
          46 -66 -100 callsubr
        </CharString>
        <CharString name="uni0215">
          46 193 609 -95 callsubr
          32 -609 rmoveto
          100 -56 callgsubr
          -102 callgsubr
          endchar
        </CharString>
        <CharString name="uni0216">
          106 129 757 -87 callsubr
          211 -69 -100 callsubr
        </CharString>
        <CharString name="uni0217">
          46 99 612 -87 callsubr
          197 -612 rmoveto
          100 -56 callgsubr
          -102 callgsubr
          endchar
        </CharString>
        <CharString name="uni021A">
          11 150 hmoveto
          -31 callgsubr
          -4 -820 -87 callgsubr
        </CharString>
        <CharString name="uni021B">
          -112 83 hmoveto
          -42 callsubr
          -7 -655 -87 callgsubr
        </CharString>
        <CharString name="uni0232">
          49 126 788 -63 callsubr
          43 -888 rmoveto
          -84 callsubr
          endchar
        </CharString>
        <CharString name="uni0232.loclGUA">
          53 327 888 19 callgsubr
          -13 -100 -92 callsubr
        </CharString>
        <CharString name="uni0233">
          46 124 643 -63 callsubr
          87 -943 -96 callgsubr
          endchar
        </CharString>
        <CharString name="uni0233.loclGUA">
          9 307 743 19 callgsubr
          -19 -133 -83 callsubr
        </CharString>
        <CharString name="uni0237">
          -189 -10 -193 -76 callgsubr
        </CharString>
        <CharString name="uni0259">
          22 200 518 rmoveto
          -53 -61 -7 -9 -33 hvcurveto
          -85 vlineto
          5 47 47 3 29 hhcurveto
          96 6 -14 -119 hvcurveto
          -237 -37 hlineto
          -189 3 -74 163 167 12 80 184 188 -14 74 -172 vhcurveto
          9 -433 rmoveto
          -54 -11 12 114 hvcurveto
          1 134 vlineto
          -111 -1 -8 -16 -60 hhcurveto
          endchar
        </CharString>
        <CharString name="uni0272">
          46 -10 -193 rmoveto
          135 36 14 166 hvcurveto
          280 vlineto
          115 3 35 64 56 6 -8 -128 vhcurveto
          -281 8 callgsubr
          vlineto
          -27 callgsubr
          -28 callsubr
          vhcurveto
          -40 callsubr
          -565 hlineto
          -38 -4 -14 -59 vhcurveto
          endchar
        </CharString>
        <CharString name="uni02BC">
          -255 -15 callgsubr
          endchar
        </CharString>
        <CharString name="uni02C9">
          -102 50 643 -63 callsubr
          endchar
        </CharString>
        <CharString name="uni0302">
          -269 -86 callgsubr
          endchar
        </CharString>
        <CharString name="uni0302.case">
          -269 755 -106 callgsubr
          endchar
        </CharString>
        <CharString name="uni03020300">
          -84 -36 callsubr
          endchar
        </CharString>
        <CharString name="uni03020300.case">
          -84 885 -89 callsubr
          -109 -301 -106 callgsubr
          endchar
        </CharString>
        <CharString name="uni03020301">
          -114 -38 callgsubr
          endchar
        </CharString>
        <CharString name="uni03020301.case">
          -114 902 -100 callgsubr
          -155 -167 -106 callgsubr
          endchar
        </CharString>
        <CharString name="uni03020303">
          15 916 -107 callsubr
          -284 -306 -106 callgsubr
          endchar
        </CharString>
        <CharString name="uni03020303.case">
          15 1030 -107 callsubr
          -284 -306 -106 callgsubr
          endchar
        </CharString>
        <CharString name="uni03020309">
          -107 762 -105 callsubr
          -162 -170 -106 callgsubr
          endchar
        </CharString>
        <CharString name="uni03020309.case">
          -107 877 -105 callsubr
          -162 -171 -106 callgsubr
          endchar
        </CharString>
        <CharString name="uni0304">
          -251 643 -63 callsubr
          endchar
        </CharString>
        <CharString name="uni0304.case">
          -251 788 -63 callsubr
          endchar
        </CharString>
        <CharString name="uni0306">
          -6 -76 callsubr
          endchar
        </CharString>
        <CharString name="uni0306.case">
          -6 -81 callgsubr
          endchar
        </CharString>
        <CharString name="uni03060300">
          -173 772 -38 callsubr
        </CharString>
        <CharString name="uni03060300.case">
          -173 917 -38 callsubr
        </CharString>
        <CharString name="uni03060301">
          -177 772 -39 callgsubr
        </CharString>
        <CharString name="uni03060301.case">
          -177 917 -39 callgsubr
        </CharString>
        <CharString name="uni03060303">
          22 916 -82 callgsubr
          endchar
        </CharString>
        <CharString name="uni03060303.case">
          22 1061 -82 callgsubr
          endchar
        </CharString>
        <CharString name="uni03060309">
          -171 744 -78 callsubr
          endchar
        </CharString>
        <CharString name="uni03060309.case">
          -171 889 -78 callsubr
          endchar
        </CharString>
        <CharString name="uni0307">
          -106 -29 callsubr
          endchar
        </CharString>
        <CharString name="uni0307.case">
          -106 -33 callsubr
          endchar
        </CharString>
        <CharString name="uni0308">
          -281 635 -85 callsubr
          endchar
        </CharString>
        <CharString name="uni0308.case">
          -281 -58 callsubr
          endchar
        </CharString>
        <CharString name="uni030A">
          -126 609 -90 callsubr
          endchar
        </CharString>
        <CharString name="uni030A.case">
          -126 724 -90 callsubr
          endchar
        </CharString>
        <CharString name="uni030B">
          -291 609 -79 callsubr
          endchar
        </CharString>
        <CharString name="uni030B.case">
          -291 754 -79 callsubr
          endchar
        </CharString>
        <CharString name="uni030C">
          -194 609 -97 callsubr
          endchar
        </CharString>
        <CharString name="uni030C.case">
          -194 754 -97 callsubr
          endchar
        </CharString>
        <CharString name="uni030F">
          -153 609 -95 callsubr
          endchar
        </CharString>
        <CharString name="uni030F.case">
          -153 754 -95 callsubr
          endchar
        </CharString>
        <CharString name="uni0311">
          -255 612 -87 callsubr
          endchar
        </CharString>
        <CharString name="uni0311.case">
          -255 757 -87 callsubr
          endchar
        </CharString>
        <CharString name="uni0312">
          -307 -14 callsubr
          endchar
        </CharString>
        <CharString name="uni031B">
          -199 510 rmoveto
          -49 -50 49 hlineto
          126 15 23 86 hvcurveto
          38 -71 -61 vlineto
          -28 -11 -8 -59 vhcurveto
          endchar
        </CharString>
        <CharString name="uni0326">
          -172 -238 -87 callgsubr
        </CharString>
        <CharString name="uni0327">
          -145 1 callsubr
        </CharString>
        <CharString name="uni0328">
          -193 vmoveto
          -35 callgsubr
        </CharString>
        <CharString name="uni0335">
          -246 298 rmoveto
          238 100 -238 hlineto
          endchar
        </CharString>
        <CharString name="uni0336">
          -58 473 rmoveto
          100 -404 -100 vlineto
          endchar
        </CharString>
        <CharString name="uni0394">
          -25 callgsubr
        </CharString>
        <CharString name="uni03A9">
          -62 callsubr
        </CharString>
        <CharString name="uni03BC">
          -45 callsubr
        </CharString>
        <CharString name="uni1E0C">
          92 59 hmoveto
          -75 callsubr
          -46 -284 -89 callgsubr
        </CharString>
        <CharString name="uni1E0D">
          42 -77 callgsubr
          45 100 -73 callsubr
          -56 -273 -89 callgsubr
        </CharString>
        <CharString name="uni1E24">
          -20 callgsubr
          -149 -474 -89 callgsubr
        </CharString>
        <CharString name="uni1E25">
          46 290 hmoveto
          -55 callgsubr
          -127 -462 -89 callgsubr
        </CharString>
        <CharString name="uni1E44">
          121 213 -33 callsubr
          146 -875 rmoveto
          -81 callsubr
          endchar
        </CharString>
        <CharString name="uni1E45">
          46 175 -29 callsubr
          115 -730 rmoveto
          -84 callgsubr
        </CharString>
        <CharString name="uni1E5A">
          -46 callsubr
          -70 -535 -89 callgsubr
        </CharString>
        <CharString name="uni1E5A.ss01">
          -54 callsubr
          -69 -537 -89 callgsubr
        </CharString>
        <CharString name="uni1E5B">
          -26 callgsubr
          -691 -89 callgsubr
        </CharString>
        <CharString name="uni1E62">
          -68 callsubr
          -173 -89 callgsubr
        </CharString>
        <CharString name="uni1E63">
          -61 callgsubr
          -173 -89 callgsubr
        </CharString>
        <CharString name="uni1E6C">
          11 150 hmoveto
          -31 callgsubr
          -4 -763 -89 callgsubr
        </CharString>
        <CharString name="uni1E6D">
          -112 83 hmoveto
          -42 callsubr
          -7 -598 -89 callgsubr
        </CharString>
        <CharString name="uni1E92">
          29 30 hmoveto
          -74 callgsubr
          125 -278 -89 callgsubr
        </CharString>
        <CharString name="uni1E93">
          -16 34 hmoveto
          -80 callsubr
          99 -268 -89 callgsubr
        </CharString>
        <CharString name="uni1E9E">
          163 375 385 rmoveto
          116 202 rlineto
          86 vlineto
          10 -54 -81 13 -84 hhcurveto
          -190 -27 -71 -262 hvcurveto
          -363 114 363 vlineto
          206 7 24 102 29 31 -1 -3 31 vhcurveto
          -118 -206 rlineto
          -87 88 vlineto
          56 20 -19 -85 -89 -29 -8 -71 -25 -42 4 5 -31 hvcurveto
          -95 vlineto
          -10 36 50 -7 35 hhcurveto
          148 43 60 130 148 -57 48 -97 7 hvcurveto
          endchar
        </CharString>
        <CharString name="uni1EA0">
          92 367 hmoveto
          -103 callgsubr
          -56 -756 -89 callgsubr
        </CharString>
        <CharString name="uni1EA0.ss01">
          106 340 hmoveto
          -106 callsubr
          -147 -609 -89 callgsubr
        </CharString>
        <CharString name="uni1EA1">
          19 147 -8 -107 callgsubr
          -43 -271 -89 callgsubr
        </CharString>
        <CharString name="uni1EA2">
          92 187 -93 callgsubr
          180 -740 rmoveto
          -103 callgsubr
          endchar
        </CharString>
        <CharString name="uni1EA2.ss01">
          106 193 -93 callgsubr
          147 -740 rmoveto
          -106 callsubr
          endchar
        </CharString>
        <CharString name="uni1EA3">
          19 151 610 -105 callsubr
          -4 -636 -107 callgsubr
          endchar
        </CharString>
        <CharString name="uni1EA4">
          92 273 902 -100 callgsubr
          -155 -167 -106 callgsubr
          249 -747 rmoveto
          -103 callgsubr
          endchar
        </CharString>
        <CharString name="uni1EA4.ss01">
          106 279 902 -100 callgsubr
          -155 -167 -106 callgsubr
          216 -747 rmoveto
          -106 callsubr
          endchar
        </CharString>
        <CharString name="uni1EA5">
          19 237 -38 callgsubr
          65 -625 -107 callgsubr
          endchar
        </CharString>
        <CharString name="uni1EA6">
          92 296 885 -89 callsubr
          -109 -301 -106 callgsubr
          256 -730 rmoveto
          -103 callgsubr
          endchar
        </CharString>
        <CharString name="uni1EA6.ss01">
          106 302 885 -89 callsubr
          -109 -301 -106 callgsubr
          223 -730 rmoveto
          -106 callsubr
          endchar
        </CharString>
        <CharString name="uni1EA7">
          19 260 -36 callsubr
          72 -625 -107 callgsubr
          endchar
        </CharString>
        <CharString name="uni1EA8">
          92 278 877 -105 callsubr
          -162 -171 -106 callgsubr
          251 -731 rmoveto
          -103 callgsubr
          endchar
        </CharString>
        <CharString name="uni1EA8.ss01">
          106 284 877 -105 callsubr
          -162 -171 -106 callgsubr
          218 -731 rmoveto
          -106 callsubr
          endchar
        </CharString>
        <CharString name="uni1EA9">
          19 242 762 -105 callsubr
          -162 -170 -106 callgsubr
          67 -625 -107 callgsubr
          endchar
        </CharString>
        <CharString name="uni1EAA">
          92 398 1030 -107 callsubr
          -284 -306 -106 callgsubr
          253 -731 rmoveto
          -103 callgsubr
          endchar
        </CharString>
        <CharString name="uni1EAA.ss01">
          106 404 1030 -107 callsubr
          -284 -306 -106 callgsubr
          220 -731 rmoveto
          -106 callsubr
          endchar
        </CharString>
        <CharString name="uni1EAB">
          19 362 916 -107 callsubr
          -284 -306 -106 callgsubr
          69 -625 -107 callgsubr
          endchar
        </CharString>
        <CharString name="uni1EAC">
          92 116 755 -106 callgsubr
          251 -762 rmoveto
          -103 callgsubr
          -56 -756 -89 callgsubr
        </CharString>
        <CharString name="uni1EAC.ss01">
          106 122 755 -106 callgsubr
          218 -762 rmoveto
          -106 callsubr
          -147 -609 -89 callgsubr
        </CharString>
        <CharString name="uni1EAD">
          19 80 -86 callgsubr
          67 -625 -107 callgsubr
          -43 -271 -89 callgsubr
        </CharString>
        <CharString name="uni1EAE">
          92 201 917 -39 callsubr
          -5 -888 rmoveto
          -103 callgsubr
          endchar
        </CharString>
        <CharString name="uni1EAE.ss01">
          106 207 917 -39 callsubr
          -38 -888 rmoveto
          -106 callsubr
          endchar
        </CharString>
        <CharString name="uni1EAF">
          19 165 772 -39 callsubr
          -189 -751 -107 callgsubr
          endchar
        </CharString>
        <CharString name="uni1EB0">
          92 205 917 -36 callgsubr
          -5 -888 rmoveto
          -103 callgsubr
          endchar
        </CharString>
        <CharString name="uni1EB0.ss01">
          106 211 917 -36 callgsubr
          -38 -888 rmoveto
          -106 callsubr
          endchar
        </CharString>
        <CharString name="uni1EB1">
          19 169 772 -36 callgsubr
          -189 -751 -107 callgsubr
          endchar
        </CharString>
        <CharString name="uni1EB2">
          92 205 889 -78 callsubr
          -3 -888 rmoveto
          -103 callgsubr
          endchar
        </CharString>
        <CharString name="uni1EB2.ss01">
          106 251 946 rmoveto
          -14 -6 -26 -13 -14 -6 -2 -33 rlinecurve
          -66 hlineto
          -80 11 -57 112 -71 callgsubr
          vhcurveto
          -70 hlineto
          -45 -1 -26 -55 -42 -9 16 28 -2 vhcurveto
          68 hlineto
          19 -32 callgsubr
          14 vhcurveto
          19 10 -53 callsubr
          22 37 vvcurveto
          65 -43 23 -75 -27 -43 -6 -5 -27 vhcurveto
          -72 vlineto
          4 33 32 1 -52 callgsubr
          -4 -13 -66 callgsubr
          hvcurveto
          3 -250 rmoveto
          -187 -12 -69 -242 hvcurveto
          -385 114 211 171 -211 114 -4 callsubr
          242 -13 69 -187 vhcurveto
          86 -380 rmoveto
          -171 112 hlineto
          145 4 20 81 81 5 -20 -145 vhcurveto
          endchar
        </CharString>
        <CharString name="uni1EB3">
          19 169 744 -78 callsubr
          -187 -751 -107 callgsubr
          endchar
        </CharString>
        <CharString name="uni1EB4">
          92 398 1061 -82 callgsubr
          -3 -888 rmoveto
          -103 callgsubr
          endchar
        </CharString>
        <CharString name="uni1EB4.ss01">
          106 404 1061 -82 callgsubr
          -36 -888 rmoveto
          -106 callsubr
          endchar
        </CharString>
        <CharString name="uni1EB5">
          19 362 916 -82 callgsubr
          -187 -751 -107 callgsubr
          endchar
        </CharString>
        <CharString name="uni1EB6">
          92 -23 callsubr
          -5 -888 rmoveto
          -103 callgsubr
          -56 -756 -89 callgsubr
        </CharString>
        <CharString name="uni1EB6.ss01">
          -26 callsubr
          -888 rmoveto
          -106 callsubr
          -147 -609 -89 callgsubr
        </CharString>
        <CharString name="uni1EB7">
          19 336 -76 callsubr
          -189 -751 -107 callgsubr
          -43 -271 -89 callgsubr
        </CharString>
        <CharString name="uni1EB8">
          20 59 hmoveto
          -91 callgsubr
          103 -869 -89 callgsubr
        </CharString>
        <CharString name="uni1EB9">
          22 384 255 -105 callgsubr
          -65 -606 -89 callgsubr
        </CharString>
        <CharString name="uni1EBA">
          20 162 -93 callgsubr
          -103 -740 rmoveto
          -91 callgsubr
          endchar
        </CharString>
        <CharString name="uni1EBB">
          22 239 -78 callgsubr
          145 -470 -105 callgsubr
          endchar
        </CharString>
        <CharString name="uni1EBC">
          20 373 888 -107 callsubr
          -314 -888 rmoveto
          -91 callgsubr
          endchar
        </CharString>
        <CharString name="uni1EBD">
          22 146 652 -90 callgsubr
          238 -397 -105 callgsubr
          endchar
        </CharString>
        <CharString name="uni1EBE">
          20 248 902 -100 callgsubr
          -155 -167 -106 callgsubr
          -34 -747 rmoveto
          -91 callgsubr
          endchar
        </CharString>
        <CharString name="uni1EBF">
          22 290 915 rmoveto
          -53 -139 rlineto
          -5 86 vlineto
          77 -68 callgsubr
          5 vlineto
          -187 -226 -70 callsubr
          61 -51 callgsubr
        </CharString>
        <CharString name="uni1EC0">
          20 271 885 -89 callsubr
          -109 -301 -106 callgsubr
          -27 -730 rmoveto
          -91 callgsubr
          endchar
        </CharString>
        <CharString name="uni1EC1">
          22 347 771 -64 callgsubr
          -54 -82 -70 callsubr
          234 -355 -105 callgsubr
          endchar
        </CharString>
        <CharString name="uni1EC2">
          20 253 877 -105 callsubr
          -162 -171 -106 callgsubr
          -32 -731 rmoveto
          -91 callgsubr
          endchar
        </CharString>
        <CharString name="uni1EC3">
          22 292 972 rmoveto
          -27 -43 -6 -5 -27 hvcurveto
          -72 vlineto
          4 33 32 2 -52 callgsubr
          -5 -13 -66 callgsubr
          hvcurveto
          -77 callsubr
          -18 72 vlineto
          18 -32 callgsubr
          15 vhcurveto
          19 9 -53 callsubr
          23 37 vvcurveto
          64 -43 23 -75 vhcurveto
          -81 -283 -70 callsubr
          63 -51 callgsubr
        </CharString>
        <CharString name="uni1EC4">
          20 373 1030 -107 callsubr
          -284 -306 -106 callgsubr
          -30 -731 rmoveto
          -91 callgsubr
          endchar
        </CharString>
        <CharString name="uni1EC5">
          22 146 825 -90 callgsubr
          7 -82 rmoveto
          -75 -126 rlineto
          -7 75 vlineto
          56 79 57 -79 rlineto
          75 7 hlineto
          -75 126 rlineto
          118 -488 -105 callgsubr
          endchar
        </CharString>
        <CharString name="uni1EC6">
          20 91 755 -106 callgsubr
          -32 -762 rmoveto
          -91 callgsubr
          103 -869 -89 callgsubr
        </CharString>
        <CharString name="uni1EC7">
          22 211 689 -70 callsubr
          229 -355 -105 callgsubr
          -65 -606 -89 callgsubr
        </CharString>
        <CharString name="uni1EC8">
          -168 57 -93 callgsubr
          3 -740 -57 callgsubr
        </CharString>
        <CharString name="uni1EC9">
          -189 46 610 -105 callsubr
          7 -628 -62 callgsubr
        </CharString>
        <CharString name="uni1ECA">
          -168 60 hmoveto
          115 688 -115 hlineto
          -3 -869 -89 callgsubr
        </CharString>
        <CharString name="uni1ECB">
          -12 callgsubr
          -1 -691 -89 callgsubr
        </CharString>
        <CharString name="uni1ECC">
          106 254 -8 -104 callgsubr
          -60 -276 -89 callgsubr
        </CharString>
        <CharString name="uni1ECD">
          32 217 -8 -104 callsubr
          -61 -266 -89 callgsubr
        </CharString>
        <CharString name="uni1ECE">
          106 194 -93 callgsubr
          60 -748 -104 callgsubr
          endchar
        </CharString>
        <CharString name="uni1ECF">
          32 156 610 -105 callsubr
          61 -636 -104 callsubr
          endchar
        </CharString>
        <CharString name="uni1ED0">
          106 280 902 -100 callgsubr
          -155 -167 -106 callgsubr
          129 -755 -104 callgsubr
          endchar
        </CharString>
        <CharString name="uni1ED1">
          32 242 -38 callgsubr
          130 -625 -104 callsubr
          endchar
        </CharString>
        <CharString name="uni1ED2">
          106 303 885 -89 callsubr
          -109 -301 -106 callgsubr
          136 -738 -104 callgsubr
          endchar
        </CharString>
        <CharString name="uni1ED3">
          32 265 -36 callsubr
          137 -625 -104 callsubr
          endchar
        </CharString>
        <CharString name="uni1ED4">
          106 285 877 -105 callsubr
          -162 -171 -106 callgsubr
          131 -739 -104 callgsubr
          endchar
        </CharString>
        <CharString name="uni1ED5">
          32 247 762 -105 callsubr
          -162 -170 -106 callgsubr
          132 -625 -104 callsubr
          endchar
        </CharString>
        <CharString name="uni1ED6">
          106 405 1030 -107 callsubr
          -284 -306 -106 callgsubr
          133 -739 -104 callgsubr
          endchar
        </CharString>
        <CharString name="uni1ED7">
          32 367 916 -107 callsubr
          -284 -306 -106 callgsubr
          134 -625 -104 callsubr
          endchar
        </CharString>
        <CharString name="uni1ED8">
          106 123 755 -106 callgsubr
          131 -770 -104 callgsubr
          -60 -276 -89 callgsubr
        </CharString>
        <CharString name="uni1ED9">
          32 85 -86 callgsubr
          132 -625 -104 callsubr
          -61 -266 -89 callgsubr
        </CharString>
        <CharString name="uni1EDA">
          106 363 883 -69 callgsubr
          171 41 -88 callgsubr
        </CharString>
        <CharString name="uni1EDB">
          32 329 738 -69 callgsubr
          141 8 -92 callgsubr
          endchar
        </CharString>
        <CharString name="uni1EDC">
          106 305 744 -64 callgsubr
          239 41 -88 callgsubr
        </CharString>
        <CharString name="uni1EDD">
          32 259 599 -64 callgsubr
          221 8 -92 callgsubr
          endchar
        </CharString>
        <CharString name="uni1EDE">
          106 282 -70 callgsubr
          175 -52 -88 callgsubr
        </CharString>
        <CharString name="uni1EDF">
          32 244 -78 callgsubr
          149 -118 -92 callgsubr
          endchar
        </CharString>
        <CharString name="uni1EE0">
          106 189 797 -90 callgsubr
          268 -12 -88 callgsubr
        </CharString>
        <CharString name="uni1EE1">
          32 151 652 -90 callgsubr
          242 -45 -92 callgsubr
          endchar
        </CharString>
        <CharString name="uni1EE2">
          106 457 785 -88 callsubr
          -60 -276 -89 callgsubr
        </CharString>
        <CharString name="uni1EE3">
          32 393 607 -92 callgsubr
          -61 -266 -89 callgsubr
        </CharString>
        <CharString name="uni1EE4">
          106 340 688 -99 callgsubr
          -261 -869 -89 callgsubr
        </CharString>
        <CharString name="uni1EE5">
          46 296 hmoveto
          100 -56 callgsubr
          -102 callgsubr
          -137 -245 -89 callgsubr
        </CharString>
        <CharString name="uni1EE6">
          106 193 -93 callgsubr
          147 -52 -100 callsubr
        </CharString>
        <CharString name="uni1EE7">
          46 163 610 -105 callsubr
          133 -628 rmoveto
          100 -56 callgsubr
          -102 callgsubr
          endchar
        </CharString>
        <CharString name="uni1EE8">
          106 362 883 -69 callgsubr
          183 41 rmoveto
          -61 vlineto
          -28 -11 -8 -59 vhcurveto
          -58 -428 hlineto
          -101 callgsubr
          337 vlineto
          75 8 10 28 71 vvcurveto
          38 vlineto
          endchar
        </CharString>
        <CharString name="uni1EE9">
          46 336 738 -69 callgsubr
          149 8 rmoveto
          -61 vlineto
          -28 -11 -8 -59 vhcurveto
          -50 -102 callgsubr
          4 -64 rlineto
          100 462 hlineto
          73 8 10 29 70 vvcurveto
          38 vlineto
          endchar
        </CharString>
        <CharString name="uni1EEA">
          106 304 744 -64 callgsubr
          251 41 rmoveto
          -61 vlineto
          -28 -11 -8 -59 vhcurveto
          -58 -428 hlineto
          -101 callgsubr
          337 vlineto
          75 8 10 28 71 vvcurveto
          38 vlineto
          endchar
        </CharString>
        <CharString name="uni1EEB">
          46 266 599 -64 callgsubr
          229 8 rmoveto
          -61 vlineto
          -28 -11 -8 -59 vhcurveto
          -50 -102 callgsubr
          4 -64 rlineto
          100 462 hlineto
          73 8 10 29 70 vvcurveto
          38 vlineto
          endchar
        </CharString>
        <CharString name="uni1EEC">
          106 281 -70 callgsubr
          187 -52 rmoveto
          -61 vlineto
          -28 -11 -8 -59 vhcurveto
          -58 -428 hlineto
          -101 callgsubr
          337 vlineto
          75 8 10 28 71 vvcurveto
          38 vlineto
          endchar
        </CharString>
        <CharString name="uni1EED">
          46 251 -78 callgsubr
          157 -118 rmoveto
          -61 vlineto
          -28 -11 -8 -59 vhcurveto
          -50 -102 callgsubr
          4 -64 rlineto
          100 462 hlineto
          73 8 10 29 70 vvcurveto
          38 vlineto
          endchar
        </CharString>
        <CharString name="uni1EEE">
          106 188 797 -90 callgsubr
          280 -12 rmoveto
          -61 vlineto
          -28 -11 -8 -59 vhcurveto
          -58 -428 hlineto
          -101 callgsubr
          337 vlineto
          75 8 10 28 71 vvcurveto
          38 vlineto
          endchar
        </CharString>
        <CharString name="uni1EEF">
          46 158 652 -90 callgsubr
          250 -45 rmoveto
          -61 vlineto
          -28 -11 -8 -59 vhcurveto
          -50 -102 callgsubr
          4 -64 rlineto
          100 462 hlineto
          73 8 10 29 70 vvcurveto
          38 vlineto
          endchar
        </CharString>
        <CharString name="uni1EF0">
          106 468 785 rmoveto
          -61 vlineto
          -28 -11 -8 -59 vhcurveto
          -58 -428 hlineto
          -101 callgsubr
          337 vlineto
          75 8 10 28 71 vvcurveto
          38 vlineto
          -346 -966 -89 callgsubr
        </CharString>
        <CharString name="uni1EF1">
          46 408 607 rmoveto
          -61 vlineto
          -28 -11 -8 -59 vhcurveto
          -50 -102 callgsubr
          4 -64 rlineto
          100 462 hlineto
          73 8 10 29 70 vvcurveto
          38 vlineto
          -324 -788 -89 callgsubr
        </CharString>
        <CharString name="uni1EF4">
          49 169 hmoveto
          -84 callsubr
          -4 -425 -89 callgsubr
        </CharString>
        <CharString name="uni1EF4.loclGUA">
          53 314 688 -91 callsubr
          -261 -869 -89 callgsubr
        </CharString>
        <CharString name="uni1EF5">
          46 211 -200 -96 callgsubr
          -61 -181 -89 callgsubr
        </CharString>
        <CharString name="uni1EF5.loclGUA">
          9 235 -196 rmoveto
          162 706 rlineto
          -109 hlineto
          -77 -391 rlineto
          -8 hlineto
          -78 391 rlineto
          -111 hlineto
          118 -510 rlineto
          38 hlineto
          -44 -196 rlineto
          16 -181 -89 callgsubr
        </CharString>
        <CharString name="uni1EF6">
          49 165 -93 callgsubr
          4 -740 rmoveto
          -84 callsubr
          endchar
        </CharString>
        <CharString name="uni1EF6.loclGUA">
          53 255 -70 callgsubr
          59 -149 -92 callsubr
        </CharString>
        <CharString name="uni1EF7">
          46 163 610 -105 callsubr
          48 -828 -96 callgsubr
          endchar
        </CharString>
        <CharString name="uni1EF7.loclGUA">
          9 235 -78 callgsubr
          53 -215 -83 callsubr
        </CharString>
        <CharString name="uni1EF8">
          49 376 888 -107 callsubr
          -207 -888 rmoveto
          -84 callsubr
          endchar
        </CharString>
        <CharString name="uni1EF8.loclGUA">
          53 162 797 -90 callgsubr
          152 -109 -92 callsubr
        </CharString>
        <CharString name="uni1EF9">
          46 374 743 -107 callsubr
          -163 -943 -96 callgsubr
          endchar
        </CharString>
        <CharString name="uni1EF9.loclGUA">
          9 142 652 -90 callgsubr
          146 -142 -83 callsubr
        </CharString>
        <CharString name="uni2002">
          -103 endchar
        </CharString>
        <CharString name="uni20B2">
          76 244 397 rmoveto
          -100 78 -14 vlineto
          -100 -12 -8 -71 -62 -18 11 158 162 15 7 117 30 57 -6 -7 42 vhcurveto
          -32 callsubr
          11 11 61 157 vvcurveto
          94 vlineto
          endchar
        </CharString>
        <CharString name="uni20B2.bold">
          76 295 397 rmoveto
          116 vlineto
          31 -1 54 -5 40 -7 rrcurveto
          -32 callsubr
          12 11 62 155 vvcurveto
          94 vlineto
          -277 -53 rmoveto
          115 8 37 46 12 vhcurveto
          -332 vlineto
          -41 6 -13 29 133 vvcurveto
          163 -61 rmoveto
          -64 -5 -26 -22 -11 vhcurveto
          115 27 vlineto
          endchar
        </CharString>
        <CharString name="uni2113">
          -12 172 210 rmoveto
          108 61 72 122 138 vvcurveto
          96 -35 68 -94 -118 -47 -107 -263 -18 0 -18 1 -16 vhcurveto
          -3 -16 -17 0 -18 hhcurveto
          -99 vlineto
          21 18 0 3 19 hvcurveto
          -129 16 45 -51 93 hhcurveto
          37 35 8 16 39 hvcurveto
          109 vlineto
          -24 -48 -27 -7 -21 hhcurveto
          -39 -18 23 91 -6 hvcurveto
          49 382 rmoveto
          22 5 -21 -35 -82 -28 -75 -51 -50 hvcurveto
          210 17 53 35 vhcurveto
          endchar
        </CharString>
        <CharString name="uni2116">
          406 646 -20 callsubr
          -287 -397 rmoveto
          -81 callsubr
          473 31 rmoveto
          4 callgsubr
          -108 -250 rmoveto
          216 93 -216 hlineto
          endchar
        </CharString>
        <CharString name="uni2126">
          -62 callsubr
        </CharString>
        <CharString name="uni2153">
          236 -49 callgsubr
          -23 -599 rmoveto
          -6 callsubr
          -71 hlineto
          -33 -624 rmoveto
          -2 callsubr
          87 26 33 75 53 -19 24 -30 11 hvcurveto
          4 vlineto
          31 -17 callgsubr
          -39 -5 -6 -26 vhcurveto
          -63 vlineto
          4 -63 callgsubr
          endchar
        </CharString>
        <CharString name="uni2154">
          277 250 383 rmoveto
          -135 26 hlineto
          23 3 6 18 9 vhcurveto
          22 14 23 13 22 13 rrcurveto
          -65 callgsubr
          vlineto
          217 373 rmoveto
          -346 -688 rlineto
          -6 callsubr
          46 -500 rmoveto
          4 vlineto
          31 8 callsubr
          -63 vlineto
          4 -63 callgsubr
          -2 callsubr
          88 25 33 75 53 -19 24 -30 11 hvcurveto
          endchar
        </CharString>
        <CharString name="uni2206">
          -25 callgsubr
        </CharString>
        <CharString name="uniA78B">
          14 callsubr
          168 -103 vlineto
          endchar
        </CharString>
        <CharString name="uniA78C">
          14 callsubr
          223 -103 vlineto
          endchar
        </CharString>
        <CharString name="uniF8FF">
          438 72 hmoveto
          697 698 -697 hlineto
          546 -316 rmoveto
          -66 vlineto
          -100 -72 -81 -124 -125 -73 81 100 vhcurveto
          66 vlineto
          100 73 81 125 124 72 -81 -100 vhcurveto
          -135 -92 rmoveto
          118 vlineto
          33 -27 27 -34 -35 -27 -27 -33 vhcurveto
          -118 vlineto
          -33 27 -27 35 34 27 27 33 vhcurveto
          endchar
        </CharString>
        <CharString name="uogonek">
          46 396 hmoveto
          -56 callgsubr
          -266 vlineto
          -102 callsubr
          4 -64 rlineto
          15 hlineto
          -33 -32 -24 -41 -43 vvcurveto
          -41 22 -39 -11 callsubr
          -5 hhcurveto
          -31 -10 17 19 37 32 40 23 18 hvcurveto
          endchar
        </CharString>
        <CharString name="uring">
          46 223 609 -90 callsubr
          73 -665 rmoveto
          100 -56 callgsubr
          -102 callgsubr
          endchar
        </CharString>
        <CharString name="utilde">
          46 374 743 -107 callsubr
          -78 -743 rmoveto
          100 -56 callgsubr
          -102 callgsubr
          endchar
        </CharString>
        <CharString name="v">
          9 132 hmoveto
          147 hlineto
          118 510 rlineto
          -109 hlineto
          -77 -391 rlineto
          -8 hlineto
          -78 391 rlineto
          -111 hlineto
          endchar
        </CharString>
        <CharString name="w">
          228 381 hmoveto
          -79 callgsubr
        </CharString>
        <CharString name="wacute">
          228 265 599 -100 callgsubr
          116 -604 rmoveto
          -79 callgsubr
        </CharString>
        <CharString name="wcircumflex">
          228 184 -86 callgsubr
          197 -617 rmoveto
          -79 callgsubr
        </CharString>
        <CharString name="wdieresis">
          228 180 635 -85 callsubr
          26 -730 rmoveto
          -79 callgsubr
        </CharString>
        <CharString name="wgrave">
          228 271 599 -89 callsubr
          186 -738 rmoveto
          -79 callgsubr
        </CharString>
        <CharString name="x">
          16 290 hmoveto
          116 hlineto
          -126 259 122 251 rlineto
          -112 hlineto
          -75 -167 rlineto
          -6 hlineto
          -76 167 rlineto
          -116 hlineto
          123 -251 -126 -259 rlineto
          111 hlineto
          80 176 rlineto
          7 hlineto
          endchar
        </CharString>
        <CharString name="y">
          46 211 -200 -96 callgsubr
          endchar
        </CharString>
        <CharString name="y.loclGUA">
          9 288 510 -83 callsubr
        </CharString>
        <CharString name="yacute">
          46 177 599 -100 callgsubr
          34 -804 -96 callgsubr
          endchar
        </CharString>
        <CharString name="yacute.loclGUA">
          9 320 738 -69 callgsubr
          45 -89 -83 callsubr
        </CharString>
        <CharString name="ycircumflex">
          46 92 -86 callgsubr
          119 -817 -96 callgsubr
          endchar
        </CharString>
        <CharString name="ycircumflex.loclGUA">
          9 207 689 -70 callsubr
          137 -100 -83 callsubr
        </CharString>
        <CharString name="ydieresis">
          46 87 627 -85 callsubr
          -51 -922 -96 callgsubr
          endchar
        </CharString>
        <CharString name="ydieresis.loclGUA">
          9 169 730 -10 callgsubr
          -55 -125 -83 callsubr
        </CharString>
        <CharString name="yen">
          95 191 hmoveto
          114 229 141 64 -127 hlineto
          34 88 rlineto
          93 65 -68 hlineto
          88 242 rlineto
          -114 hlineto
          -98 -305 rlineto
          -7 hlineto
          -98 305 rlineto
          -117 hlineto
          86 -242 rlineto
          -67 -65 92 hlineto
          34 -88 rlineto
          -126 -64 140 hlineto
          endchar
        </CharString>
        <CharString name="yen.bold">
          95 466 688 rmoveto
          -114 hlineto
          -78 -242 rlineto
          -47 hlineto
          -78 242 rlineto
          -117 hlineto
          89 -242 rlineto
          -70 -66 95 hlineto
          32 -87 rlineto
          -127 -65 140 -228 114 228 141 65 -127 hlineto
          32 87 rlineto
          95 66 -70 hlineto
          endchar
        </CharString>
        <CharString name="ygrave">
          46 179 599 -89 callsubr
          108 -938 -96 callgsubr
          endchar
        </CharString>
        <CharString name="ygrave.loclGUA">
          9 250 599 -64 callgsubr
          125 -89 -83 callsubr
        </CharString>
        <CharString name="z">
          -16 34 hmoveto
          -80 callsubr
          endchar
        </CharString>
        <CharString name="zacute">
          -16 143 599 -100 callgsubr
          -109 -604 rmoveto
          -80 callsubr
          endchar
        </CharString>
        <CharString name="zacute.loclPLK">
          -16 143 -49 callsubr
          -109 -604 rmoveto
          -80 callsubr
          endchar
        </CharString>
        <CharString name="zcaron">
          -16 144 609 -97 callsubr
          -34 -736 rmoveto
          -80 callsubr
          endchar
        </CharString>
        <CharString name="zdotaccent">
          -16 145 -29 callsubr
          -111 -730 rmoveto
          -80 callsubr
          endchar
        </CharString>
        <CharString name="zero">
          74 239 -8 rmoveto
          188 6 74 278 278 -6 74 -188 -188 -7 -74 -278 -278 7 -74 188 hvcurveto
          103 vmoveto
          -77 -4 7 242 242 4 7 77 77 4 -7 -242 -242 -4 -7 -77 hvcurveto
          endchar
        </CharString>
        <CharString name="zero.dnom">
          -109 148 -4 -44 callgsubr
        </CharString>
        <CharString name="zero.numr">
          -109 148 304 -44 callgsubr
        </CharString>
        <CharString name="zero.tnum">
          -24 callgsubr
          102 vmoveto
          -75 -3 8 242 243 3 6 75 75 3 -7 -242 -243 -3 -7 -75 hvcurveto
          endchar
        </CharString>
        <CharString name="zero.zero">
          -24 callgsubr
          -78 402 rmoveto
          191 8 8 70 69 9 -8 -191 vhcurveto
          -78 -299 rmoveto
          -70 -8 7 191 hvcurveto
          156 hlineto
          -191 -1 -7 -7 -70 hhcurveto
          endchar
        </CharString>
      <CharString index="0">
        rmoveto
        40 54 11 60 20 hvcurveto
        6 5 callsubr
        316 hlineto
        150 -28 52 -144 -47 -55 -6 -10 -44 vhcurveto
        -85 vlineto
        4 36 54 4 25 hhcurveto
        79 16 -7 -96 hvcurveto
        -25 vlineto
        2 -34 -50 2 -22 hhcurveto
        -97 -31 -41 -116 -105 33 -47 85 hvcurveto
        47 98 rmoveto
        -49 -9 12 52 58 11 9 41 hvcurveto
        75 -27 hlineto
        -46 -5 -26 -9 -12 vhcurveto
        -17 -14 -18 -3 -23 hhcurveto
        return
      </CharString>
      <CharString index="1">
        rmoveto
        75 hlineto
        56 79 57 -79 rlineto
        75 7 hlineto
        -75 126 2 callsubr
        -75 -126 rlineto
        return
      </CharString>
      <CharString index="2">
        rmoveto
        189 -3 74 -163 4 callsubr
        vhcurveto
        -98 callgsubr
        return
      </CharString>
      <CharString index="3">
        rmoveto
        -71 callsubr
        278 -8 74 -202 -202 -7 -74 -278 -278 7 -74 202 hvcurveto
        103 vmoveto
        -89 -6 6 243 243 6 6 89 89 7 -6 -243 -243 -7 -6 -89 hvcurveto
        return
      </CharString>
      <CharString index="4">
        117 -21 callsubr
        688 rlineto
        -165 -21 callsubr
        -688 rlineto
        115 hlineto
        32 156 rlineto
        176 hlineto
        -85 419 rmoveto
        63 -317 rlineto
        -133 hlineto
        64 317 rlineto
        return
      </CharString>
      <CharString index="5">
        -266 hlineto
        -102 callsubr
        return
      </CharString>
      <CharString index="6">
        -146 -4 -19 -82 -81 -4 19 146 vhcurveto
        428 -114 -385 vlineto
        -243 12 -68 187 187 13 68 243 vhcurveto
        return
      </CharString>
      <CharString index="7">
        rmoveto
        86 -98 callsubr
        return
      </CharString>
      <CharString index="8">
        rmoveto
        -428 vlineto
        -101 callgsubr
        -4 callsubr
        return
      </CharString>
      <CharString index="9">
        85 vlineto
        -5 -47 -47 -3 -29 hhcurveto
        -96 -6 14 119 hvcurveto
        237 hlineto
        -168 207 rmoveto
        54 11 -12 -114 hvcurveto
        -1 -134 vlineto
        111 1 8 16 60 hhcurveto
        return
      </CharString>
      <CharString index="10">
        -68 -2 16 154 155 2 15 68 68 2 -15 -155 -154 -25 callsubr
        hvcurveto
        return
      </CharString>
      <CharString index="11">
        rmoveto
        171 14 80 184 hvcurveto
        446 -108 -263 vlineto
        -118 -3 -33 -65 -56 -5 8 129 vhcurveto
        277 -108 -296 vlineto
        -150 10 -66 110 57 38 20 47 15 vhcurveto
        7 -33 hlineto
        -116 -5 -21 -96 -33 -48 1 1 -30 vhcurveto
        -87 vlineto
        -6 32 56 -4 47 hhcurveto
        return
      </CharString>
      <CharString index="12">
        rmoveto
        90 30 28 76 64 -19 19 -39 10 hvcurveto
        2 vlineto
        37 9 18 26 56 vvcurveto
        75 -37 23 -80 -83 -36 -23 -75 -56 19 -26 36 -9 vhcurveto
        -2 vlineto
        -38 -10 -19 -19 -64 vvcurveto
        -76 29 -28 92 vhcurveto
        229 vmoveto
        -38 -10 5 42 42 10 3 38 37 9 -3 -42 -42 -10 -5 -36 hvcurveto
        -162 vmoveto
        -38 -12 3 44 43 11 5 39 37 11 -5 -43 -44 -12 -3 -36 hvcurveto
        endchar
      </CharString>
      <CharString index="13">
        rmoveto
        -192 vlineto
        -3 -19 -24 -2 -16 hhcurveto
        -94 -11 35 217 244 20 5 128 26 56 -6 -7 42 hvcurveto
        96 vlineto
        12 -43 -67 8 -50 hhcurveto
        -186 -40 -65 -287 -288 38 -64 180 56 71 8 12 43 hvcurveto
        379 -184 -102 vlineto
        return
      </CharString>
      <CharString index="14">
        721 -34 callsubr
        19 -32 callgsubr
        14 vhcurveto
        19 10 -53 callsubr
        22 37 vvcurveto
        65 -43 23 -75 -27 -43 -6 -5 -27 vhcurveto
        -72 vlineto
        4 33 32 1 -52 callgsubr
        -4 -13 -66 callgsubr
        hvcurveto
        -14 -6 rlineto
        -28 -14 -14 -6 -40 vvcurveto
        return
      </CharString>
      <CharString index="15">
        rmoveto
        -61 vlineto
        -28 -11 -8 -59 vhcurveto
        -21 hlineto
        6 -22 -28 2 -35 5 callgsubr
        -209 13 -54 165 165 13 54 209 102 -3 65 -22 39 hvcurveto
        83 7 11 27 74 vvcurveto
        38 vlineto
        -247 -522 rmoveto
        -97 callgsubr
        return
      </CharString>
      <CharString index="16">
        328 103 -214 193 185 103 -185 186 214 103 -328 hlineto
        return
      </CharString>
      <CharString index="17">
        rmoveto
        16 20 -7 -7 22 hvcurveto
        -9 27 31 -10 30 hhcurveto
        67 3 43 81 hvcurveto
        -65 hlineto
        -32 0 -11 -19 -17 -19 6 7 -22 vhcurveto
        9 -28 -30 10 -30 hhcurveto
        -68 -3 -42 -82 hvcurveto
        65 hlineto
        33 2 11 18 vhcurveto
        return
      </CharString>
      <CharString index="18">
        -41 callsubr
        119 -64 callsubr
      </CharString>
      <CharString index="19">
        -88 callsubr
        endchar
      </CharString>
      <CharString index="20">
        15 callgsubr
        31 114 hvcurveto
        81 -115 -109 45 -16 vlineto
        -40 -9 -11 -44 vhcurveto
        endchar
      </CharString>
      <CharString index="21">
        610 -106 callgsubr
        return
      </CharString>
      <CharString index="22">
        rmoveto
        95 vlineto
        -5 -26 -37 -3 -29 hhcurveto
        -107 -8 21 228 228 8 21 107 23 34 -3 -5 33 6 callgsubr
        9 -23 -47 7 -42 hhcurveto
        -181 -26 -74 -278 -279 24 -73 183 39 48 7 9 27 hvcurveto
        endchar
      </CharString>
      <CharString index="23">
        -83 callgsubr
        endchar
      </CharString>
      <CharString index="24">
        8 callgsubr
        hlineto
        -27 callgsubr
        -28 callsubr
        vhcurveto
        -40 callsubr
        -510 108 266 hlineto
        116 3 35 64 56 6 -8 -128 vhcurveto
        return
      </CharString>
      <CharString index="25">
        -107 callsubr
        -28 -173 -103 callsubr
        return
      </CharString>
      <CharString index="26">
        888 -103 callsubr
        return
      </CharString>
      <CharString index="27">
        -87 275 rlineto
        65 34 8 80 81 vvcurveto
        136 -21 82 -149 vhcurveto
        -222 -688 114 251 98 hlineto
        74 -251 rlineto
        -91 354 rmoveto
        -81 231 81 hlineto
        75 8 -23 -92 -92 -8 -24 -75 hvcurveto
        endchar
      </CharString>
      <CharString index="28">
        134 hlineto
        98 510 rlineto
        -103 hlineto
        -59 -373 rlineto
        -7 hlineto
        -73 373 rlineto
        -107 hlineto
        -72 -373 rlineto
        -7 hlineto
        -60 373 rlineto
        -108 hlineto
        99 -510 rlineto
        135 hlineto
        61 314 rlineto
        8 hlineto
        endchar
      </CharString>
      <CharString index="29">
        725 rmoveto
        -66 callgsubr
        vhcurveto
        -77 callsubr
        -18 72 vlineto
        18 -32 callgsubr
        15 vhcurveto
        19 9 -53 callsubr
        23 37 vvcurveto
        64 -43 23 -75 -27 -43 -6 -5 -27 vhcurveto
        -72 vlineto
        4 33 32 2 -52 callgsubr
        -5 -13 hvcurveto
        return
      </CharString>
      <CharString index="30">
        172 -8 rmoveto
        42 49 11 60 18 hvcurveto
        7 5 callsubr
        743 -108 -288 -6 hlineto
        45 -18 -38 18 -52 hhcurveto
        -103 -28 -64 -201 -206 32 -55 101 hvcurveto
        return
      </CharString>
      <CharString index="31">
        rmoveto
        135 36 14 166 hvcurveto
        523 -108 -565 vlineto
        -38 -4 -14 -59 vhcurveto
        endchar
      </CharString>
      <CharString index="32">
        108 235 hlineto
        126 33 42 91 vhcurveto
        115 vlineto
        -60 -41 -19 -76 -21 hvcurveto
        -7 hlineto
        -4 87 rlineto
        -99 hlineto
        return
      </CharString>
      <CharString index="33">
        372 102 -243 hlineto
        241 489 rlineto
        97 -362 -103 232 vlineto
        -240 -488 rlineto
        return
      </CharString>
      <CharString index="34">
        rmoveto
        189 -4 75 -163 -57 -39 -13 -25 -26 vhcurveto
        26 -25 -39 12 -57 hhcurveto
        -43 -45 -5 -11 -58 hvcurveto
        -86 vlineto
        5 41 50 4 23 hhcurveto
        82 14 -8 -95 hvcurveto
        -24 vlineto
        1 -29 -47 1 -29 hhcurveto
        -98 -30 -41 -115 -105 35 -46 106 46 58 6 42 36 hvcurveto
        -35 25 42 -14 73 hhcurveto
        50 60 6 9 35 hvcurveto
        86 vlineto
        -5 -47 -47 -3 -29 hhcurveto
        -96 -6 15 118 9 callgsubr
        -134 hlineto
        110 1 8 16 61 hhcurveto
        -178 -234 rmoveto
        -33 -2 -22 -7 -17 vhcurveto
        -28 -10 -21 -6 -31 hhcurveto
        -50 -9 15 53 57 11 9 41 hvcurveto
        78 hlineto
        endchar
      </CharString>
      <CharString index="35">
        rmoveto
        86 hlineto
        48 -47 callsubr
        -24 -139 rlineto
        return
      </CharString>
      <CharString index="36">
        113 13 57 80 return
      </CharString>
      <CharString index="37">
        837 rmoveto
        -66 callgsubr
        vhcurveto
        -14 -6 rlineto
        -28 -14 -14 -6 -40 vvcurveto
        -19 72 vlineto
        19 -32 callgsubr
        14 vhcurveto
        19 10 -53 callsubr
        22 37 vvcurveto
        65 -43 23 -75 -27 -43 -6 -5 -27 vhcurveto
        -72 vlineto
        4 33 32 1 -52 callgsubr
        -4 -13 hvcurveto
        return
      </CharString>
      <CharString index="38">
        rmoveto
        5 -110 vlineto
        -53 -139 rlineto
        -5 86 vlineto
        return
      </CharString>
      <CharString index="39">
        139 rlineto
        return
      </CharString>
      <CharString index="40">
        108 417 87 93 -87 71 hlineto
        70 12 8 75 vhcurveto
        84 vlineto
        -156 -39 -12 -174 hvcurveto
        -47 -66 -93 66 vlineto
        return
      </CharString>
      <CharString index="41">
        -12 -8 -7 -24 -12 return
      </CharString>
      <CharString index="42">
        35 21 12 23 60 vvcurveto
        97 -47 8 -57 -30 -40 -4 -6 -30 vhcurveto
        -64 vlineto
        4 33 32 3 14 hhcurveto
        38 13 -5 -38 -32 -9 -5 -23 -14 hvcurveto
        -22 -14 -22 -13 -23 -14 rrcurveto
        -32 -19 -3 -27 -71 vvcurveto
        -62 208 return
      </CharString>
      <CharString index="43">
        rmoveto
        5 vlineto
        -53 -68 callgsubr
        -110 -5 hlineto
        76 -139 rlineto
        return
      </CharString>
      <CharString index="44">
        31 27 3 18 hhcurveto
        41 12 -6 -40 -42 -11 -5 -23 hvcurveto
        -58 -65 58 hlineto
        27 10 -10 -40 -42 -15 -5 -37 -16 -31 2 3 -34 hvcurveto
        return
      </CharString>
      <CharString index="45">
        -65 callsubr
        endchar
      </CharString>
      <CharString index="46">
        -60 callgsubr
        -61 return
      </CharString>
      <CharString index="47">
        -30 187 -8 -96 callsubr
        return
      </CharString>
      <CharString index="48">
        108 -56 callgsubr
        hlineto
        return
      </CharString>
      <CharString index="49">
        rmoveto
        -97 hlineto
        -22 -55 rlineto
        6 -25 -30 7 callsubr
        -156 2 -92 38 -51 hvcurveto
        -40 -100 rlineto
        97 hlineto
        22 55 rlineto
        -6 24 30 -2 36 hhcurveto
        -71 callsubr
        156 -3 92 -38 51 hvcurveto
        -169 -548 -51 callsubr
      </CharString>
      <CharString index="50">
        rmoveto
        115 688 -115 hlineto
        endchar
      </CharString>
      <CharString index="51">
        510 -108 return
      </CharString>
      <CharString index="52">
        108 335 hlineto
        124 -18 59 -101 -57 -38 -20 -48 -18 vhcurveto
        -5 293 -108 -743 108 266 hlineto
        116 3 35 64 56 6 -8 -128 vhcurveto
        return
      </CharString>
      <CharString index="53">
        -42 callgsubr
        33 -696 rmoveto
        44 63 7 9 40 hvcurveto
        96 vlineto
        -5 -31 -43 -4 -26 hhcurveto
        -71 -24 8 72 57 12 12 38 25 hvcurveto
        16 10 rlineto
        41 25 19 11 78 vvcurveto
        87 -101 -54 vlineto
        -52 -4 -7 -29 -17 vhcurveto
        -32 -18 rlineto
        -52 -29 -24 -36 -105 vvcurveto
        -126 57 -44 107 vhcurveto
        endchar
      </CharString>
      <CharString index="54">
        46 rmoveto
        32 50 rlineto
        -83 52 -55 91 105 vvcurveto
        104 56 92 82 51 vhcurveto
        -32 51 rlineto
        -99 -62 -67 -111 -125 vvcurveto
        -126 67 -110 99 -62 vhcurveto
        return
      </CharString>
      <CharString index="55">
        32 hhcurveto
        31 7 return
      </CharString>
      <CharString index="56">
        -92 rmoveto
        4 callsubr
        hvcurveto
        85 vlineto
        -5 -47 -47 -3 -29 hhcurveto
        -96 -6 14 119 hvcurveto
        237 37 hlineto
        189 -3 74 -163 vhcurveto
        -2 -93 -3 callsubr
      </CharString>
      <CharString index="57">
        46 rmoveto
        99 62 67 110 126 vvcurveto
        125 -67 111 -99 62 vhcurveto
        -32 -51 rlineto
        82 -51 56 -92 -104 vvcurveto
        -105 -55 -91 -83 -52 vhcurveto
        -31 51 rmoveto
        65 41 44 73 83 vvcurveto
        83 -44 73 -66 41 vhcurveto
        -32 -51 rlineto
        49 -31 33 -54 -61 vvcurveto
        -62 -33 -53 -48 -31 vhcurveto
        return
      </CharString>
      <CharString index="58">
        95 315 rmoveto
        74 373 -54 hlineto
        -74 -42 rlineto
        -70 vlineto
        54 23 rlineto
        return
      </CharString>
      <CharString index="59">
        rmoveto
        32 51 rlineto
        -48 31 -33 53 62 vvcurveto
        61 33 54 49 31 vhcurveto
        -32 51 rlineto
        -66 -41 -44 -73 -83 vvcurveto
        -83 44 -73 65 -41 vhcurveto
        return
      </CharString>
      <CharString index="60">
        293 102 -190 hlineto
        -28 193 rlineto
        190 103 -206 hlineto
        -26 187 rlineto
        260 103 -443 hlineto
        -203 -688 rlineto
        112 hlineto
        45 156 rlineto
        175 hlineto
        -55 419 rmoveto
        42 -317 rlineto
        -135 hlineto
        87 317 rlineto
        endchar
      </CharString>
      <CharString index="61">
        rmoveto
        110 110 -110 hlineto
        return
      </CharString>
      <CharString index="62">
        93 59 hmoveto
        177 hlineto
        207 7 70 274 274 -7 70 -207 hvcurveto
        -177 -290 -51 -100 51 hlineto
        174 -195 rmoveto
        -60 195 73 100 -73 187 60 hlineto
        95 8 -5 -236 -236 -7 -5 -96 hvcurveto
        endchar
      </CharString>
      <CharString index="63">
        rmoveto
        116 0 50 144 143 -3 51 -113 -118 1 -51 -143 -144 -1 -50 118 hvcurveto
        68 vmoveto
        -46 0 1 125 125 0 0 46 44 1 0 -125 -125 -1 -1 -44 hvcurveto
        endchar
      </CharString>
      <CharString index="64">
        rmoveto
        54 0 -26 -45 hvcurveto
        69 hlineto
        80 -11 57 -112 -113 -13 -57 -80 vhcurveto
        70 hlineto
        45 1 26 55 vhcurveto
        return
      </CharString>
      <CharString index="65">
        rmoveto
        -41 callgsubr
        return
      </CharString>
      <CharString index="66">
        121 118 -121 hlineto
        return
      </CharString>
      <CharString index="67">
        17 291 hmoveto
        115 hlineto
        -120 265 118 245 rlineto
        -111 hlineto
        -96 -208 rlineto
        -36 return
      </CharString>
      <CharString index="68">
        -39 callsubr
        endchar
      </CharString>
      <CharString index="69">
        771 -100 callgsubr
        -155 -166 -106 callgsubr
        return
      </CharString>
      <CharString index="70">
        -97 callgsubr
        endchar
      </CharString>
      <CharString index="71">
        -89 callsubr
        243 -168 -103 callsubr
        return
      </CharString>
      <CharString index="72">
        63 vlineto
        -1 -4 -7 0 -3 hhcurveto
        -32 -9 17 22 34 31 43 23 19 hvcurveto
        -84 hlineto
        -33 -34 -24 -44 -39 vvcurveto
        -45 22 -38 74 13 16 1 2 17 vhcurveto
        endchar
      </CharString>
      <CharString index="73">
        rmoveto
        78 hlineto
        43 194 rlineto
        61 -104 -61 vlineto
        return
      </CharString>
      <CharString index="74">
        83 350 hmoveto
        124 -21 callsubr
        359 151 329 rlineto
        -117 hlineto
        -128 -288 rlineto
        -53 -16 callgsubr
        297 53 hlineto
        return
      </CharString>
      <CharString index="75">
        2 2 30 return
      </CharString>
      <CharString index="76">
        114 582 137 106 -389 -106 138 hlineto
        return
      </CharString>
      <CharString index="77">
        -8 198 -85 rmoveto
        141 284 -95 -32 rlineto
        277 vlineto
        95 -32 -141 284 -142 -284 96 32 rlineto
        -277 vlineto
        -96 32 rlineto
        return
      </CharString>
      <CharString index="78">
        hhcurveto
        77 24 -7 -86 -56 -7 -18 -42 -24 hvcurveto
        -40 -22 -40 -22 -40 -23 rrcurveto
        -77 -42 -3 -43 -163 vvcurveto
        -87 363 103 -249 vlineto
        endchar
      </CharString>
      <CharString index="79">
        108 743 -108 hlineto
        return
      </CharString>
      <CharString index="80">
        127 -17 60 -102 return
      </CharString>
      <CharString index="81">
        -24 callsubr
        -7 return
      </CharString>
      <CharString index="82">
        94 11 hmoveto
        474 hlineto
        -155 688 rlineto
        -165 hlineto
        83 -110 rmoveto
        101 -481 rlineto
        -205 hlineto
        100 481 rlineto
        endchar
      </CharString>
      <CharString index="83">
        75 239 -8 rmoveto
        188 5 74 278 278 -5 74 -188 -188 -5 -74 -278 -278 5 -74 188 hvcurveto
        return
      </CharString>
      <CharString index="84">
        -743 -62 callgsubr
      </CharString>
      <CharString index="85">
        72 75 36 67 -36 93 -55 hlineto
        -19 -93 rlineto
        -68 hlineto
        87 238 rlineto
        -74 hlineto
        -88 -246 rlineto
        -59 145 vlineto
        endchar
      </CharString>
      <CharString index="86">
        hvcurveto
        83 -115 -112 45 -16 vlineto
        -53 -9 return
      </CharString>
      <CharString index="87">
        118 349 hmoveto
        -9 callgsubr
        return
      </CharString>
      <CharString index="88">
        -8 rmoveto
        156 44 60 130 113 -34 38 -61 16 hvcurveto
        4 vlineto
        59 16 30 46 101 vvcurveto
        133 -55 47 return
      </CharString>
      <CharString index="89" raw="1">
        240a650b   
      </CharString>
      <CharString index="90">
        13 15 24 50 vvcurveto
        76 -32 26 -78 -28 return
      </CharString>
</ttFont>
